{
.appVersion = "3258";
.formatVersion = 3;
DisplayStrings = (
"❸",
"/_circleOutline/A.small Ⓐ",
"ⒶⒷⒸⒹⒺⒻ/G.small ⒼⒽⒾⒿ/K.small ⓀⓁ/M.small ⓂⓃⓄⓅⓆ/R.small ⓇⓈⓉ/U.small Ⓤ/V.small/_circleOutline Ⓥ/W.small ⓌⓍ/Y.small ⓎⓏ🅦",
"dđ",
Ja,
"Ņa",
"/t.ss06/commaaccentcomb.ss01/commaaccentcomb.ss01/tcommaaccent.ss01.ss06",
"/seven.blackCircled.ss08",
"/seven.circled.ss08"
);
axes = (
{
name = Weight;
tag = wght;
},
{
name = Italic;
tag = ital;
}
);
classes = (
{
automatic = 1;
code = "A Aacute Abreve Acircumflex Adieresis Agrave Amacron Aogonek Aring Atilde AE B C Cacute Ccaron Ccedilla Cdotaccent D Dcaron Dcroat Eth E Eacute Ecaron Ecircumflex Edieresis Edotaccent Egrave Emacron Eogonek Etilde Schwa F G Gbreve Gcommaaccent Gdotaccent Gmacron H Hbar I IJ Iacute Icircumflex Idieresis Idotaccent Igrave Imacron Iogonek Itilde J Jacute K Kcommaaccent L Lacute Lcaron Lcommaaccent Lslash M N Nacute Ncaron Ncommaaccent Ntilde O Oacute Ocircumflex Odieresis Ograve Ohungarumlaut Omacron Oslash Otilde OE P Thorn Q R Racute Rcaron Rcommaaccent S Sacute Scaron Scedilla Scommaaccent Germandbls T Tcaron Tcedilla Tcommaaccent U Uacute Ucircumflex Udieresis Ugrave Uhungarumlaut Umacron Uogonek Uring Utilde V W Wacute Wcircumflex Wdieresis Wgrave X Y Yacute Ycircumflex Ydieresis Ygrave Ytilde Z Zacute Zcaron Zdotaccent Adieresis.ss01 Cdotaccent.ss01 Edieresis.ss01 Edotaccent.ss01 Gcommaaccent.ss01 Gdotaccent.ss01 Idieresis.ss01 Idotaccent.ss01 Kcommaaccent.ss01 Lcommaaccent.ss01 Ncommaaccent.ss01 Odieresis.ss01 Rcommaaccent.ss01 Scommaaccent.ss01 Tcommaaccent.ss01 Udieresis.ss01 Wdieresis.ss01 Ydieresis.ss01 Zdotaccent.ss01 K.ss03 Kcommaaccent.ss03 R.ss03 Racute.ss03 Rcaron.ss03 Rcommaaccent.ss03 G.ss10 Gbreve.ss10 Gcommaaccent.ss10 Gdotaccent.ss10 S.ss19 Sacute.ss19 Scaron.ss19 Scedilla.ss19 Scommaaccent.ss19 Kcommaaccent.ss01.ss03 Rcommaaccent.ss01.ss03 Gcommaaccent.ss01.ss10 Gdotaccent.ss01.ss10 Scommaaccent.ss01.ss19 Omega";
name = Uppercase;
},
{

glyphs = (
{
color = 4;
glyphname = A;
lastChange = "2024-04-19 08:25:41 +0000";
layers = (
{
anchors = (
{
name = bottom;
pos = (339,0);
},
{
name = ogonek;
pos = (664,0);
},
{
name = top;
pos = (339,700);
}
);
layerId = "99F9E815-CA06-496B-ADE7-93275C52C564";
shapes = (
{
closed = 1;
nodes = (
(108,0,l),
(369,700,l),
(285,700,l),
(12,0,l)
);
},
{
closed = 1;
nodes = (
(523,247,l),
(523,322,l),
(158,322,l),
(158,247,l)
);
},
{
closed = 1;
nodes = (
(664,0,l),
(393,700,l),
(309,700,l),
(570,0,l)
);
}
);
width = 676;
},
{
anchors = (
{
name = bottom;
pos = (369,0);
},
{
name = ogonek;
pos = (735,0);
},
{
name = top;
pos = (369,700);
}
);
layerId = "D82997A7-F07B-4593-BC54-5FAA415CA6DD";
shapes = (
{
closed = 1;
nodes = (
(210,0,l),
(435,700,l),
(274,700,l),
(2,0,l)
);
},
{
closed = 1;
nodes = (
(551,165,l),
(551,316,l),
(176,316,l),
(176,165,l)
);
},
{
closed = 1;
nodes = (
(735,0,l),
(464,700,l),
(304,700,l),
(531,0,l)
);
}
);
width = 737;
},
{
anchors = (
{
name = bottom;
pos = (320,0);
},
{
name = ogonek;
pos = (625,0);
},
{
name = top;
pos = (320,700);
}
);
layerId = "1D55BFB9-7388-4E46-BDEC-EEE084CDFE08";
shapes = (
{
closed = 1;
nodes = (
(42,0,l),
(331,700,l),
(307,700,l),
(16,0,l)
);
},
{
closed = 1;
nodes = (
(503,289,l),
(493,311,l),
(150,311,l),
(140,289,l)
);
},
{
closed = 1;
nodes = (
(625,0,l),
(335,700,l),
(311,700,l),
(599,0,l)
);
}
);
width = 638;
},
{
anchors = (
{
name = bottom;
pos = (292,0);
},
{
name = ogonek;
pos = (617,0);
},
{
name = top;
pos = (428,700);
}
);
layerId = m004;
shapes = (
{
closed = 1;
nodes = (
(64,0,l),
(461,700,l),
(374,700,l),
(-35,0,l)
);
},
{
closed = 1;
nodes = (
(524,247,l),
(539,322,l),
(174,322,l),
(159,247,l)
);
},
{
closed = 1;
nodes = (
(617,0,l),
(482,700,l),
(401,700,l),
(526,0,l)
);
}
);
width = 676;
},
{
anchors = (
{
name = bottom;
pos = (315,0);
},
{
name = ogonek;
pos = (681,0);
},
{
name = top;
pos = (456,693);
}
);
layerId = m005;
shapes = (
{
closed = 1;
nodes = (
(162,0,l),
(523,700,l),
(356,700,l),
(-47,0,l)
);
},
{
closed = 1;
nodes = (
(529,165,l),
(558,316,l),
(183,316,l),
(154,165,l)
);
},
{
closed = 1;
nodes = (
(684,0,l),
(546,700,l),
(392,700,l),
(483,0,l)
);
}
);
width = 735;
},
{
anchors = (
{
name = bottom;
pos = (252,0);
},
{
name = ogonek;
pos = (557,0);
},
{
name = top;
pos = (388,700);
}
);
layerId = m006;
shapes = (
{
closed = 1;
nodes = (
(-24,0,l),
(400,700,l),
(375,700,l),
(-52,0,l)
);
},
{
closed = 1;
nodes = (
(491,289,l),
(485,311,l),
(142,311,l),
(128,289,l)
);
},
{
closed = 1;
nodes = (
(557,0,l),
(403,700,l),
(382,700,l),
(533,0,l)
);
}
);
width = 638;
}
);
unicode = 65;
},
{
glyphname = AE;
lastChange = "2024-04-19 08:23:20 +0000";
layers = (
{
anchors = (
{
name = bottom;
pos = (529,0);
},
{
name = top;
pos = (529,700);
}
);
layerId = "99F9E815-CA06-496B-ADE7-93275C52C564";
shapes = (
{
closed = 1;
nodes = (
(113,0,l),
(554,700,l),
(470,700,l),
(12,0,l)
);
},
{
closed = 1;
nodes = (
(525,207,l),
(525,282,l),
(223,282,l),
(223,207,l)
);
},
{
alignment = -1;
pos = (420,0);
ref = E;
}
);
width = 1046;
},
{
anchors = (
{
name = bottom;
pos = (357,0);
},
{
name = top;
pos = (357,700);
}
);
layerId = "D82997A7-F07B-4593-BC54-5FAA415CA6DD";
shapes = (
{
closed = 1;
nodes = (
(200,0,l),
(546,700,l),
(379,700,l),
(2,0,l)
);
},
{
closed = 1;
nodes = (
(574,147,l),
(574,298,l),
(187,298,l),
(187,147,l)
);
},
{
alignment = -1;
pos = (397,0);
ref = E;
}
);
width = 1080;
},
{
anchors = (
{
name = bottom;
pos = (486,0);
},
{
name = top;
pos = (486,700);
}
);
layerId = "1D55BFB9-7388-4E46-BDEC-EEE084CDFE08";
shapes = (
{
closed = 1;
nodes = (
(44,0,l),
(486,700,l),
(461,700,l),
(16,0,l)
);
},
{
closed = 1;
nodes = (
(482,239,l),
(482,261,l),
(190,261,l),
(190,239,l)
);
},
{
alignment = -1;
pos = (365,0);
ref = E;
}
);
width = 956;
},
{
anchors = (
{
name = bottom;
pos = (491,0);
},
{
name = top;
pos = (616,700);
}
);
layerId = m004;
shapes = (
{
closed = 1;
nodes = (
(75,0,l),
(616,700,l),
(523,700,l),
(-35,0,l)
);
},
{
closed = 1;
nodes = (
(487,207,l),
(487,282,l),
(205,282,l),
(205,207,l)
);
},
{
alignment = -1;
pos = (382,0);
ref = E;
}
);
width = 1008;
},
{
anchors = (
{
name = bottom;
pos = (400,0);
},
{
name = top;
pos = (400,700);
}
);
layerId = m005;
shapes = (
{
closed = 1;
nodes = (
(175,0,l),
(727,700,l),
(536,700,l),
(-47,0,l)
);
},
{
closed = 1;
nodes = (
(617,147,l),
(617,298,l),
(230,298,l),
(230,147,l)
);
},
{
alignment = -1;
pos = (470,0);
ref = E;
}
);
width = 1154;
},
{
anchors = (
{
name = bottom;
pos = (442,0);
},
{
name = top;
pos = (442,700);
}
);
layerId = m006;
shapes = (
{
closed = 1;
nodes = (
(-68,0,l),
(510,700,l),
(483,700,l),
(-98,0,l)
);
},
{
closed = 1;
nodes = (
(416,239,l),
(421,261,l),
(129,261,l),
(124,239,l)
);
},
{
alignment = -1;
pos = (321,0);
ref = E;
}
);
width = 822;
}
);
metricLeft = A;
metricRight = E;
unicode = 198;
},
{
color = 3;
glyphname = B;
kernLeft = B;
kernRight = B;
lastChange = "2024-04-19 08:25:41 +0000";
layers = (
{
anchors = (
{
name = bottom;
pos = (337,0);
},
{
name = center;
pos = (337,325);
},
{
name = top;
pos = (337,650);
}
);
layerId = "99F9E815-CA06-496B-ADE7-93275C52C564";
name = Regular;
shapes = (
{
closed = 1;
nodes = (
(396,0,ls),
(528,0,o),
(615,85,o),
(615,214,cs),
(615,314,o),
(562,388,o),
(445,411,c),
(445,391,l),
(525,407,o),
(576,467,o),
(576,545,cs),
(576,640,o),
(497,700,o),
(373,700,cs),
(97,700,l),
(97,0,l)
);
},
{
closed = 1;
nodes = (
(185,361,l),
(376,361,ls),
(469,361,o),
(522,308,o),
(522,216,cs),
(522,123,o),
(469,74,o),
(376,74,cs),
(185,74,l)
);
},
{
closed = 1;
nodes = (
(185,627,l),
(376,627,ls),
(447,627,o),
(484,594,o),
(484,533,cs),
(484,471,o),
(447,435,o),
(376,435,cs),
(185,435,l)
);
}
);
width = 672;
},
{
anchors = (
{
name = bottom;
pos = (364,0);
},
{
name = center;
pos = (364,325);
},
{
name = top;
pos = (364,649);
}
);
layerId = "D82997A7-F07B-4593-BC54-5FAA415CA6DD";
shapes = (
{
closed = 1;
nodes = (
(465,0,ls),
(602,0,o),
(690,94,o),
(690,214,cs),
(690,325,o),
(615,402,o),
(493,401,c),
(493,376,l),
(598,390,o),
(652,464,o),
(652,544,cs),
(652,639,o),
(572,700,o),
(444,700,cs),
(69,700,l),
(69,0,l)
);
},
{
closed = 1;
nodes = (
(254,310,l),
(424,310,ls),
(470,310,o),
(499,278,o),
(499,227,cs),
(499,174,o),
(470,141,o),
(424,141,cs),
(254,141,l)
);
},
{
closed = 1;
nodes = (
(254,560,l),
(408,560,ls),
(450,560,o),
(472,540,o),
(472,503,cs),
(472,468,o),
(450,448,o),
(411,448,cs),
(254,448,l)
);
}
);
width = 727;
},
{
anchors = (
{
name = bottom;
pos = (326,0);
},
{
name = center;
pos = (326,350);
},
{
name = top;
pos = (326,700);
}
);
layerId = "1D55BFB9-7388-4E46-BDEC-EEE084CDFE08";
name = Hairline;
shapes = (
{
closed = 1;
nodes = (
(386,0,ls),
(509,0,o),
(590,90,o),
(590,207,cs),
(590,326,o),
(503,400,o),
(387,406,c),
(391,397,l),
(488,404,o),
(557,470,o),
(557,554,cs),
(557,640,o),
(484,700,o),
(384,700,cs),
(106,700,l),
(106,0,l)
);
},
{
closed = 1;
nodes = (
(130,389,l),
(353,389,ls),
(481,389,o),
(565,323,o),
(565,208,cs),
(565,100,o),
(493,22,o),
(373,22,cs),
(130,22,l)
);
},
{
closed = 1;
nodes = (
(130,678,l),
(378,678,ls),
(471,678,o),
(532,628,o),
(532,553,cs),
(532,467,o),
(454,411,o),
(348,411,cs),
(130,411,l)
);
}
);
width = 650;
},
{
anchors = (
{
name = bottom;
pos = (330,0);
},
{
name = center;
pos = (393,325);
},
{
name = top;
pos = (456,650);
}
);
associatedMasterId = m004;
layerId = "EB0B47C8-95B8-4E31-92C5-2E56FFCCD87F";
name = "Mar 19, 24 at 12:18";
shapes = (
{
closed = 1;
nodes = (
(262,0,ls),
(421,0,o),
(524,78,o),
(524,232,cs),
(524,310,o),
(487,375,o),
(396,403,c),
(393,383,l),
(509,396,o),
(547,475,o),
(547,546,cs),
(547,628,o),
(484,700,o),
(373,700,cs),
(102,700,l),
(-32,0,l)
);
},
{
closed = 1;
nodes = (
(126,361,l),
(315,361,ls),
(394,361,o),
(434,307,o),
(434,236,cs),
(434,128,o),
(380,76,o),
(259,76,cs),
(71,76,l)
);
},
{
closed = 1;
nodes = (
(179,626,l),
(367,626,ls),
(427,626,o),
(459,590,o),
(459,541,cs),
(459,469,o),
(415,438,o),
(331,438,cs),
(142,438,l)
);
}
);
width = 658;
},
{
anchors = (
{
name = bottom;
pos = (296.127,-5.194);
},
{
name = center;
pos = (390.16,312.255);
},
{
name = top;
pos = (484.192,629.704);
}
);
associatedMasterId = m004;
layerId = "938E125B-51F5-41EF-8596-FCFBC1AD5895";
name = "Italic Slanted and Rotated";
shapes = (
{
closed = 1;
nodes = (
(331,-9,ls),
(341,-10,o),
(350,-10,o),
(360,-10,cs),
(495,-10,o),
(595,89,o),
(595,225,cs),
(595,310,o),
(549,364,o),
(458,392,c),
(455,372,l),
(547,381,o),
(618,450,o),
(618,540,cs),
(618,620,o),
(553,674,o),
(442,684,cs),
(167,710,l),
(33,20,l)
);
},
{
closed = 1;
nodes = (
(190,368,l),
(380,349,ls),
(457,341,o),
(501,304,o),
(501,227,cs),
(501,126,o),
(439,65,o),
(347,65,cs),
(340,65,o),
(333,65,o),
(325,66,cs),
(135,85,l)
);
},
{
closed = 1;
nodes = (
(241,630,l),
(431,612,ls),
(491,606,o),
(523,581,o),
(523,530,cs),
(523,460,o),
(476,421,o),
(411,421,cs),
(406,421,o),
(400,421,o),
(394,422,cs),
(204,441,l)
);
}
);
width = 658;
},
{
anchors = (
{
name = bottom;
pos = (330,0);
},
{
name = center;
pos = (393,325);
},
{
name = top;
pos = (456,650);
}
);
associatedMasterId = m004;
layerId = "BFFC3360-8063-4A3D-ABA6-7E06445C5B50";
name = "Mar 19, 24 at 12:32";
shapes = (
{
closed = 1;
nodes = (
(389,0,ls),
(521,0,o),
(608,85,o),
(608,214,cs),
(608,314,o),
(555,388,o),
(438,411,c),
(438,391,l),
(518,407,o),
(569,467,o),
(569,545,cs),
(569,640,o),
(490,700,o),
(366,700,cs),
(90,700,l),
(90,0,l)
);
},
{
closed = 1;
nodes = (
(178,361,l),
(369,361,ls),
(462,361,o),
(515,308,o),
(515,216,cs),
(515,123,o),
(462,74,o),
(369,74,cs),
(178,74,l)
);
},
{
closed = 1;
nodes = (
(178,627,l),
(369,627,ls),
(440,627,o),
(477,594,o),
(477,533,cs),
(477,471,o),
(440,435,o),
(369,435,cs),
(178,435,l)
);
}
);
width = 658;
},
{
anchors = (
{
name = bottom;
pos = (350,0);
},
{
name = center;
pos = (413,325);
},
{
name = top;
pos = (476,650);
}
);
layerId = m004;
name = Italic;
shapes = (
{
closed = 1;
nodes = (
(331,0,ls),
(513,0,o),
(616,98,o),
(616,231,cs),
(616,322,o),
(568,379,o),
(479,401,c),
(475,381,l),
(589,401,o),
(639,482,o),
(639,553,cs),
(639,626,o),
(586,700,o),
(462,700,cs),
(186,700,l),
(52,0,l)
);
},
{
closed = 1;
nodes = (
(209,361,l),
(400,361,ls),
(476,361,o),
(522,314,o),
(522,237,cs),
(522,159,o),
(476,74,o),
(345,74,cs),
(154,74,l)
);
},
{
closed = 1;
nodes = (
(260,627,l),
(451,627,ls),
(511,627,o),
(544,598,o),
(544,544,cs),
(544,478,o),
(495,435,o),
(415,435,cs),
(224,435,l)
);
}
);
width = 680;
},
{
anchors = (
{
name = bottom;
pos = (364,0);
},
{
name = center;
pos = (364,325);
},
{
name = top;
pos = (364,649);
}
);
associatedMasterId = m005;
background = {
anchors = (
{
name = bottom;
pos = (364,0);
},
{
name = center;
pos = (364,325);
},
{
name = top;
pos = (364,649);
}
);
shapes = (
{
closed = 1;
nodes = (
(416,0,ls),
(553,0,o),
(659,94,o),
(682,214,cs),
(685,229,o),
(686,243,o),
(686,256,cs),
(686,344,o),
(627,402,o),
(521,401,c),
(516,376,l),
(624,390,o),
(692,464,o),
(707,544,cs),
(709,554,o),
(710,564,o),
(710,574,cs),
(710,652,o),
(643,700,o),
(529,700,cs),
(154,700,l),
(20,0,l)
);
},
{
closed = 1;
nodes = (
(265,310,l),
(435,310,ls),
(474,310,o),
(496,287,o),
(496,248,cs),
(496,242,o),
(495,235,o),
(494,227,cs),
(483,174,o),
(448,141,o),
(402,141,cs),
(232,141,l)
);
},
{
closed = 1;
nodes = (
(313,560,l),
(467,560,ls),
(503,560,o),
(521,545,o),
(521,518,cs),
(521,513,o),
(521,508,o),
(520,503,cs),
(513,468,o),
(487,448,o),
(448,448,cs),
(291,448,l)
);
}
);
};
layerId = "9665342D-2557-4287-971C-8BF915BEED07";
name = "Black Italic Slanted";
shapes = (
{
closed = 1;
nodes = (
(416,0,ls),
(603,0,o),
(686,127,o),
(686,233,cs),
(686,328,o),
(619,404,o),
(521,401,c),
(516,376,l),
(664,394,o),
(710,482,o),
(710,548,cs),
(710,617,o),
(660,700,o),
(529,700,cs),
(154,700,l),
(20,0,l)
);
},
{
closed = 1;
nodes = (
(265,310,l),
(428,310,ls),
(477,310,o),
(496,266,o),
(496,235,cs),
(496,193,o),
(463,141,o),
(395,141,cs),
(232,141,l)
);
},
{
closed = 1;
nodes = (
(313,560,l),
(466,560,ls),
(503,560,o),
(522,542,o),
(522,513,cs),
(522,486,o),
(506,448,o),
(444,448,cs),
(291,448,l)
);
}
);
width = 727;
},
{
anchors = (
{
name = bottom;
pos = (364,0);
},
{
name = center;
pos = (364,325);
},
{
name = top;
pos = (364,649);
}
);
associatedMasterId = m005;
layerId = "9C84DCFD-2269-4C2C-B01D-A101C5A5CCBC";
name = "Mar 29, 24 at 17:46";
shapes = (
{
closed = 1;
nodes = (
(465,0,ls),
(602,0,o),
(690,94,o),
(690,214,cs),
(690,325,o),
(615,402,o),
(493,401,c),
(493,376,l),
(598,390,o),
(652,464,o),
(652,544,cs),
(652,639,o),
(572,700,o),
(444,700,cs),
(69,700,l),
(69,0,l)
);
},
{
closed = 1;
nodes = (
(254,310,l),
(424,310,ls),
(470,310,o),
(499,278,o),
(499,227,cs),
(499,174,o),
(470,141,o),
(424,141,cs),
(254,141,l)
);
},
{
closed = 1;
nodes = (
(254,560,l),
(408,560,ls),
(450,560,o),
(472,540,o),
(472,503,cs),
(472,468,o),
(450,448,o),
(411,448,cs),
(254,448,l)
);
}
);
width = 727;
},
{
anchors = (
{
name = bottom;
pos = (319,0);
},
{
name = center;
pos = (171,175);
},
{
name = top;
pos = (455,700);
}
);
layerId = m005;
name = "Black Italic";
shapes = (
{
closed = 1;
nodes = (
(430,0,ls),
(591,0,o),
(685,110,o),
(685,226,cs),
(685,321,o),
(622,390,o),
(521,393,c),
(516,368,l),
(650,379,o),
(710,467,o),
(710,544,cs),
(710,619,o),
(652,700,o),
(530,700,cs),
(156,700,l),
(21,0,l)
);
},
{
closed = 1;
nodes = (
(266,309,l),
(427,309,ls),
(464,309,o),
(495,280,o),
(495,234,cs),
(495,182,o),
(459,139,o),
(394,139,cs),
(233,139,l)
);
},
{
closed = 1;
nodes = (
(314,559,l),
(467,559,ls),
(500,559,o),
(522,541,o),
(522,512,cs),
(522,469,o),
(492,447,o),
(446,447,cs),
(292,447,l)
);
}
);
visible = 1;
width = 731;
},
{
anchors = (
{
name = bottom;
pos = (326,0);
},
{
name = center;
pos = (326,350);
},
{
name = top;
pos = (326,700);
}
);
background = {
anchors = (
{
name = bottom;
pos = (326,0);
},
{
name = center;
pos = (326,350);
},
{
name = top;
pos = (326,700);
}
);
shapes = (
{
closed = 1;
nodes = (
(318,0,ls),
(441,0,o),
(539,90,o),
(562,207,cs),
(565,222,o),
(566,236,o),
(566,250,cs),
(566,343,o),
(499,401,o),
(398,406,c),
(400,397,l),
(498,404,o),
(580,470,o),
(597,554,cs),
(599,563,o),
(600,572,o),
(600,581,cs),
(600,652,o),
(541,700,o),
(452,700,cs),
(174,700,l),
(38,0,l)
);
},
{
closed = 1;
nodes = (
(138,389,l),
(361,389,ls),
(473,389,o),
(541,339,o),
(541,249,cs),
(541,236,o),
(540,222,o),
(537,208,cs),
(516,100,o),
(429,22,o),
(309,22,cs),
(66,22,l)
);
},
{
closed = 1;
nodes = (
(194,678,l),
(442,678,ls),
(524,678,o),
(574,639,o),
(574,578,cs),
(574,570,o),
(573,562,o),
(571,553,cs),
(555,467,o),
(466,411,o),
(360,411,cs),
(142,411,l)
);
}
);
};
layerId = m006;
name = Hairline;
shapes = (
{
closed = 1;
nodes = (
(324,0,ls),
(476,0,o),
(585,93,o),
(585,229,cs),
(585,325,o),
(504,400,o),
(409,403,c),
(409,394,l),
(559,405,o),
(610,504,o),
(610,569,cs),
(610,639,o),
(552,700,o),
(463,700,cs),
(185,700,l),
(49,0,l)
);
},
{
closed = 1;
nodes = (
(149,389,l),
(372,389,ls),
(484,389,o),
(560,319,o),
(560,228,cs),
(560,146,o),
(498,22,o),
(320,22,cs),
(77,22,l)
);
},
{
closed = 1;
nodes = (
(205,678,l),
(453,678,ls),
(534,678,o),
(585,634,o),
(585,563,cs),
(585,489,o),
(516,411,o),
(371,411,cs),
(153,411,l)
);
}
);
width = 650;
},
{
anchors = (
{
name = bottom;
pos = (326,0);
},
{
name = center;
pos = (326,350);
},
{
name = top;
pos = (326,700);
}
);
associatedMasterId = m006;
layerId = "5BBBBA0B-FBEB-4219-8577-63FBF80892A1";
name = "Hairline Italic Slanted";
shapes = (
{
closed = 1;
nodes = (
(340,0,ls),
(487,0,o),
(588,120,o),
(588,233,cs),
(588,338,o),
(520,401,o),
(419,406,c),
(421,397,l),
(531,404,o),
(620,479,o),
(620,566,cs),
(620,647,o),
(561,700,o),
(472,700,cs),
(194,700,l),
(60,0,l)
);
},
{
closed = 1;
nodes = (
(159,389,l),
(382,389,ls),
(494,389,o),
(563,333,o),
(563,232,cs),
(563,120,o),
(467,22,o),
(331,22,cs),
(88,22,l)
);
},
{
closed = 1;
nodes = (
(214,678,l),
(462,678,ls),
(544,678,o),
(594,634,o),
(595,562,cs),
(595,474,o),
(493,411,o),
(381,411,cs),
(163,411,l)
);
}
);
width = 650;
},
{
anchors = (
{
name = bottom;
pos = (292.067,-6.44);
},
{
name = center;
pos = (325.613,341.949);
},
{
name = top;
pos = (359.159,690.338);
}
);
associatedMasterId = m006;
layerId = "541CF9C4-974C-46FB-A58D-D002221D0B9F";
name = "Hairline Italic Slanted and Rotated";
shapes = (
{
closed = 1;
nodes = (
(329,0,ls),
(453,0,o),
(576,75,o),
(576,216,cs),
(576,311,o),
(508,388,o),
(408,403,c),
(410,394,l),
(518,391,o),
(608,450,o),
(608,547,cs),
(608,619,o),
(553,694,o),
(461,694,cs),
(184,694,l),
(50,0,l)
);
},
{
closed = 1;
nodes = (
(149,387,l),
(371,387,ls),
(484,387,o),
(551,308,o),
(551,217,cs),
(551,89,o),
(449,22,o),
(320,22,cs),
(78,22,l)
);
},
{
closed = 1;
nodes = (
(204,671,l),
(451,671,ls),
(535,671,o),
(582,607,o),
(582,545,cs),
(582,434,o),
(467,409,o),
(370,409,cs),
(153,409,l)
);
}
);
visible = 1;
width = 650;
}
);
unicode = 66;
},
{
color = 3;
glyphname = C;
kernLeft = C;
kernRight = C;
lastChange = "2024-04-19 08:25:41 +0000";
layers = (
{
anchors = (
{
name = bottom;
pos = (365,0);
},
{
name = top;
pos = (371,700);
}
);
layerId = "99F9E815-CA06-496B-ADE7-93275C52C564";
shapes = (
{
closed = 1;
nodes = (
(551,-12,o),
(668,95,o),
(698,253,c),
(607,253,l),
(590,139,o),
(498,61,o),
(382,61,cs),
(241,61,o),
(147,179,o),
(147,351,cs),
(147,522,o),
(240,639,o),
(387,639,cs),
(489,639,o),
(568,583,o),
(592,489,c),
(686,489,l),
(655,623,o),
(534,712,o),
(386,712,cs),
(193,712,o),
(55,560,o),
(55,349,cs),
(55,136,o),
(196,-12,o),
(387,-12,cs)
);
}
);
width = 730;
},
{
anchors = (
{
name = bottom;
pos = (385,0);
},
{
name = top;
pos = (385,700);
}
);
layerId = "D82997A7-F07B-4593-BC54-5FAA415CA6DD";
shapes = (
{
closed = 1;
nodes = (
(601,-14,o),
(712,118,o),
(739,263,c),
(556,307,l),
(536,198,o),
(474,139,o),
(390,139,cs),
(292,139,o),
(229,221,o),
(229,348,cs),
(229,478,o),
(294,561,o),
(393,561,cs),
(469,561,o),
(523,513,o),
(543,427,c),
(731,467,l),
(687,615,o),
(559,714,o),
(393,714,cs),
(191,714,o),
(39,565,o),
(39,345,cs),
(39,137,o),
(174,-14,o),
(395,-14,cs)
);
}
);
width = 769;
},
{
anchors = (
{
name = bottom;
pos = (350,0);
},
{
name = top;
pos = (350,700);
}
);
layerId = "1D55BFB9-7388-4E46-BDEC-EEE084CDFE08";
shapes = (
{
closed = 1;
nodes = (
(504,-10,o),
(623,78,o),
(654,203,c),
(628,203,l),
(602,94,o),
(495,12,o),
(366,12,cs),
(199,12,o),
(83,151,o),
(83,348,cs),
(83,547,o),
(202,688,o),
(370,688,cs),
(496,688,o),
(594,611,o),
(621,517,c),
(647,517,l),
(616,625,o),
(508,710,o),
(369,710,cs),
(187,710,o),
(58,560,o),
(58,349,cs),
(58,139,o),
(185,-10,o),
(365,-10,cs)
);
}
);
width = 698;
},
{
anchors = (
{
name = bottom;
pos = (369,0);
},
{
name = top;
pos = (472,700);
}
);
background = {
anchors = (
{
name = bottom;
pos = (362,0);
},
{
name = top;
pos = (504,700);
}
);
shapes = (
{
closed = 1;
nodes = (
(359,-12,o),
(372,-13,o),
(387,-13,cs),
(539,-13,o),
(671,96,o),
(717,253,c),
(622,253,l),
(594,137,o),
(495,61,o),
(379,61,cs),
(251,61,o),
(173,154,o),
(173,290,cs),
(173,317,o),
(176,346,o),
(181,373,cs),
(211,534,o),
(315,638,o),
(452,638,cs),
(557,638,o),
(618,577,o),
(643,489,c),
(737,489,l),
(717,610,o),
(621,696,o),
(486,709,cs),
(476,710,o),
(462,711,o),
(447,711,cs),
(278,711,o),
(128,577,o),
(90,380,cs),
(84,349,o),
(82,322,o),
(82,298,cs),
(82,126,o),
(184,4,o),
(348,-11,cs)
);
}
);
};
layerId = m004;
name = Italic;
shapes = (
{
closed = 1;
nodes = (
(511,-14,o),
(659,66,o),
(705,253,c),
(614,253,l),
(584,132,o),
(485,60,o),
(372,60,cs),
(240,60,o),
(164,159,o),
(164,290,cs),
(164,439,o),
(263,641,o),
(453,641,cs),
(559,641,o),
(639,578,o),
(644,489,c),
(738,489,l),
(733,624,o),
(622,714,o),
(465,714,cs),
(216,714,o),
(72,489,o),
(72,287,cs),
(72,104,o),
(189,-14,o),
(366,-14,cs)
);
}
);
width = 735;
},
{
anchors = (
{
name = bottom;
pos = (358,0);
},
{
name = top;
pos = (500,700);
}
);
associatedMasterId = m004;
background = {
anchors = (
{
name = bottom;
pos = (358,0);
},
{
name = top;
pos = (500,700);
}
);
shapes = (
{
closed = 1;
nodes = (
(355,-12,o),
(368,-13,o),
(383,-13,cs),
(535,-13,o),
(667,96,o),
(713,253,c),
(618,253,l),
(590,137,o),
(491,61,o),
(375,61,cs),
(247,61,o),
(169,154,o),
(169,290,cs),
(169,317,o),
(172,346,o),
(177,373,cs),
(207,534,o),
(311,638,o),
(448,638,cs),
(553,638,o),
(614,577,o),
(639,489,c),
(733,489,l),
(713,610,o),
(617,696,o),
(482,709,cs),
(472,710,o),
(458,711,o),
(443,711,cs),
(274,711,o),
(124,577,o),
(86,380,cs),
(80,349,o),
(78,322,o),
(78,298,cs),
(78,126,o),
(180,4,o),
(344,-11,cs)
);
}
);
};
layerId = "89E37092-728D-4F5C-A2D3-0599D967660B";
name = "Mar 19, 24 at 15:27";
shapes = (
{
closed = 1;
nodes = (
(511,-12,o),
(637,61,o),
(683,253,c),
(592,253,l),
(563,134,o),
(474,61,o),
(362,61,cs),
(239,61,o),
(142,149,o),
(142,300,cs),
(142,438,o),
(224,639,o),
(428,639,cs),
(537,639,o),
(616,581,o),
(622,489,c),
(716,489,l),
(711,624,o),
(596,712,o),
(436,712,cs),
(179,712,o),
(50,484,o),
(50,294,cs),
(50,103,o),
(181,-12,o),
(365,-12,cs)
);
}
);
width = 716;
},
{
anchors = (
{
name = bottom;
pos = (385,0);
},
{
name = top;
pos = (521,700);
}
);
associatedMasterId = m005;
background = {
anchors = (
{
name = bottom;
pos = (385,0);
},
{
name = top;
pos = (521,700);
}
);
shapes = (
{
closed = 1;
nodes = (
(370,-14,o),
(387,-15,o),
(404,-15,cs),
(594,-15,o),
(717,117,o),
(754,260,c),
(580,309,l),
(544,199,o),
(475,139,o),
(396,139,cs),
(387,139,o),
(384,139,o),
(377,140,cs),
(297,151,o),
(251,211,o),
(251,299,cs),
(251,322,o),
(254,345,o),
(258,366,cs),
(282,491,o),
(352,560,o),
(444,560,cs),
(527,560,o),
(565,505,o),
(581,416,c),
(772,452,l),
(746,597,o),
(644,691,o),
(490,711,cs),
(475,713,o),
(460,714,o),
(444,714,cs),
(264,714,o),
(109,586,o),
(71,386,cs),
(65,354,o),
(63,328,o),
(63,304,cs),
(63,134,o),
(166,9,o),
(352,-12,cs)
);
}
);
};
layerId = "BD82D764-AB4C-4288-9C37-FDD0EE2945A6";
name = "Mar 29, 24 at 17:48";
shapes = (
{
closed = 1;
nodes = (
(269,-15,o),
(407,-15,cs),
(594,-15,o),
(718,119,o),
(754,260,c),
(580,309,l),
(545,201,o),
(475,139,o),
(398,139,cs),
(337,139,o),
(251,177,o),
(251,294,cs),
(251,365,o),
(283,560,o),
(443,560,cs),
(528,560,o),
(565,505,o),
(581,416,c),
(772,452,l),
(731,676,o),
(536,714,o),
(436,714,cs),
(180,714,o),
(63,468,o),
(63,292,cs),
(63,58,o)
);
}
);
width = 769;
},
{
anchors = (
{
name = bottom;
pos = (349,0);
},
{
name = top;
pos = (417,703);
}
);
associatedMasterId = m005;
background = {
anchors = (
{
name = bottom;
pos = (349.951,-1.679);
},
{
name = top;
pos = (417.043,695.099);
}
);
shapes = (
{
closed = 1;
nodes = (
(347,-16,o),
(362,-16,o),
(377,-16,cs),
(555,-16,o),
(676,94,o),
(728,226,c),
(555,287,l),
(517,191,o),
(453,136,o),
(374,136,cs),
(289,136,o),
(231,195,o),
(231,296,cs),
(231,305,o),
(231,314,o),
(232,324,cs),
(233,335,o),
(235,350,o),
(237,359,cs),
(259,475,o),
(331,554,o),
(425,554,cs),
(506,554,o),
(562,503,o),
(565,407,c),
(760,428,l),
(745,575,o),
(639,688,o),
(470,704,cs),
(457,705,o),
(444,706,o),
(431,706,cs),
(247,706,o),
(89,579,o),
(48,377,cs),
(45,362,o),
(43,348,o),
(41,331,cs),
(40,317,o),
(39,304,o),
(39,291,cs),
(39,128,o),
(142,5,o),
(332,-14,cs)
);
}
);
};
layerId = "5314333B-C5EC-4792-827C-A15767357D0D";
name = "Black Italic Slanted and Rotated";
shapes = (
{
closed = 1;
nodes = (
(556,-14,o),
(676,98,o),
(728,230,c),
(554,291,l),
(516,194,o),
(452,138,o),
(373,138,cs),
(289,138,o),
(231,198,o),
(231,300,cs),
(231,372,o),
(270,562,o),
(425,562,cs),
(506,562,o),
(562,511,o),
(565,414,c),
(760,435,l),
(737,664,o),
(531,714,o),
(431,714,cs),
(98,714,o),
(39,373,o),
(39,295,cs),
(39,39,o),
(264,-14,o),
(376,-14,cs)
);
}
);
width = 769;
},
{
anchors = (
{
name = bottom;
pos = (385,0);
},
{
name = top;
pos = (385,700);
}
);
associatedMasterId = m005;
layerId = "C0095560-96C3-49EC-A728-D47EAE672FC0";
name = "Mar 29, 24 at 17:56";
shapes = (
{
closed = 1;
nodes = (
(601,-14,o),
(712,118,o),
(739,263,c),
(556,307,l),
(536,198,o),
(474,139,o),
(390,139,cs),
(292,139,o),
(229,221,o),
(229,348,cs),
(229,478,o),
(294,561,o),
(393,561,cs),
(469,561,o),
(523,513,o),
(543,427,c),
(731,467,l),
(687,615,o),
(559,714,o),
(393,714,cs),
(191,714,o),
(39,565,o),
(39,345,cs),
(39,137,o),
(174,-14,o),
(395,-14,cs)
);
}
);
width = 769;
},
{
anchors = (
{
name = bottom;
pos = (339,0);
},
{
name = top;
pos = (469,700);
}
);
background = {
anchors = (
{
name = bottom;
pos = (388,0);
},
{
name = top;
pos = (388,700);
}
);
shapes = (
{
closed = 1;
nodes = (
(552,-14,o),
(689,118,o),
(743,263,c),
(569,307,l),
(528,198,o),
(455,139,o),
(371,139,cs),
(290,139,o),
(243,195,o),
(243,285,cs),
(243,305,o),
(246,326,o),
(250,348,cs),
(275,478,o),
(356,561,o),
(455,561,cs),
(531,561,o),
(575,513,o),
(579,427,c),
(775,467,l),
(759,615,o),
(650,714,o),
(484,714,cs),
(282,714,o),
(101,565,o),
(59,345,cs),
(53,316,o),
(51,288,o),
(51,262,cs),
(51,98,o),
(156,-14,o),
(346,-14,cs)
);
}
);
};
layerId = m005;
name = "Black Italic";
shapes = (
{
closed = 1;
nodes = (
(569,-14,o),
(691,105,o),
(748,253,c),
(569,297,l),
(529,195,o),
(461,139,o),
(378,139,cs),
(276,139,o),
(243,222,o),
(243,293,cs),
(243,383,o),
(296,561,o),
(452,561,cs),
(535,561,o),
(581,510,o),
(590,417,c),
(775,457,l),
(744,614,o),
(650,714,o),
(471,714,cs),
(184,714,o),
(51,458,o),
(51,279,cs),
(51,142,o),
(132,-14,o),
(365,-14,cs)
);
}
);
width = 778;
},
{
anchors = (
{
name = bottom;
pos = (314,-3);
},
{
name = top;
pos = (383,700);
}
);
associatedMasterId = m006;
background = {
anchors = (
{
name = bottom;
pos = (315.256,-3.327);
},
{
name = top;
pos = (382.348,693.451);
}
);
shapes = (
{
closed = 1;
nodes = (
(316,-13,o),
(327,-14,o),
(337,-14,cs),
(464,-14,o),
(583,59,o),
(633.816,169.938,c),
(607.936,172.43,l),
(565,75,o),
(457,8,o),
(340,8,cs),
(182,8,o),
(85,121,o),
(85,282,cs),
(85,295,o),
(85,309,o),
(86.593,322.382,cs),
(88.016,337.158,o),
(90.209,352.267,o),
(93.197,367.665,cs),
(129,553,o),
(261,677,o),
(416,677,cs),
(557,677,o),
(652,585,o),
(661.067,482.767,c),
(686.947,480.275,l),
(676.76,589.755,o),
(585.526,683.933,o),
(447.166,697.256,cs),
(437,698,o),
(426,699,o),
(416,699,cs),
(248,699,o),
(107,567,o),
(68.504,371.047,cs),
(65.395,355.029,o),
(63.113,339.299,o),
(61.63,323.899,cs),
(60,309,o),
(60,295,o),
(60,281,cs),
(60,119,o),
(153,2,o),
(305.379,-12.422,cs)
);
}
);
};
layerId = "8938383A-55FF-4567-8C25-9C1CF7813823";
name = "Hairline Italic Slanted and Rotated";
shapes = (
{
closed = 1;
nodes = (
(463,-10,o),
(582,64,o),
(633,176,c),
(607,178,l),
(564,80,o),
(456,12,o),
(339,12,cs),
(182,12,o),
(85,126,o),
(85,288,cs),
(85,462,o),
(198,688,o),
(417,688,cs),
(560,688,o),
(652,593,o),
(661,492,c),
(687,489,l),
(672,662,o),
(496,710,o),
(417,710,cs),
(111,710,o),
(60,355,o),
(60,287,cs),
(60,43,o),
(243,-10,o),
(336,-10,cs)
);
}
);
visible = 1;
width = 698;
},
{
anchors = (
{
name = bottom;
pos = (350,0);
},
{
name = top;
pos = (350,700);
}
);
associatedMasterId = m006;
layerId = "60730597-A1B5-4AF9-9C28-1342F491174A";
name = "Apr 18, 24 at 11:26";
shapes = (
{
closed = 1;
nodes = (
(504,-10,o),
(623,78,o),
(654,203,c),
(628,203,l),
(602,94,o),
(495,12,o),
(366,12,cs),
(199,12,o),
(83,151,o),
(83,348,cs),
(83,547,o),
(202,688,o),
(370,688,cs),
(496,688,o),
(594,611,o),
(621,517,c),
(647,517,l),
(616,625,o),
(508,710,o),
(369,710,cs),
(187,710,o),
(58,560,o),
(58,349,cs),
(58,139,o),
(185,-10,o),
(365,-10,cs)
);
}
);
width = 698;
},
{
anchors = (
{
name = bottom;
pos = (343,0);
},
{
name = top;
pos = (445,700);
}
);
background = {
anchors = (
{
name = bottom;
pos = (350,0);
},
{
name = top;
pos = (350,700);
}
);
shapes = (
{
closed = 1;
nodes = (
(456,-10,o),
(592,78,o),
(647,203,c),
(621,203,l),
(574,94,o),
(451,12,o),
(322,12,cs),
(181,12,o),
(95,111,o),
(95,261,cs),
(95,289,o),
(98,318,o),
(104,348,cs),
(142,547,o),
(288,688,o),
(456,688,cs),
(582,688,o),
(665,611,o),
(674,517,c),
(700,517,l),
(690,625,o),
(598,710,o),
(459,710,cs),
(277,710,o),
(120,560,o),
(79,349,cs),
(73,318,o),
(70,288,o),
(70,259,cs),
(70,98,o),
(164,-10,o),
(317,-10,cs)
);
}
);
};
layerId = m006;
name = "Hairline Italic";
shapes = (
{
closed = 1;
nodes = (
(473,-10,o),
(592,76,o),
(647,203,c),
(621,203,l),
(574,94,o),
(456,12,o),
(334,12,cs),
(191,12,o),
(95,123,o),
(95,274,cs),
(95,432,o),
(201,688,o),
(449,688,cs),
(581,688,o),
(665,616,o),
(674,517,c),
(700,517,l),
(688,630,o),
(596,710,o),
(451,710,cs),
(183,710,o),
(70,437,o),
(70,276,cs),
(70,140,o),
(150,-10,o),
(334,-10,cs)
);
}
);
width = 698;
}
);
unicode = 67;
},
{
color = 3;
glyphname = D;
kernLeft = B;
kernRight = D;
lastChange = "2024-04-19 08:25:41 +0000";
layers = (
{
anchors = (
{
name = bottom;
pos = (374,0);
},
{
name = center;
pos = (176,350);
},
{
name = top;
pos = (374,700);
}
);
layerId = "99F9E815-CA06-496B-ADE7-93275C52C564";
shapes = (
{
closed = 1;
nodes = (
(374,0,ls),
(570,0,o),
(692,132,o),
(692,345,cs),
(692,568,o),
(562,700,o),
(365,700,cs),
(97,700,l),
(97,0,l)
);
},
{
closed = 1;
nodes = (
(185,626,l),
(344,626,ls),
(516,626,o),
(602,520,o),
(602,349,cs),
(602,176,o),
(515,74,o),
(344,74,cs),
(185,74,l)
);
}
);
width = 769;
},
{
anchors = (
{
name = bottom;
pos = (384,0);
},
{
name = center;
pos = (161,350);
},
{
name = top;
pos = (384,700);
}
);
layerId = "D82997A7-F07B-4593-BC54-5FAA415CA6DD";
shapes = (
{
closed = 1;
nodes = (
(369,0,ls),
(583,0,o),
(718,135,o),
(718,349,cs),
(718,565,o),
(583,700,o),
(368,700,cs),
(70,700,l),
(70,0,l)
);
},
{
closed = 1;
nodes = (
(255,550,l),
(345,550,ls),
(468,550,o),
(528,484,o),
(528,348,cs),
(528,215,o),
(468,150,o),
(345,150,cs),
(255,150,l)
);
}
);
width = 766;
},
{
anchors = (
{
name = bottom;
pos = (357,0);
},
{
name = center;
pos = (138,350);
},
{
name = top;
pos = (357,700);
}
);
layerId = "1D55BFB9-7388-4E46-BDEC-EEE084CDFE08";
shapes = (
{
closed = 1;
nodes = (
(322,0,ls),
(527,0,o),
(654,134,o),
(654,347,cs),
(654,564,o),
(527,700,o),
(322,700,cs),
(106,700,l),
(106,0,l)
);
},
{
closed = 1;
nodes = (
(130,678,l),
(307,678,ls),
(514,678,o),
(629,560,o),
(629,347,cs),
(629,138,o),
(514,22,o),
(307,22,cs),
(130,22,l)
);
}
);
width = 713;
},
{
anchors = (
{
name = bottom;
pos = (312,0);
},
{
name = center;
pos = (197,350);
},
{
name = top;
pos = (448,700);
}
);
layerId = m004;
name = Italic;
shapes = (
{
closed = 1;
nodes = (
(327,0,ls),
(584,0,o),
(718,197,o),
(718,399,cs),
(718,574,o),
(618,700,o),
(452,700,cs),
(186,700,l),
(52,0,l)
);
},
{
closed = 1;
nodes = (
(261,626,l),
(418,626,ls),
(560,626,o),
(627,530,o),
(627,396,cs),
(627,241,o),
(537,74,o),
(312,74,cs),
(156,74,l)
);
}
);
width = 773;
},
{
anchors = (
{
name = bottom;
pos = (384,0);
},
{
name = center;
pos = (161,350);
},
{
name = top;
pos = (384,700);
}
);
associatedMasterId = m005;
layerId = "5A3982BD-55F5-4203-8FCB-14E628CF8B21";
name = "Mar 31, 24 at 09:44";
shapes = (
{
closed = 1;
nodes = (
(369,0,ls),
(583,0,o),
(718,135,o),
(718,349,cs),
(718,565,o),
(583,700,o),
(368,700,cs),
(70,700,l),
(70,0,l)
);
},
{
closed = 1;
nodes = (
(255,550,l),
(345,550,ls),
(468,550,o),
(528,484,o),
(528,348,cs),
(528,215,o),
(468,150,o),
(345,150,cs),
(255,150,l)
);
}
);
width = 766;
},
{
anchors = (
{
name = bottom;
pos = (322,0);
},
{
name = center;
pos = (198,350);
},
{
name = top;
pos = (450,700);
}
);
layerId = m005;
name = "Black Italic";
shapes = (
{
closed = 1;
nodes = (
(317,0,ls),
(585,0,o),
(737,176,o),
(737,403,cs),
(737,571,o),
(626,700,o),
(450,700,cs),
(157,700,l),
(23,0,l)
);
},
{
closed = 1;
nodes = (
(310,549,l),
(399,549,ls),
(499,549,o),
(548,494,o),
(548,398,cs),
(548,259,o),
(484,151,o),
(322,151,cs),
(234,151,l)
);
}
);
width = 765;
},
{
anchors = (
{
name = bottom;
pos = (276,0);
},
{
name = center;
pos = (125,350);
},
{
name = top;
pos = (412,700);
}
);
background = {
anchors = (
{
name = bottom;
pos = (276,0);
},
{
name = center;
pos = (125,350);
},
{
name = top;
pos = (412,700);
}
);
shapes = (
{
closed = 1;
nodes = (
(209,7,ls),
(223,6,o),
(237,5,o),
(250,5,cs),
(431,5,o),
(564,124,o),
(602,321,cs),
(608,354,o),
(612,385,o),
(612,415,cs),
(612,579,o),
(514,687,o),
(343,704,cs),
(130,725,l),
(-4,28,l)
);
},
{
closed = 1;
nodes = (
(149,700,l),
(324,683,ls),
(496,667,o),
(588,573,o),
(588,417,cs),
(588,388,o),
(584,356,o),
(578,323,cs),
(541,132,o),
(423,29,o),
(246,29,cs),
(231,29,o),
(215,29,o),
(198,31,cs),
(24,47,l)
);
}
);
};
layerId = m006;
shapes = (
{
closed = 1;
nodes = (
(209,0,ls),
(504,0,o),
(613,234,o),
(613,423,cs),
(613,585,o),
(507,700,o),
(343,700,cs),
(128,700,l),
(-6,0,l)
);
},
{
closed = 1;
nodes = (
(149,678,l),
(324,678,ls),
(490,678,o),
(588,580,o),
(588,419,cs),
(588,198,o),
(452,22,o),
(198,22,cs),
(22,22,l)
);
}
);
width = 632;
}
);
metricLeft = H;
unicode = 68;
},
{
color = 4;
glyphname = E;
kernLeft = B;
kernRight = AE;
lastChange = "2024-04-19 09:02:53 +0000";
layers = (
{
anchors = (
{
name = bottom;
pos = (314,0);
},
{
name = ogonek;
pos = (567,0);
},
{
name = top;
pos = (314,700);
},
{
name = topleft;
pos = (28,700);
}
);
layerId = "99F9E815-CA06-496B-ADE7-93275C52C564";
shapes = (
{
closed = 1;
nodes = (
(185,0,l),
(185,700,l),
(97,700,l),
(97,0,l)
);
},
{
closed = 1;
nodes = (
(567,0,l),
(567,74,l),
(158,74,l),
(158,0,l)
);
},
{
closed = 1;
nodes = (
(499,347,l),
(499,421,l),
(158,421,l),
(158,347,l)
);
},
{
closed = 1;
nodes = (
(567,626,l),
(567,700,l),
(158,700,l),
(158,626,l)
);
}
);
width = 626;
},
{
anchors = (
{
name = bottom;
pos = (340,0);
},
{
name = ogonek;
pos = (639,0);
},
{
name = top;
pos = (340,700);
},
{
name = topleft;
pos = (19,700);
}
);
layerId = "D82997A7-F07B-4593-BC54-5FAA415CA6DD";
shapes = (
{
closed = 1;
nodes = (
(255,0,l),
(255,700,l),
(70,700,l),
(70,0,l)
);
},
{
closed = 1;
nodes = (
(639,0,l),
(639,153,l),
(194,153,l),
(194,0,l)
);
},
{
closed = 1;
nodes = (
(587,297,l),
(587,450,l),
(194,450,l),
(194,297,l)
);
},
{
closed = 1;
nodes = (
(623,547,l),
(623,700,l),
(194,700,l),
(194,547,l)
);
}
);
width = 683;
},
{
anchors = (
{
name = bottom;
pos = (296,0);
},
{
name = ogonek;
pos = (532,10);
},
{
name = top;
pos = (316,700);
},
{
name = topleft;
pos = (20,700);
}
);
layerId = "1D55BFB9-7388-4E46-BDEC-EEE084CDFE08";
shapes = (
{
closed = 1;
nodes = (
(130,0,l),
(130,700,l),
(106,700,l),
(106,0,l)
);
},
{
closed = 1;
nodes = (
(539,0,l),
(539,22,l),
(123,22,l),
(123,0,l)
);
},
{
closed = 1;
nodes = (
(491,376,l),
(491,398,l),
(123,398,l),
(123,376,l)
);
},
{
closed = 1;
nodes = (
(539,678,l),
(539,700,l),
(123,700,l),
(123,678,l)
);
}
);
width = 591;
},
{
anchors = (
{
name = bottom;
pos = (287,0);
},
{
name = ogonek;
pos = (520,0);
},
{
name = top;
pos = (423,700);
},
{
name = topleft;
pos = (137,700);
}
);
layerId = m004;
shapes = (
{
closed = 1;
nodes = (
(140,0,l),
(276,700,l),
(186,700,l),
(50,0,l)
);
},
{
closed = 1;
nodes = (
(520,0,l),
(534,74,l),
(125,74,l),
(111,0,l)
);
},
{
closed = 1;
nodes = (
(519,347,l),
(534,421,l),
(193,421,l),
(178,347,l)
);
},
{
closed = 1;
nodes = (
(642,626,l),
(656,700,l),
(247,700,l),
(233,626,l)
);
}
);
width = 626;
},
{
anchors = (
{
name = bottom;
pos = (291,0);
},
{
name = ogonek;
pos = (590,0);
},
{
name = top;
pos = (427,700);
},
{
name = topleft;
pos = (106,700);
}
);
layerId = m005;
shapes = (
{
closed = 1;
nodes = (
(209,0,l),
(345,700,l),
(157,700,l),
(21,0,l)
);
},
{
closed = 1;
nodes = (
(590,0,l),
(620,153,l),
(175,153,l),
(145,0,l)
);
},
{
closed = 1;
nodes = (
(596,297,l),
(625,450,l),
(232,450,l),
(203,297,l)
);
},
{
closed = 1;
nodes = (
(680,547,l),
(710,700,l),
(281,700,l),
(251,547,l)
);
}
);
width = 684;
},
{
anchors = (
{
name = bottom;
pos = (228,0);
},
{
name = ogonek;
pos = (471,0);
},
{
name = top;
pos = (364,700);
},
{
name = topleft;
pos = (89,700);
}
);
layerId = m006;
shapes = (
{
closed = 1;
nodes = (
(62,0,l),
(198,700,l),
(174,700,l),
(38,0,l)
);
},
{
closed = 1;
nodes = (
(471,0,l),
(475,22,l),
(59,22,l),
(55,0,l)
);
},
{
closed = 1;
nodes = (
(496,376,l),
(500,398,l),
(132,398,l),
(128,376,l)
);
},
{
closed = 1;
nodes = (
(603,678,l),
(607,700,l),
(191,700,l),
(187,678,l)
);
}
);
width = 591;
}
);
unicode = 69;
},
{
glyphname = Schwa;
lastChange = "2024-04-19 08:23:20 +0000";
layers = (
{
anchors = (
{
name = bottom;
pos = (380,13);
},
{
name = ogonek;
pos = (246,695);
},
{
name = top;
pos = (380,700);
}
);
layerId = "99F9E815-CA06-496B-ADE7-93275C52C564";
shapes = (
{
closed = 1;
nodes = (
(227,712,o),
(113,631,o),
(82,492,c),
(172,490,l),
(203,587,o),
(271,639,o),
(367,639,cs),
(510,639,o),
(596,526,o),
(589,330,c),
(72,330,l),
(72,323,o),
(71,316,o),
(71,298,cs),
(71,107,o),
(190,-10,o),
(367,-10,cs),
(560,-10,o),
(685,129,o),
(685,354,cs),
(685,574,o),
(562,712,o),
(366,712,c)
);
},
{
closed = 1;
nodes = (
(572,145,o),
(492,62,o),
(368,62,cs),
(250,62,o),
(171,140,o),
(168,257,c),
(584,257,l)
);
}
);
userData = {
RMXScaler = {
height = 143;
verticalShift = -308;
width = 143;
};
};
width = 760;
},
{
anchors = (
{
name = bottom;
pos = (386,8);
},
{
name = ogonek;
pos = (273,695);
},
{
name = top;
pos = (386,692);
}
);
layerId = "D82997A7-F07B-4593-BC54-5FAA415CA6DD";
shapes = (
{
closed = 1;
nodes = (
(213,711,o),
(93,622,o),
(68,475,c),
(233,455,l),
(251,535,o),
(304,578,o),
(376,578,cs),
(485,578,o),
(527,472,o),
(527,350,c),
(63,350,l),
(62,343,o),
(61,332,o),
(61,308,cs),
(61,114,o),
(182,-11,o),
(379,-11,cs),
(582,-11,o),
(712,123,o),
(712,343,cs),
(712,561,o),
(583,711,o),
(377,711,c)
);
},
{
closed = 1;
nodes = (
(513,157,o),
(459,110,o),
(379,110,cs),
(306,110,o),
(248,151,o),
(246,235,c),
(521,235,l)
);
}
);
userData = {
RMXScaler = {
height = 138;
verticalShift = -274;
width = 138;
};
};
width = 772;
},
{
anchors = (
{
name = bottom;
pos = (359,4);
},
{
name = ogonek;
pos = (218,685);
},
{
name = top;
pos = (359,701);
}
);
layerId = "1D55BFB9-7388-4E46-BDEC-EEE084CDFE08";
shapes = (
{
closed = 1;
nodes = (
(222,709,o),
(125,645,o),
(84,530,c),
(111,531,l),
(152,628,o),
(231,692,o),
(344,692,cs),
(516,692,o),
(633,544,o),
(613,291,c),
(67,291,l),
(66,274,o),
(66,260,o),
(67,243,cs),
(80,90,o),
(189,-10,o),
(342,-10,cs),
(524,-10,o),
(641,128,o),
(641,345,cs),
(641,556,o),
(536,717,o),
(336,715,c)
);
},
{
closed = 1;
nodes = (
(596,123,o),
(496,14,o),
(343,14,cs),
(198,14,o),
(94,113,o),
(94,266,c),
(610,266,l)
);
}
);
userData = {
RMXScaler = {
height = 147;
verticalShift = -328;
width = 147;
};
};
width = 720;
},
{
anchors = (
{
name = bottom;
pos = (344,36);
},
{
name = ogonek;
pos = (339,725);
},
{
name = top;
pos = (477,725);
}
);
layerId = m004;
shapes = (
{
closed = 1;
nodes = (
(290,713,o),
(175,615,o),
(136,483,c),
(228,483,l),
(275,600,o),
(351,640,o),
(432,640,cs),
(573,640,o),
(647,528,o),
(603,320,c),
(102,320,l),
(99,316,o),
(83,269,o),
(83,212,cs),
(83,116,o),
(135,-14,o),
(333,-14,cs),
(598,-14,o),
(712,221,o),
(712,421,cs),
(712,659,o),
(547,714,o),
(440,714,cs)
);
},
{
closed = 1;
nodes = (
(552,137,o),
(456,64,o),
(336,64,cs),
(207,64,o),
(158,150,o),
(177,238,c),
(584,238,l)
);
}
);
userData = {
RMXScaler = {
height = 143;
verticalShift = -274;
weight = 20;
width = 148;
};
};
width = 766;
},
{
anchors = (
{
name = bottom;
pos = (351,8);
},
{
name = ogonek;
pos = (334,697);
},
{
name = top;
pos = (487,692);
}
);
layerId = m005;
shapes = (
{
closed = 1;
nodes = (
(274,711,o),
(147,616,o),
(110,476,c),
(272,453,l),
(298,540,o),
(359,577,o),
(427,577,cs),
(544,577,o),
(568,470,o),
(545,349,c),
(80,349,l),
(76,328,o),
(66,288,o),
(66,248,cs),
(66,104,o),
(160,-11,o),
(349,-11,cs),
(602,-11,o),
(735,198,o),
(735,407,cs),
(735,621,o),
(593,711,o),
(437,711,cs)
);
},
{
closed = 1;
nodes = (
(499,159,o),
(438,110,o),
(356,110,cs),
(269,110,o),
(230,166,o),
(244,234,c),
(521,234,l)
);
}
);
userData = {
RMXScaler = {
height = 138;
verticalShift = -274;
width = 138;
};
};
width = 774;
},
{
anchors = (
{
name = bottom;
pos = (359,4);
},
{
name = ogonek;
pos = (218,685);
},
{
name = top;
pos = (359,701);
}
);
layerId = m006;
shapes = (
{
closed = 1;
nodes = (
(222,709,o),
(125,645,o),
(84,530,c),
(111,531,l),
(152,628,o),
(231,692,o),
(344,692,cs),
(516,692,o),
(633,544,o),
(613,291,c),
(67,291,l),
(66,274,o),
(66,260,o),
(67,243,cs),
(80,90,o),
(189,-10,o),
(342,-10,cs),
(524,-10,o),
(641,128,o),
(641,345,cs),
(641,556,o),
(536,717,o),
(336,715,c)
);
},
{
closed = 1;
nodes = (
(596,123,o),
(496,14,o),
(343,14,cs),
(198,14,o),
(94,113,o),
(94,266,c),
(610,266,l)
);
}
);
userData = {
RMXScaler = {
height = 147;
verticalShift = -328;
width = 147;
};
};
width = 720;
}
);
unicode = 399;
userData = {
RMXScaler = {
source = schwa;
};
};
},
{
color = 4;
glyphname = F;
kernLeft = B;
kernRight = F;
lastChange = "2024-04-19 08:25:41 +0000";
layers = (
{
anchors = (
{
name = bottom;
pos = (306,0);
},
{
name = top;
pos = (306,700);
}
);
layerId = "99F9E815-CA06-496B-ADE7-93275C52C564";
shapes = (
{
closed = 1;
nodes = (
(185,0,l),
(185,700,l),
(97,700,l),
(97,0,l)
);
},
{
closed = 1;
nodes = (
(505,353,l),
(505,427,l),
(158,427,l),
(158,353,l)
);
},
{
closed = 1;
nodes = (
(567,626,l),
(567,700,l),
(158,700,l),
(158,626,l)
);
}
);
width = 611;
},
{
anchors = (
{
name = bottom;
pos = (311,0);
},
{
name = top;
pos = (311,700);
}
);
layerId = "D82997A7-F07B-4593-BC54-5FAA415CA6DD";
shapes = (
{
closed = 1;
nodes = (
(255,0,l),
(255,700,l),
(70,700,l),
(70,0,l)
);
},
{
closed = 1;
nodes = (
(579,299,l),
(579,452,l),
(194,452,l),
(194,299,l)
);
},
{
closed = 1;
nodes = (
(615,547,l),
(615,700,l),
(194,700,l),
(194,547,l)
);
}
);
width = 620;
},
{
anchors = (
{
name = bottom;
pos = (289,0);
},
{
name = top;
pos = (289,700);
}
);
layerId = "1D55BFB9-7388-4E46-BDEC-EEE084CDFE08";
shapes = (
{
closed = 1;
nodes = (
(130,0,l),
(130,700,l),
(106,700,l),
(106,0,l)
);
},
{
closed = 1;
nodes = (
(502,377,l),
(502,399,l),
(123,399,l),
(123,377,l)
);
},
{
closed = 1;
nodes = (
(539,678,l),
(539,700,l),
(123,700,l),
(123,678,l)
);
}
);
width = 577;
},
{
anchors = (
{
name = bottom;
pos = (259,0);
},
{
name = top;
pos = (395,700);
}
);
layerId = m004;
shapes = (
{
closed = 1;
nodes = (
(140,0,l),
(276,700,l),
(186,700,l),
(50,0,l)
);
},
{
closed = 1;
nodes = (
(527,353,l),
(541,427,l),
(194,427,l),
(180,353,l)
);
},
{
closed = 1;
nodes = (
(642,626,l),
(656,700,l),
(247,700,l),
(233,626,l)
);
}
);
width = 611;
},
{
anchors = (
{
name = bottom;
pos = (262,0);
},
{
name = top;
pos = (398,700);
}
);
layerId = m005;
shapes = (
{
closed = 1;
nodes = (
(209,0,l),
(345,700,l),
(157,700,l),
(21,0,l)
);
},
{
closed = 1;
nodes = (
(588,299,l),
(618,452,l),
(233,452,l),
(203,299,l)
);
},
{
closed = 1;
nodes = (
(672,547,l),
(702,700,l),
(281,700,l),
(251,547,l)
);
}
);
width = 620;
},
{
anchors = (
{
name = bottom;
pos = (221,0);
},
{
name = top;
pos = (357,700);
}
);
layerId = m006;
shapes = (
{
closed = 1;
nodes = (
(62,0,l),
(198,700,l),
(174,700,l),
(38,0,l)
);
},
{
closed = 1;
nodes = (
(507,377,l),
(512,399,l),
(133,399,l),
(128,377,l)
);
},
{
closed = 1;
nodes = (
(603,678,l),
(607,700,l),
(191,700,l),
(187,678,l)
);
}
);
width = 577;
}
);
unicode = 70;
},
{
glyphname = G;
lastChange = "2024-04-19 08:25:41 +0000";
layers = (
{
anchors = (
{
name = bottom;
pos = (382,0);
},
{
name = top;
pos = (382,700);
}
);
hints = (
{
name = _corner.brush.A;
origin = (0,5);
type = Corner;
}
);
layerId = "99F9E815-CA06-496B-ADE7-93275C52C564";
shapes = (
{
closed = 1;
nodes = (
(496,-14,o),
(590,36,o),
(636,136,c),
(622,137,l),
(625,0,l),
(697,0,l),
(697,421,l),
(380,421,l),
(380,347,l),
(647,347,l),
(607,387,l),
(607,260,ls),
(607,153,o),
(514,60,o),
(390,60,cs),
(251,60,o),
(146,175,o),
(146,353,cs),
(146,532,o),
(253,640,o),
(393,640,cs),
(489,640,o),
(570,590,o),
(593,503,c),
(686,503,l),
(657,629,o),
(538,714,o),
(393,714,cs),
(201,714,o),
(54,566,o),
(54,348,cs),
(54,127,o),
(202,-14,o),
(387,-14,cs)
);
}
);
width = 765;
},
{
anchors = (
{
name = bottom;
pos = (390,0);
},
{
name = top;
pos = (390,700);
}
);
hints = (
{
name = _corner.brush.A;
origin = (0,5);
type = Corner;
}
);
layerId = "D82997A7-F07B-4593-BC54-5FAA415CA6DD";
shapes = (
{
closed = 1;
nodes = (
(483,-14,o),
(562,29,o),
(616,129,c),
(570,177,l),
(585,0,l),
(725,0,l),
(725,450,l),
(348,450,l),
(348,300,l),
(628,300,l),
(542,386,l),
(542,251,ls),
(542,180,o),
(476,137,o),
(399,137,cs),
(281,137,o),
(229,237,o),
(229,356,cs),
(229,493,o),
(299,561,o),
(398,561,cs),
(468,561,o),
(520,527,o),
(536,474,c),
(710,529,l),
(666,641,o),
(546,714,o),
(394,714,cs),
(180,714,o),
(39,569,o),
(39,349,cs),
(39,133,o),
(175,-14,o),
(376,-14,cs)
);
}
);
width = 780;
},
{
anchors = (
{
name = bottom;
pos = (352,0);
},
{
name = top;
pos = (352,700);
}
);
hints = (
{
name = _corner.brush.A;
origin = (0,5);
type = Corner;
}
);
layerId = "1D55BFB9-7388-4E46-BDEC-EEE084CDFE08";
shapes = (
{
closed = 1;
nodes = (
(482,-10,o),
(576,51,o),
(614,171,c),
(608,175,l),
(608,0,l),
(631,0,l),
(631,397,l),
(380,397,l),
(380,375,l),
(619,375,l),
(608,386,l),
(608,260,ls),
(608,115,o),
(505,12,o),
(375,12,cs),
(218,12,o),
(83,159,o),
(83,354,cs),
(83,548,o),
(218,688,o),
(377,688,cs),
(488,688,o),
(568,619,o),
(594,537,c),
(620,537,l),
(591,632,o),
(500,710,o),
(377,710,cs),
(204,710,o),
(58,558,o),
(58,350,cs),
(58,143,o),
(202,-10,o),
(375,-10,cs)
);
}
);
width = 704;
},
{
anchors = (
{
name = bottom;
pos = (326,0);
},
{
name = top;
pos = (462,700);
}
);
hints = (
{
name = _corner.brush.A;
origin = (0,5);
type = Corner;
}
);
layerId = m004;
name = "Regular Italic";
shapes = (
{
closed = 1;
nodes = (
(464,-14,o),
(558,29,o),
(617,123,c),
(602,124,l),
(578,0,l),
(654,0,l),
(735,420,l),
(429,420,l),
(415,349,l),
(671,349,l),
(639,380,l),
(610,238,ls),
(590,140,o),
(495,59,o),
(379,59,cs),
(253,59,o),
(165,153,o),
(165,302,cs),
(165,465,o),
(271,640,o),
(451,640,cs),
(550,640,o),
(636,586,o),
(643,503,c),
(735,503,l),
(729,641,o),
(589,714,o),
(454,714,cs),
(227,714,o),
(73,509,o),
(73,296,cs),
(73,101,o),
(203,-14,o),
(364,-14,cs)
);
}
);
width = 774;
},
{
anchors = (
{
name = bottom;
pos = (390,0);
},
{
name = top;
pos = (390,700);
}
);
associatedMasterId = m005;
hints = (
{
name = _corner.brush.A;
origin = (0,5);
type = Corner;
}
);
layerId = "63A50BEA-F832-4595-BC05-E15F1486DB28";
name = "Mar 31, 24 at 09:45";
shapes = (
{
closed = 1;
nodes = (
(483,-14,o),
(562,29,o),
(616,129,c),
(570,177,l),
(585,0,l),
(725,0,l),
(725,450,l),
(348,450,l),
(348,300,l),
(628,300,l),
(542,386,l),
(542,251,ls),
(542,180,o),
(476,137,o),
(399,137,cs),
(281,137,o),
(229,237,o),
(229,356,cs),
(229,493,o),
(299,561,o),
(398,561,cs),
(468,561,o),
(520,527,o),
(536,474,c),
(710,529,l),
(666,641,o),
(546,714,o),
(394,714,cs),
(180,714,o),
(39,569,o),
(39,349,cs),
(39,133,o),
(175,-14,o),
(376,-14,cs)
);
}
);
width = 780;
},
{
anchors = (
{
name = bottom;
pos = (378,0);
},
{
name = top;
pos = (472,700);
}
);
hints = (
{
name = _corner.brush.A;
origin = (0,5);
type = Corner;
}
);
layerId = m005;
name = "Black Italic";
shapes = (
{
closed = 1;
nodes = (
(451,-14,o),
(526,19,o),
(588,109,c),
(556,161,l),
(535,0,l),
(676,0,l),
(761,445,l),
(390,445,l),
(361,300,l),
(637,300,l),
(569,380,l),
(542,237,ls),
(530,172,o),
(467,136,o),
(397,136,cs),
(303,136,o),
(247,201,o),
(247,308,cs),
(247,405,o),
(293,560,o),
(447,560,cs),
(521,560,o),
(574,524,o),
(579,469,c),
(759,498,l),
(731,643,o),
(589,714,o),
(446,714,cs),
(202,714,o),
(56,508,o),
(56,299,cs),
(56,92,o),
(199,-14,o),
(361,-14,cs)
);
}
);
width = 781;
},
{
anchors = (
{
name = bottom;
pos = (326,0);
},
{
name = top;
pos = (462,700);
}
);
associatedMasterId = m004;
hints = (
{
name = _corner.brush.A;
origin = (0,5);
type = Corner;
}
);
layerId = "A6461412-F6F0-49DB-ABE8-1713E7773D27";
name = "Apr 9, 24 at 13:32";
shapes = (
{
closed = 1;
nodes = (
(470,-15,o),
(556,25,o),
(615,112,c),
(595,114,l),
(578,0,l),
(654,0,l),
(735,420,l),
(429,420,l),
(415,349,l),
(671,349,l),
(639,380,l),
(610,238,ls),
(590,140,o),
(495,59,o),
(379,59,cs),
(253,59,o),
(165,153,o),
(165,302,cs),
(165,465,o),
(271,639,o),
(451,639,cs),
(550,639,o),
(636,586,o),
(643,503,c),
(735,503,l),
(729,641,o),
(589,713,o),
(454,713,cs),
(227,713,o),
(73,509,o),
(73,298,cs),
(73,101,o),
(207,-15,o),
(373,-15,cs)
);
}
);
width = 774;
},
{
anchors = (
{
name = bottom;
pos = (317.205,-4.381);
},
{
name = top;
pos = (384.298,692.396);
}
);
associatedMasterId = m006;
background = {
anchors = (
{
name = bottom;
pos = (317.205,-4.381);
},
{
name = top;
pos = (384.298,692.396);
}
);
hints = (
{
name = _corner.brush.A;
origin = (0,5);
type = Corner;
}
);
shapes = (
{
closed = 1;
nodes = (
(439,-16,o),
(532,36,o),
(587.834,141.351,c),
(582.627,145.871,l),
(549.133,-26.713,l),
(572.027,-28.917,l),
(648.011,362.602,l),
(398.167,386.66,l),
(393.956,364.963,l),
(631.856,342.056,l),
(623.012,353.959,l),
(598.896,229.698,ls),
(573,95,o),
(463,6,o),
(343,6,cs),
(195,6,o),
(87,131,o),
(87,296,cs),
(87,309,o),
(87,321,o),
(88.609,333.554,cs),
(89.849,346.423,o),
(91.737,359.49,o),
(94.304,372.719,cs),
(129,554,o),
(275,675,o),
(425,675,cs),
(551,675,o),
(627,594,o),
(637.977,504.216,c),
(663.858,501.724,l),
(652,606,o),
(565,697,o),
(427,697,cs),
(264,697,o),
(106,565,o),
(68.654,371.171,cs),
(65.95,357.239,o),
(63.962,343.491,o),
(62.659,329.962,cs),
(61,317,o),
(61,304,o),
(61,291,cs),
(61,115,o),
(178,-16,o),
(342,-16,cs)
);
}
);
};
hints = (
{
name = _corner.brush.A;
origin = (0,5);
type = Corner;
}
);
layerId = "5A8EA0B6-6612-4467-9DE3-C05AD5F5B9AC";
name = "Hairline Italic Slanted and Rotated";
shapes = (
{
closed = 1;
nodes = (
(439,-10,o),
(532,42,o),
(588,147,c),
(583,152,l),
(553,0,l),
(576,0,l),
(648,381,l),
(398,381,l),
(394,360,l),
(632,360,l),
(623,360,l),
(599,236,ls),
(573,101,o),
(463,12,o),
(343,12,cs),
(195,12,o),
(87,137,o),
(87,302,cs),
(87,484,o),
(223,681,o),
(425,681,cs),
(551,681,o),
(627,599,o),
(638,509,c),
(664,509,l),
(652,613,o),
(565,703,o),
(427,703,cs),
(126,703,o),
(61,364,o),
(61,297,cs),
(61,121,o),
(178,-10,o),
(342,-10,cs)
);
}
);
width = 704;
},
{
anchors = (
{
name = bottom;
pos = (352,0);
},
{
name = top;
pos = (352,700);
}
);
associatedMasterId = m006;
hints = (
{
name = _corner.brush.A;
origin = (0,5);
type = Corner;
}
);
layerId = "4AD0DC02-BB67-47D5-9DA4-048221538CE7";
name = "Apr 18, 24 at 09:45";
shapes = (
{
closed = 1;
nodes = (
(482,-10,o),
(576,51,o),
(614,171,c),
(608,175,l),
(608,0,l),
(631,0,l),
(631,397,l),
(380,397,l),
(380,375,l),
(619,375,l),
(608,386,l),
(608,260,ls),
(608,115,o),
(505,12,o),
(375,12,cs),
(218,12,o),
(83,159,o),
(83,354,cs),
(83,548,o),
(218,688,o),
(377,688,cs),
(488,688,o),
(568,619,o),
(594,537,c),
(620,537,l),
(591,632,o),
(500,710,o),
(377,710,cs),
(204,710,o),
(58,558,o),
(58,350,cs),
(58,143,o),
(202,-10,o),
(375,-10,cs)
);
}
);
width = 704;
},
{
anchors = (
{
name = bottom;
pos = (306,0);
},
{
name = top;
pos = (442,700);
}
);
background = {
anchors = (
{
name = bottom;
pos = (352,0);
},
{
name = top;
pos = (352,700);
}
);
hints = (
{
name = _corner.brush.A;
origin = (0,5);
type = Corner;
}
);
shapes = (
{
closed = 1;
nodes = (
(434,-10,o),
(540,51,o),
(601,171,c),
(596,175,l),
(562,0,l),
(585,0,l),
(661,397,l),
(410,397,l),
(406,375,l),
(645,375,l),
(636,386,l),
(612,260,ls),
(584,115,o),
(461,12,o),
(331,12,cs),
(195,12,o),
(98,122,o),
(98,278,cs),
(98,302,o),
(100,328,o),
(105,354,cs),
(142,548,o),
(304,688,o),
(463,688,cs),
(574,688,o),
(641,619,o),
(651,537,c),
(677,537,l),
(666,632,o),
(590,710,o),
(467,710,cs),
(294,710,o),
(119,558,o),
(79,350,cs),
(74,322,o),
(71,295,o),
(71,270,cs),
(71,105,o),
(177,-10,o),
(327,-10,cs)
);
}
);
};
hints = (
{
name = _corner.brush.A;
origin = (0,5);
type = Corner;
}
);
layerId = m006;
name = "Hairline Italic";
shapes = (
{
closed = 1;
nodes = (
(434,-10,o),
(542,53,o),
(601,171,c),
(596,175,l),
(562,0,l),
(585,0,l),
(661,397,l),
(410,397,l),
(406,375,l),
(645,375,l),
(636,386,l),
(612,260,ls),
(585,117,o),
(461,12,o),
(332,12,cs),
(191,12,o),
(96,139,o),
(96,298,cs),
(96,503,o),
(255,688,o),
(456,688,cs),
(573,688,o),
(638,626,o),
(651,537,c),
(677,537,l),
(663,639,o),
(590,710,o),
(459,710,cs),
(242,710,o),
(71,514,o),
(71,295,cs),
(71,128,o),
(171,-10,o),
(328,-10,cs)
);
}
);
width = 704;
}
);
unicode = 71;
},
{
color = 4;
glyphname = H;
kernLeft = B;
kernRight = H;
lastChange = "2024-04-19 08:25:41 +0000";
layers = (
{
anchors = (
{
name = bottom;
pos = (378,0);
},
{
name = center;
pos = (378,350);
},
{
name = top;
pos = (378,700);
},
{
name = topleft;
pos = (27,700);
}
);
layerId = "99F9E815-CA06-496B-ADE7-93275C52C564";
shapes = (
{
closed = 1;
nodes = (
(656,0,l),
(656,700,l),
(568,700,l),
(568,0,l)
);
},
{
closed = 1;
nodes = (
(185,0,l),
(185,700,l),
(97,700,l),
(97,0,l)
);
},
{
closed = 1;
nodes = (
(596,357,l),
(596,431,l),
(158,431,l),
(158,357,l)
);
}
);
width = 755;
},
{
anchors = (
{
name = bottom;
pos = (392,0);
},
{
name = center;
pos = (392,350);
},
{
name = top;
pos = (392,700);
},
{
name = topleft;
pos = (24,700);
}
);
layerId = "D82997A7-F07B-4593-BC54-5FAA415CA6DD";
shapes = (
{
closed = 1;
nodes = (
(712,0,l),
(712,700,l),
(527,700,l),
(527,0,l)
);
},
{
closed = 1;
nodes = (
(255,0,l),
(255,700,l),
(70,700,l),
(70,0,l)
);
},
{
closed = 1;
nodes = (
(599,316,l),
(599,469,l),
(195,469,l),
(195,316,l)
);
}
);
width = 782;
},
{
anchors = (
{
name = bottom;
pos = (370,0);
},
{
name = center;
pos = (370,350);
},
{
name = top;
pos = (370,700);
},
{
name = topleft;
pos = (22,700);
}
);
layerId = "1D55BFB9-7388-4E46-BDEC-EEE084CDFE08";
shapes = (
{
closed = 1;
nodes = (
(625,0,l),
(625,700,l),
(601,700,l),
(601,0,l)
);
},
{
closed = 1;
nodes = (
(130,0,l),
(130,700,l),
(106,700,l),
(106,0,l)
);
},
{
closed = 1;
nodes = (
(615,386,l),
(615,408,l),
(123,408,l),
(123,386,l)
);
}
);
width = 731;
},
{
anchors = (
{
name = bottom;
pos = (384,0);
},
{
name = center;
pos = (452,350);
},
{
name = top;
pos = (520,700);
},
{
name = topleft;
pos = (169,700);
}
);
layerId = m004;
shapes = (
{
closed = 1;
nodes = (
(620,0,l),
(757,700,l),
(667,700,l),
(530,0,l)
);
},
{
closed = 1;
nodes = (
(140,0,l),
(276,700,l),
(186,700,l),
(50,0,l)
);
},
{
closed = 1;
nodes = (
(627,357,l),
(641,431,l),
(196,431,l),
(182,357,l)
);
}
);
width = 767;
},
{
anchors = (
{
name = bottom;
pos = (343,0);
},
{
name = center;
pos = (411,350);
},
{
name = top;
pos = (479,700);
},
{
name = topleft;
pos = (111,700);
}
);
layerId = m005;
shapes = (
{
closed = 1;
nodes = (
(666,0,l),
(802,700,l),
(614,700,l),
(478,0,l)
);
},
{
closed = 1;
nodes = (
(209,0,l),
(345,700,l),
(157,700,l),
(21,0,l)
);
},
{
closed = 1;
nodes = (
(611,316,l),
(641,469,l),
(237,469,l),
(207,316,l)
);
}
);
width = 785;
},
{
anchors = (
{
name = bottom;
pos = (302,0);
},
{
name = center;
pos = (370,350);
},
{
name = top;
pos = (438,700);
},
{
name = topleft;
pos = (90,700);
}
);
layerId = m006;
shapes = (
{
closed = 1;
nodes = (
(557,0,l),
(693,700,l),
(669,700,l),
(533,0,l)
);
},
{
closed = 1;
nodes = (
(62,0,l),
(198,700,l),
(174,700,l),
(38,0,l)
);
},
{
closed = 1;
nodes = (
(622,386,l),
(626,408,l),
(134,408,l),
(130,386,l)
);
}
);
width = 731;
}
);
unicode = 72;
},
{
glyphname = Hbar;
lastChange = "2024-04-19 08:23:20 +0000";
layers = (
{
layerId = "99F9E815-CA06-496B-ADE7-93275C52C564";
shapes = (
{
closed = 1;
nodes = (
(727,532,l),
(727,601,l),
(24,601,l),
(24,532,l)
);
},
{
alignment = -1;
pos = (-7,0);
ref = H;
}
);
width = 731;
},
{
layerId = "D82997A7-F07B-4593-BC54-5FAA415CA6DD";
shapes = (
{
closed = 1;
nodes = (
(835,540,l),
(835,634,l),
(51,634,l),
(51,540,l)
);
},
{
alignment = -1;
pos = (42,0);
ref = H;
}
);
width = 886;
},
{
layerId = "1D55BFB9-7388-4E46-BDEC-EEE084CDFE08";
shapes = (
{
closed = 1;
nodes = (
(728,540,l),
(728,562,l),
(44,562,l),
(44,540,l)
);
},
{
alignment = -1;
pos = (13,0);
ref = H;
}
);
width = 772;
},
{
layerId = m004;
shapes = (
{
closed = 1;
nodes = (
(783,532,l),
(797,601,l),
(94,601,l),
(80,532,l)
);
},
{
alignment = -1;
pos = (3,0);
ref = H;
}
);
width = 731;
},
{
layerId = m005;
shapes = (
{
closed = 1;
nodes = (
(950,540,l),
(968,634,l),
(184,634,l),
(166,540,l)
);
},
{
alignment = -1;
pos = (116,0);
ref = H;
}
);
width = 904;
},
{
layerId = m006;
shapes = (
{
closed = 1;
nodes = (
(728,540,l),
(728,562,l),
(44,562,l),
(44,540,l)
);
},
{
alignment = -1;
pos = (13,0);
ref = H;
}
);
width = 772;
}
);
unicode = 294;
},
{
color = 4;
glyphname = I;
kernLeft = B;
kernRight = H;
lastChange = "2024-04-19 08:25:41 +0000";
layers = (
{
anchors = (
{
name = bottom;
pos = (155,0);
},
{
name = ogonek;
pos = (197,0);
},
{
name = top;
pos = (154,700);
},
{
name = topleft;
pos = (161,700);
}
);
layerId = "99F9E815-CA06-496B-ADE7-93275C52C564";
shapes = (
{
closed = 1;
nodes = (
(197,0,l),
(197,700,l),
(110,700,l),
(110,0,l)
);
}
);
width = 297;
},
{
anchors = (
{
name = bottom;
pos = (163,0);
},
{
name = ogonek;
pos = (255,0);
},
{
name = top;
pos = (163,700);
},
{
name = topleft;
pos = (27,700);
}
);
layerId = "D82997A7-F07B-4593-BC54-5FAA415CA6DD";
shapes = (
{
closed = 1;
nodes = (
(255,0,l),
(255,700,l),
(70,700,l),
(70,0,l)
);
}
);
width = 325;
},
{
anchors = (
{
name = bottom;
pos = (120,0);
},
{
name = ogonek;
pos = (129,0);
},
{
name = top;
pos = (118,700);
},
{
name = topleft;
pos = (20,700);
}
);
layerId = "1D55BFB9-7388-4E46-BDEC-EEE084CDFE08";
shapes = (
{
closed = 1;
nodes = (
(130,0,l),
(130,700,l),
(106,700,l),
(106,0,l)
);
}
);
width = 239;
},
{
anchors = (
{
name = bottom;
pos = (108,0);
},
{
name = ogonek;
pos = (150,0);
},
{
name = top;
pos = (244,700);
},
{
name = topleft;
pos = (244,700);
}
);
layerId = m004;
shapes = (
{
closed = 1;
nodes = (
(153,0,l),
(289,700,l),
(199,700,l),
(63,0,l)
);
}
);
width = 300;
},
{
anchors = (
{
name = bottom;
pos = (114,0);
},
{
name = ogonek;
pos = (206,0);
},
{
name = top;
pos = (250,700);
},
{
name = topleft;
pos = (114,700);
}
);
layerId = m005;
shapes = (
{
closed = 1;
nodes = (
(209,0,l),
(345,700,l),
(157,700,l),
(21,0,l)
);
}
);
width = 328;
},
{
anchors = (
{
name = bottom;
pos = (52,0);
},
{
name = ogonek;
pos = (61,0);
},
{
name = top;
pos = (186,700);
},
{
name = topleft;
pos = (88,700);
}
);
layerId = m006;
shapes = (
{
closed = 1;
nodes = (
(62,0,l),
(198,700,l),
(174,700,l),
(38,0,l)
);
}
);
width = 239;
}
);
unicode = 73;
},
{
color = 3;
glyphname = J;
kernLeft = J;
kernRight = IJ;
lastChange = "2024-04-19 08:25:41 +0000";
layers = (
{
anchors = (
{
name = bottom;
pos = (267,0);
},
{
name = top;
pos = (399,700);
}
);
layerId = "99F9E815-CA06-496B-ADE7-93275C52C564";
name = Regular;
shapes = (
{
closed = 1;
nodes = (
(362,0,o),
(444,81,o),
(444,211,cs),
(444,700,l),
(356,700,l),
(356,211,ls),
(356,126,o),
(308,74,o),
(235,74,cs),
(164,74,o),
(115,127,o),
(115,211,cs),
(115,325,l),
(27,325,l),
(27,211,ls),
(27,81,o),
(109,0,o),
(235,0,c)
);
}
);
width = 534;
},
{
anchors = (
{
name = bottom;
pos = (287,0);
},
{
name = top;
pos = (413,700);
}
);
layerId = "D82997A7-F07B-4593-BC54-5FAA415CA6DD";
name = Black;
shapes = (
{
closed = 1;
nodes = (
(401,0,o),
(510,72,o),
(510,230,cs),
(510,700,l),
(325,700,l),
(325,243,ls),
(325,167,o),
(285,159,o),
(261,159,cs),
(234,159,o),
(195,168,o),
(195,243,cs),
(195,366,l),
(13,366,l),
(13,230,ls),
(13,72,o),
(118,0,o),
(261,0,cs)
);
}
);
width = 572;
},
{
anchors = (
{
name = bottom;
pos = (241,0);
},
{
name = top;
pos = (370,700);
}
);
layerId = "1D55BFB9-7388-4E46-BDEC-EEE084CDFE08";
name = Hairline;
shapes = (
{
closed = 1;
nodes = (
(317,0,o),
(382,82,o),
(382,197,cs),
(382,700,l),
(358,700,l),
(358,197,ls),
(358,97,o),
(303,22,o),
(204,22,cs),
(106,22,o),
(50,96,o),
(50,197,cs),
(50,316,l),
(26,316,l),
(26,197,ls),
(26,82,o),
(91,0,o),
(204,0,cs)
);
}
);
width = 480;
},
{
anchors = (
{
name = bottom;
pos = (260,0);
},
{
name = top;
pos = (392,700);
}
);
associatedMasterId = m004;
hints = (
{
name = _corner.brush.A;
origin = (0,5);
scale = (1,-1);
type = Corner;
}
);
layerId = "C4A1E068-B74B-4321-A1E0-386B04FE8DB3";
name = "Italic Slanted";
shapes = (
{
closed = 1;
nodes = (
(74,-14,o),
(185,-14,cs),
(318,-14,o),
(398,61,o),
(420,174,cs),
(521,700,l),
(433,700,l),
(334,184,ls),
(320,110,o),
(261,60,o),
(189,60,cs),
(108,60,o),
(80,128,o),
(94,197,cs),
(116,311,l),
(28,311,l),
(6,197,ls),
(-20,74,o)
);
}
);
width = 520;
},
{
anchors = (
{
name = bottom;
pos = (260,0);
},
{
name = top;
pos = (392,700);
}
);
associatedMasterId = m004;
layerId = "50C0C938-E1EC-42E7-9CC8-ECA048DF0BDC";
name = "Mar 19, 24 at 15:48";
shapes = (
{
closed = 1;
nodes = (
(355,0,o),
(437,81,o),
(437,211,cs),
(437,700,l),
(349,700,l),
(349,211,ls),
(349,126,o),
(301,74,o),
(228,74,cs),
(157,74,o),
(108,127,o),
(108,211,cs),
(108,325,l),
(20,325,l),
(20,211,ls),
(20,81,o),
(102,0,o),
(228,0,c)
);
}
);
width = 520;
},
{
anchors = (
{
name = bottom;
pos = (207,0);
},
{
name = top;
pos = (494,700);
}
);
background = {
anchors = (
{
name = bottom;
pos = (236,-3);
},
{
name = top;
pos = (435,681);
}
);
hints = (
{
name = _corner.brush.A;
origin = (0,6);
scale = (1,-1);
type = Corner;
}
);
shapes = (
{
closed = 1;
nodes = (
(191,1,o),
(200,1,o),
(209,1,cs),
(322,1,o),
(407,72,o),
(430,190,cs),
(524,677,l),
(436,677,l),
(342,199,ls),
(327,121,o),
(276,75,o),
(210,75,cs),
(142,75,o),
(99,118,o),
(99,186,cs),
(99,191,o),
(99,197,o),
(100,203,cs),
(100,209,o),
(101,215,o),
(102,222,cs),
(124,339,l),
(37,339,l),
(15,230,ls),
(13,221,o),
(12,212,o),
(11,203,cs),
(10,195,o),
(10,187,o),
(10,179,cs),
(10,79,o),
(74,13,o),
(181,2,c)
);
}
);
};
layerId = m004;
name = Italic;
shapes = (
{
closed = 1;
nodes = (
(329,-14,o),
(414,56,o),
(437,175,cs),
(538,700,l),
(450,700,l),
(349,184,ls),
(334,106,o),
(284,60,o),
(214,60,cs),
(120,60,o),
(97,142,o),
(109,207,cs),
(131,324,l),
(44,324,l),
(22,215,ls),
(-7,72,o),
(85,-14,o),
(213,-14,cs)
);
}
);
visible = 1;
width = 544;
},
{
anchors = (
{
name = bottom;
pos = (287,0);
},
{
name = top;
pos = (413,700);
}
);
associatedMasterId = m005;
layerId = "D13E18B4-BDAC-4F18-9E27-6655308C5AF8";
name = "Mar 31, 24 at 09:46";
shapes = (
{
closed = 1;
nodes = (
(401,0,o),
(510,72,o),
(510,230,cs),
(510,700,l),
(325,700,l),
(325,243,ls),
(325,167,o),
(285,159,o),
(261,159,cs),
(234,159,o),
(195,168,o),
(195,243,cs),
(195,366,l),
(13,366,l),
(13,230,ls),
(13,72,o),
(118,0,o),
(261,0,cs)
);
}
);
width = 572;
},
{
anchors = (
{
name = bottom;
pos = (269,0);
},
{
name = top;
pos = (531,700);
}
);
layerId = m005;
name = "Black Italic";
shapes = (
{
closed = 1;
nodes = (
(371,-14,o),
(471,49,o),
(499,193,cs),
(597,700,l),
(412,700,l),
(319,223,ls),
(306,156,o),
(273,146,o),
(246,146,cs),
(196,146,o),
(181,181,o),
(191,236,cs),
(215,367,l),
(36,367,l),
(10,240,ls),
(-25,69,o),
(91,-14,o),
(241,-14,cs)
);
}
);
width = 572;
},
{
anchors = (
{
name = bottom;
pos = (241,0);
},
{
name = top;
pos = (506,700);
}
);
layerId = m006;
name = Hairline;
shapes = (
{
closed = 1;
nodes = (
(297,-10,o),
(364,62,o),
(385,170,cs),
(488,700,l),
(465,700,l),
(362,172,ls),
(344,78,o),
(284,11,o),
(196,11,cs),
(88,11,o),
(34,84,o),
(57,201,cs),
(80,321,l),
(57,321,l),
(34,204,ls),
(14,101,o),
(51,-10,o),
(194,-10,cs)
);
}
);
width = 480;
}
);
unicode = 74;
},
{
color = 4;
glyphname = K;
kernLeft = B;
kernRight = K;
lastChange = "2024-04-19 08:25:41 +0000";
layers = (
{
anchors = (
{
name = bottom;
pos = (313,0);
},
{
name = top;
pos = (313,700);
}
);
layerId = "99F9E815-CA06-496B-ADE7-93275C52C564";
name = Regular;
shapes = (
{
closed = 1;
nodes = (
(609,700,l),
(492,700,l),
(123,371,l),
(159,293,l)
);
},
{
closed = 1;
nodes = (
(183,0,l),
(183,700,l),
(97,700,l),
(97,0,l)
);
},
{
closed = 1;
nodes = (
(627,0,l),
(328,500,l),
(244,479,l),
(519,0,l)
);
}
);
width = 617;
},
{
anchors = (
{
name = bottom;
pos = (360,0);
},
{
name = top;
pos = (360,700);
}
);
layerId = "D82997A7-F07B-4593-BC54-5FAA415CA6DD";
name = Regular;
shapes = (
{
closed = 1;
nodes = (
(721,700,l),
(480,700,l),
(118,354,l),
(199,190,l)
);
},
{
closed = 1;
nodes = (
(255,0,l),
(255,700,l),
(70,700,l),
(70,0,l)
);
},
{
closed = 1;
nodes = (
(724,0,l),
(450,498,l),
(277,453,l),
(499,0,l)
);
}
);
width = 718;
},
{
anchors = (
{
name = bottom;
pos = (302,0);
},
{
name = top;
pos = (302,700);
}
);
layerId = "1D55BFB9-7388-4E46-BDEC-EEE084CDFE08";
name = Regular;
shapes = (
{
closed = 1;
nodes = (
(589,700,l),
(554,700,l),
(118,327,l),
(123,301,l)
);
},
{
closed = 1;
nodes = (
(130,0,l),
(130,700,l),
(106,700,l),
(106,0,l)
);
},
{
closed = 1;
nodes = (
(610,0,l),
(251,428,l),
(230,415,l),
(580,0,l)
);
}
);
width = 602;
},
{
anchors = (
{
name = bottom;
pos = (266,0);
},
{
name = top;
pos = (402,700);
}
);
layerId = m004;
name = Regular;
shapes = (
{
closed = 1;
nodes = (
(704,700,l),
(581,700,l),
(148,371,l),
(175,293,l)
);
},
{
closed = 1;
nodes = (
(136,0,l),
(272,700,l),
(186,700,l),
(50,0,l)
);
},
{
closed = 1;
nodes = (
(580,0,l),
(378,500,l),
(296,479,l),
(478,0,l)
);
}
);
width = 617;
},
{
anchors = (
{
name = bottom;
pos = (311,0);
},
{
name = top;
pos = (447,700);
}
);
layerId = m005;
name = Regular;
shapes = (
{
closed = 1;
nodes = (
(814,700,l),
(562,700,l),
(133,354,l),
(193,190,l)
);
},
{
closed = 1;
nodes = (
(206,0,l),
(342,700,l),
(157,700,l),
(21,0,l)
);
},
{
closed = 1;
nodes = (
(670,0,l),
(491,498,l),
(322,453,l),
(456,0,l)
);
}
);
width = 721;
},
{
anchors = (
{
name = bottom;
pos = (234,0);
},
{
name = top;
pos = (370,700);
}
);
layerId = m006;
name = Regular;
shapes = (
{
closed = 1;
nodes = (
(661,700,l),
(622,700,l),
(114,328,l),
(117,301,l)
);
},
{
closed = 1;
nodes = (
(62,0,l),
(198,700,l),
(174,700,l),
(38,0,l)
);
},
{
closed = 1;
nodes = (
(542,0,l),
(266,428,l),
(246,415,l),
(515,0,l)
);
}
);
width = 602;
}
);
unicode = 75;
},
{
color = 4;
glyphname = L;
kernLeft = B;
kernRight = L;
lastChange = "2024-04-19 08:25:41 +0000";
layers = (
{
anchors = (
{
name = bottom;
pos = (295,0);
},
{
name = center;
pos = (146,350);
},
{
name = top;
pos = (142,700);
},
{
name = topright;
pos = (498,700);
}
);
layerId = "99F9E815-CA06-496B-ADE7-93275C52C564";
shapes = (
{
closed = 1;
nodes = (
(185,0,l),
(185,700,l),
(97,700,l),
(97,0,l)
);
},
{
closed = 1;
nodes = (
(528,0,l),
(528,74,l),
(153,74,l),
(153,0,l)
);
}
);
width = 525;
},
{
anchors = (
{
name = bottom;
pos = (283,0);
},
{
name = center;
pos = (166,358);
},
{
name = top;
pos = (161,700);
},
{
name = topright;
pos = (541,700);
}
);
layerId = "D82997A7-F07B-4593-BC54-5FAA415CA6DD";
shapes = (
{
closed = 1;
nodes = (
(255,0,l),
(255,700,l),
(70,700,l),
(70,0,l)
);
},
{
closed = 1;
nodes = (
(550,0,l),
(550,153,l),
(182,153,l),
(182,0,l)
);
}
);
width = 567;
},
{
anchors = (
{
name = bottom;
pos = (263,0);
},
{
name = center;
pos = (115,350);
},
{
name = top;
pos = (120,700);
},
{
name = topright;
pos = (502,700);
}
);
layerId = "1D55BFB9-7388-4E46-BDEC-EEE084CDFE08";
shapes = (
{
closed = 1;
nodes = (
(130,0,l),
(130,700,l),
(106,700,l),
(106,0,l)
);
},
{
closed = 1;
nodes = (
(513,0,l),
(513,22,l),
(125,22,l),
(125,0,l)
);
}
);
width = 522;
},
{
anchors = (
{
name = bottom;
pos = (248,0);
},
{
name = center;
pos = (167,350);
},
{
name = top;
pos = (231,700);
},
{
name = topright;
pos = (587,700);
}
);
layerId = m004;
shapes = (
{
closed = 1;
nodes = (
(140,0,l),
(276,700,l),
(186,700,l),
(50,0,l)
);
},
{
closed = 1;
nodes = (
(481,0,l),
(495,74,l),
(120,74,l),
(106,0,l)
);
}
);
width = 525;
},
{
anchors = (
{
name = bottom;
pos = (234,0);
},
{
name = center;
pos = (187,358);
},
{
name = top;
pos = (248,700);
},
{
name = topright;
pos = (628,700);
}
);
layerId = m005;
shapes = (
{
closed = 1;
nodes = (
(209,0,l),
(345,700,l),
(157,700,l),
(21,0,l)
);
},
{
closed = 1;
nodes = (
(501,0,l),
(531,153,l),
(163,153,l),
(133,0,l)
);
}
);
width = 568;
},
{
anchors = (
{
name = bottom;
pos = (195,0);
},
{
name = center;
pos = (115,350);
},
{
name = top;
pos = (188,700);
},
{
name = topright;
pos = (570,700);
}
);
layerId = m006;
shapes = (
{
closed = 1;
nodes = (
(62,0,l),
(198,700,l),
(174,700,l),
(38,0,l)
);
},
{
closed = 1;
nodes = (
(445,0,l),
(449,22,l),
(61,22,l),
(57,0,l)
);
}
);
width = 522;
}
);
unicode = 76;
},
{
color = 4;
glyphname = M;
kernLeft = B;
kernRight = H;
lastChange = "2024-04-19 08:25:41 +0000";
layers = (
{
anchors = (
{
name = bottom;
pos = (500,0);
},
{
name = top;
pos = (500,700);
}
);
layerId = "99F9E815-CA06-496B-ADE7-93275C52C564";
name = Regular;
shapes = (
{
closed = 1;
nodes = (
(187,0,l),
(247,644,l),
(229,642,l),
(464,0,l),
(539,0,l),
(770,641,l),
(752,643,l),
(812,0,l),
(902,0,l),
(833,700,l),
(703,700,l),
(487,104,l),
(515,104,l),
(296,700,l),
(166,700,l),
(97,0,l)
);
}
);
width = 1001;
},
{
anchors = (
{
name = bottom;
pos = (534,0);
},
{
name = top;
pos = (534,700);
}
);
layerId = "D82997A7-F07B-4593-BC54-5FAA415CA6DD";
name = Regular;
shapes = (
{
closed = 1;
nodes = (
(255,0,l),
(301,552,l),
(283,545,l),
(464,0,l),
(608,0,l),
(779,535,l),
(770,542,l),
(813,0,l),
(1000,0,l),
(927,700,l),
(664,700,l),
(515,241,l),
(555,241,l),
(400,700,l),
(142,700,l),
(70,0,l)
);
}
);
width = 1070;
},
{
anchors = (
{
name = bottom;
pos = (473,0);
},
{
name = top;
pos = (473,700);
}
);
layerId = "1D55BFB9-7388-4E46-BDEC-EEE084CDFE08";
name = Regular;
shapes = (
{
closed = 1;
nodes = (
(129,0,l),
(199,685,l),
(193,686,l),
(460,0,l),
(484,0,l),
(756,692,l),
(746,692,l),
(816,0,l),
(840,0,l),
(770,700,l),
(734,700,l),
(464,8,l),
(480,8,l),
(213,700,l),
(176,700,l),
(106,0,l)
);
}
);
width = 946;
},
{
anchors = (
{
name = bottom;
pos = (474,0);
},
{
name = top;
pos = (610,700);
}
);
layerId = m004;
name = Regular;
shapes = (
{
closed = 1;
nodes = (
(145,0,l),
(330,644,l),
(308,642,l),
(419,0,l),
(494,0,l),
(849,641,l),
(830,643,l),
(765,0,l),
(857,0,l),
(924,700,l),
(789,700,l),
(458,104,l),
(486,104,l),
(382,700,l),
(255,700,l),
(50,0,l)
);
}
);
width = 1003;
},
{
anchors = (
{
name = bottom;
pos = (485,0);
},
{
name = top;
pos = (621,700);
}
);
layerId = m005;
name = Regular;
shapes = (
{
closed = 1;
nodes = (
(212,0,l),
(365,552,l),
(346,545,l),
(421,0,l),
(565,0,l),
(840,535,l),
(828,542,l),
(766,0,l),
(951,0,l),
(1014,700,l),
(751,700,l),
(513,241,l),
(553,241,l),
(487,700,l),
(229,700,l),
(21,0,l)
);
}
);
width = 1070;
},
{
anchors = (
{
name = bottom;
pos = (405,0);
},
{
name = top;
pos = (541,700);
}
);
layerId = m006;
name = Regular;
shapes = (
{
closed = 1;
nodes = (
(62,0,l),
(264,685,l),
(259,686,l),
(393,0,l),
(417,0,l),
(823,692,l),
(813,692,l),
(748,0,l),
(772,0,l),
(838,700,l),
(801,700,l),
(397,10,l),
(414,10,l),
(281,700,l),
(244,700,l),
(38,0,l)
);
}
);
width = 876;
}
);
metricLeft = H;
metricRight = H;
unicode = 77;
},
{
color = 4;
glyphname = N;
kernLeft = B;
kernRight = H;
lastChange = "2024-04-19 08:25:41 +0000";
layers = (
{
anchors = (
{
name = bottom;
pos = (390,0);
},
{
name = top;
pos = (390,700);
}
);
layerId = "99F9E815-CA06-496B-ADE7-93275C52C564";
shapes = (
{
closed = 1;
nodes = (
(653,0,l),
(227,700,l),
(129,700,l),
(559,0,l)
);
},
{
closed = 1;
nodes = (
(188,0,l),
(188,700,l),
(100,700,l),
(100,0,l)
);
},
{
closed = 1;
nodes = (
(681,0,l),
(681,700,l),
(593,700,l),
(593,0,l)
);
}
);
width = 778;
},
{
anchors = (
{
name = bottom;
pos = (397,0);
},
{
name = top;
pos = (397,700);
}
);
layerId = "D82997A7-F07B-4593-BC54-5FAA415CA6DD";
shapes = (
{
closed = 1;
nodes = (
(722,0,l),
(279,700,l),
(70,700,l),
(531,0,l)
);
},
{
closed = 1;
nodes = (
(255,0,l),
(255,700,l),
(70,700,l),
(70,0,l)
);
},
{
closed = 1;
nodes = (
(723,0,l),
(723,700,l),
(538,700,l),
(538,0,l)
);
}
);
width = 793;
},
{
anchors = (
{
name = bottom;
pos = (375,0);
},
{
name = top;
pos = (375,700);
}
);
layerId = "1D55BFB9-7388-4E46-BDEC-EEE084CDFE08";
shapes = (
{
closed = 1;
nodes = (
(631,0,l),
(143,700,l),
(114,700,l),
(603,0,l)
);
},
{
closed = 1;
nodes = (
(133,0,l),
(133,700,l),
(109,700,l),
(109,0,l)
);
},
{
closed = 1;
nodes = (
(630,0,l),
(630,700,l),
(606,700,l),
(606,0,l)
);
}
);
width = 738;
},
{
anchors = (
{
name = bottom;
pos = (343,0);
},
{
name = top;
pos = (479,700);
}
);
layerId = m004;
shapes = (
{
closed = 1;
nodes = (
(606,0,l),
(316,700,l),
(219,700,l),
(513,0,l)
);
},
{
closed = 1;
nodes = (
(141,0,l),
(277,700,l),
(187,700,l),
(51,0,l)
);
},
{
closed = 1;
nodes = (
(636,0,l),
(772,700,l),
(682,700,l),
(546,0,l)
);
}
);
width = 780;
},
{
anchors = (
{
name = bottom;
pos = (348,0);
},
{
name = top;
pos = (484,700);
}
);
layerId = m005;
shapes = (
{
closed = 1;
nodes = (
(669,0,l),
(362,700,l),
(159,700,l),
(482,0,l)
);
},
{
closed = 1;
nodes = (
(206,0,l),
(342,700,l),
(157,700,l),
(21,0,l)
);
},
{
closed = 1;
nodes = (
(674,0,l),
(810,700,l),
(625,700,l),
(489,0,l)
);
}
);
width = 793;
},
{
anchors = (
{
name = bottom;
pos = (307,0);
},
{
name = top;
pos = (443,700);
}
);
layerId = m006;
shapes = (
{
closed = 1;
nodes = (
(563,0,l),
(211,700,l),
(182,700,l),
(535,0,l)
);
},
{
closed = 1;
nodes = (
(65,0,l),
(201,700,l),
(177,700,l),
(41,0,l)
);
},
{
closed = 1;
nodes = (
(562,0,l),
(698,700,l),
(674,700,l),
(538,0,l)
);
}
);
width = 738;
}
);
unicode = 78;
},
{
color = 3;
glyphname = O;
kernLeft = C;
kernRight = G.ss07;
lastChange = "2024-04-19 08:25:41 +0000";
layers = (
{
anchors = (
{
name = bottom;
pos = (386,0);
},
{
name = center;
pos = (386,350);
},
{
name = ogonek;
pos = (689,10);
},
{
name = top;
pos = (386,700);
},
{
name = topleft;
pos = (27,700);
},
{
name = topright;
pos = (745,700);
}
);
layerId = "99F9E815-CA06-496B-ADE7-93275C52C564";
shapes = (
{
closed = 1;
nodes = (
(581,-14,o),
(717,131,o),
(717,350,cs),
(717,569,o),
(581,714,o),
(386,714,cs),
(191,714,o),
(54,569,o),
(54,350,cs),
(54,131,o),
(191,-14,o),
(386,-14,cs)
);
},
{
closed = 1;
nodes = (
(245,60,o),
(146,174,o),
(146,350,cs),
(146,526,o),
(245,640,o),
(386,640,cs),
(527,640,o),
(625,526,o),
(625,350,cs),
(625,174,o),
(527,60,o),
(386,60,cs)
);
}
);
width = 772;
},
{
anchors = (
{
name = bottom;
pos = (395,0);
},
{
name = center;
pos = (395,350);
},
{
name = ogonek;
pos = (704,10);
},
{
name = top;
pos = (395,700);
},
{
name = topleft;
pos = (27,700);
},
{
name = topright;
pos = (762,700);
}
);
layerId = "D82997A7-F07B-4593-BC54-5FAA415CA6DD";
name = Regular;
shapes = (
{
closed = 1;
nodes = (
(613,-14,o),
(750,126,o),
(750,350,cs),
(750,574,o),
(613,714,o),
(395,714,cs),
(176,714,o),
(39,574,o),
(39,350,cs),
(39,126,o),
(176,-14,o),
(395,-14,cs)
);
},
{
closed = 1;
nodes = (
(288,139,o),
(229,214,o),
(229,350,cs),
(229,486,o),
(288,561,o),
(395,561,cs),
(501,561,o),
(560,486,o),
(560,350,cs),
(560,214,o),
(501,139,o),
(395,139,cs)
);
}
);
width = 789;
},
{
anchors = (
{
name = bottom;
pos = (370,0);
},
{
name = center;
pos = (370,350);
},
{
name = ogonek;
pos = (665,10);
},
{
name = top;
pos = (370,700);
},
{
name = topleft;
pos = (20,700);
},
{
name = topright;
pos = (720,700);
}
);
layerId = "1D55BFB9-7388-4E46-BDEC-EEE084CDFE08";
name = Regular;
shapes = (
{
closed = 1;
nodes = (
(552,-10,o),
(682,139,o),
(682,350,cs),
(682,561,o),
(552,710,o),
(370,710,cs),
(188,710,o),
(58,561,o),
(58,350,cs),
(58,139,o),
(188,-10,o),
(370,-10,cs)
);
},
{
closed = 1;
nodes = (
(203,12,o),
(83,152,o),
(83,350,cs),
(83,547,o),
(203,688,o),
(370,688,cs),
(538,688,o),
(657,548,o),
(657,350,cs),
(657,151,o),
(538,12,o),
(370,12,cs)
);
}
);
width = 740;
},
{
anchors = (
{
name = bottom;
pos = (342,0);
},
{
name = center;
pos = (410,350);
},
{
name = ogonek;
pos = (647,10);
},
{
name = top;
pos = (478,700);
},
{
name = topleft;
pos = (119,700);
},
{
name = topright;
pos = (837,700);
}
);
background = {
anchors = (
{
name = bottom;
pos = (382,0);
},
{
name = center;
pos = (382,350);
},
{
name = ogonek;
pos = (685,10);
},
{
name = top;
pos = (382,700);
},
{
name = topleft;
pos = (23,700);
},
{
name = topright;
pos = (741,700);
}
);
shapes = (
{
closed = 1;
nodes = (
(527,-14,o),
(691,131,o),
(733,350,cs),
(739,382,o),
(742,412,o),
(742,440,cs),
(742,608,o),
(639,714,o),
(472,714,cs),
(277,714,o),
(112,569,o),
(70,350,cs),
(64,319,o),
(61,289,o),
(61,260,cs),
(61,92,o),
(165,-14,o),
(332,-14,cs)
);
},
{
closed = 1;
nodes = (
(228,60,o),
(154,141,o),
(154,272,cs),
(154,296,o),
(157,322,o),
(162,350,cs),
(196,526,o),
(317,640,o),
(458,640,cs),
(576,640,o),
(649,560,o),
(649,429,cs),
(649,405,o),
(646,378,o),
(641,350,cs),
(607,174,o),
(488,60,o),
(347,60,cs)
);
}
);
};
layerId = m004;
name = Italic;
shapes = (
{
closed = 1;
nodes = (
(575,-14,o),
(749,180,o),
(749,416,cs),
(749,598,o),
(646,714,o),
(468,714,cs),
(208,714,o),
(68,467,o),
(68,273,cs),
(68,103,o),
(175,-14,o),
(350,-14,cs)
);
},
{
closed = 1;
nodes = (
(230,60,o),
(161,148,o),
(161,276,cs),
(161,434,o),
(267,640,o),
(460,640,cs),
(587,640,o),
(656,551,o),
(656,421,cs),
(656,261,o),
(552,60,o),
(358,60,cs)
);
}
);
width = 779;
},
{
anchors = (
{
name = bottom;
pos = (395,0);
},
{
name = center;
pos = (463,350);
},
{
name = ogonek;
pos = (706,10);
},
{
name = top;
pos = (531,700);
},
{
name = topleft;
pos = (163,700);
},
{
name = topright;
pos = (898,700);
}
);
associatedMasterId = m005;
background = {
anchors = (
{
name = bottom;
pos = (395,0);
},
{
name = center;
pos = (463,350);
},
{
name = ogonek;
pos = (706,10);
},
{
name = top;
pos = (531,700);
},
{
name = topleft;
pos = (163,700);
},
{
name = topright;
pos = (898,700);
}
);
shapes = (
{
closed = 1;
nodes = (
(370,-14,o),
(388,-15,o),
(406,-15,cs),
(594,-15,o),
(733,106,o),
(772,309,cs),
(778,341,o),
(781,371,o),
(781,400,cs),
(781,573,o),
(675,690,o),
(492,712,cs),
(474,714,o),
(456,715,o),
(438,715,cs),
(249,715,o),
(110,594,o),
(71,391,cs),
(65,359,o),
(62,329,o),
(62,300,cs),
(62,127,o),
(168,10,o),
(352,-12,cs)
);
},
{
closed = 1;
nodes = (
(296,151,o),
(251,206,o),
(251,299,cs),
(251,320,o),
(253,344,o),
(258,369,cs),
(283,494,o),
(346,561,o),
(439,561,cs),
(446,561,o),
(454,561,o),
(462,560,cs),
(547,550,o),
(592,495,o),
(592,403,cs),
(592,381,o),
(589,357,o),
(584,331,cs),
(560,206,o),
(497,139,o),
(405,139,cs),
(398,139,o),
(390,139,o),
(382,140,cs)
);
}
);
};
layerId = "761BA6C0-32E4-4ED9-8D99-EE668374CC38";
name = "Mar 29, 24 at 17:52";
shapes = (
{
closed = 1;
nodes = (
(280,-15,o),
(413,-15,cs),
(693,-15,o),
(781,248,o),
(781,406,cs),
(781,654,o),
(565,715,o),
(431,715,cs),
(153,715,o),
(62,455,o),
(62,294,cs),
(62,45,o)
);
},
{
closed = 1;
nodes = (
(251,161,o),
(251,296,cs),
(251,370,o),
(281,561,o),
(439,561,cs),
(494,561,o),
(592,538,o),
(592,407,cs),
(592,335,o),
(563,139,o),
(404,139,cs),
(351,139,o)
);
}
);
width = 789;
},
{
anchors = (
{
name = bottom;
pos = (395,0);
},
{
name = center;
pos = (395,350);
},
{
name = ogonek;
pos = (704,10);
},
{
name = top;
pos = (395,700);
},
{
name = topleft;
pos = (27,700);
},
{
name = topright;
pos = (762,700);
}
);
associatedMasterId = m005;
background = {
anchors = (
{
name = bottom;
pos = (395,0);
},
{
name = center;
pos = (395,350);
},
{
name = ogonek;
pos = (704,10);
},
{
name = top;
pos = (395,700);
},
{
name = topleft;
pos = (27,700);
},
{
name = topright;
pos = (762,700);
}
);
shapes = (
{
closed = 1;
nodes = (
(561,-14,o),
(725,126,o),
(768,350,cs),
(774,382,o),
(777,413,o),
(777,441,cs),
(777,611,o),
(670,714,o),
(483,714,cs),
(264,714,o),
(100,574,o),
(57,350,cs),
(51,318,o),
(48,287,o),
(48,259,cs),
(48,89,o),
(155,-14,o),
(343,-14,cs)
);
},
{
closed = 1;
nodes = (
(286,139,o),
(240,189,o),
(240,281,cs),
(240,302,o),
(242,325,o),
(247,350,cs),
(273,486,o),
(347,561,o),
(454,561,cs),
(540,561,o),
(585,512,o),
(585,420,cs),
(585,399,o),
(583,376,o),
(578,350,cs),
(552,214,o),
(479,139,o),
(373,139,cs)
);
}
);
};
layerId = "7C1DF4F0-4B6F-413B-9DEC-4E6D93143F03";
name = "Black Italic Slanted";
shapes = (
{
closed = 1;
nodes = (
(639,-14,o),
(777,226,o),
(777,426,cs),
(777,600,o),
(673,714,o),
(473,714,cs),
(185,714,o),
(48,476,o),
(48,275,cs),
(48,101,o),
(151,-14,o),
(351,-14,cs)
);
},
{
closed = 1;
nodes = (
(283,139,o),
(240,192,o),
(240,286,cs),
(240,378,o),
(282,561,o),
(449,561,cs),
(540,561,o),
(585,507,o),
(585,416,cs),
(585,326,o),
(541,139,o),
(373,139,cs)
);
}
);
width = 789;
},
{
anchors = (
{
name = bottom;
pos = (359,-2);
},
{
name = center;
pos = (393,349);
},
{
name = ogonek;
pos = (668,-21);
},
{
name = top;
pos = (428,701);
},
{
name = topleft;
pos = (61,736);
},
{
name = topright;
pos = (793,666);
}
);
associatedMasterId = m005;
background = {
anchors = (
{
name = bottom;
pos = (359.93,-2.11);
},
{
name = center;
pos = (393.476,346.279);
},
{
name = ogonek;
pos = (668.466,-21.772);
},
{
name = top;
pos = (427.022,694.667);
},
{
name = topleft;
pos = (60.717,729.938);
},
{
name = topright;
pos = (792.333,659.492);
}
);
shapes = (
{
closed = 1;
nodes = (
(349,-16,o),
(364,-16,o),
(380,-16,cs),
(573,-16,o),
(717,106,o),
(756,311,cs),
(760,328,o),
(762,344,o),
(763,360,cs),
(764,375,o),
(765,389,o),
(765,403,cs),
(765,573,o),
(658,686,o),
(473,704,cs),
(457,706,o),
(442,706,o),
(426,706,cs),
(232,706,o),
(89,584,o),
(49,379,cs),
(45,363,o),
(43,347,o),
(42,331,cs),
(41,316,o),
(40,302,o),
(40,288,cs),
(40,118,o),
(147,4,o),
(333,-14,cs)
);
},
{
closed = 1;
nodes = (
(283,136,o),
(230,193,o),
(230,291,cs),
(230,301,o),
(231,311,o),
(232,322,cs),
(233,335,o),
(235,348,o),
(238,361,cs),
(262,486,o),
(327,554,o),
(421,554,cs),
(521,554,o),
(575,499,o),
(575,400,cs),
(575,390,o),
(574,380,o),
(573,369,cs),
(572,356,o),
(570,343,o),
(567,330,cs),
(543,204,o),
(477,136,o),
(383,136,cs)
);
}
);
};
layerId = "6DF3B4A5-E6C9-430C-9184-F588F0327AE8";
name = "Black Italic Slanted and Rotated";
shapes = (
{
closed = 1;
nodes = (
(727,-14,o),
(765,334,o),
(765,409,cs),
(765,669,o),
(537,714,o),
(427,714,cs),
(79,714,o),
(40,364,o),
(40,292,cs),
(40,32,o),
(269,-14,o),
(379,-14,cs)
);
},
{
closed = 1;
nodes = (
(283,138,o),
(230,196,o),
(230,295,cs),
(230,352,o),
(256,562,o),
(422,562,cs),
(521,562,o),
(575,506,o),
(575,407,cs),
(575,348,o),
(548,138,o),
(382,138,cs)
);
}
);
width = 789;
},
{
anchors = (
{
name = bottom;
pos = (395,0);
},
{
name = center;
pos = (395,350);
},
{
name = ogonek;
pos = (704,10);
},
{
name = top;
pos = (395,700);
},
{
name = topleft;
pos = (27,700);
},
{
name = topright;
pos = (762,700);
}
);
associatedMasterId = m005;
layerId = "1C062BE2-DB78-4E6B-8832-ED1E4B17CE5D";
name = "Mar 29, 24 at 17:55";
shapes = (
{
closed = 1;
nodes = (
(613,-14,o),
(750,126,o),
(750,350,cs),
(750,574,o),
(613,714,o),
(395,714,cs),
(176,714,o),
(39,574,o),
(39,350,cs),
(39,126,o),
(176,-14,o),
(395,-14,cs)
);
},
{
closed = 1;
nodes = (
(288,139,o),
(229,214,o),
(229,350,cs),
(229,486,o),
(288,561,o),
(395,561,cs),
(501,561,o),
(560,486,o),
(560,350,cs),
(560,214,o),
(501,139,o),
(395,139,cs)
);
}
);
width = 789;
},
{
anchors = (
{
name = bottom;
pos = (399,0);
},
{
name = center;
pos = (399,350);
},
{
name = ogonek;
pos = (708,10);
},
{
name = top;
pos = (477,700);
},
{
name = topleft;
pos = (31,700);
},
{
name = topright;
pos = (766,700);
}
);
background = {
anchors = (
{
name = bottom;
pos = (399,0);
},
{
name = center;
pos = (399,350);
},
{
name = ogonek;
pos = (708,10);
},
{
name = top;
pos = (399,700);
},
{
name = topleft;
pos = (31,700);
},
{
name = topright;
pos = (766,700);
}
);
shapes = (
{
closed = 1;
nodes = (
(565,-14,o),
(729,126,o),
(772,350,cs),
(778,382,o),
(781,413,o),
(781,441,cs),
(781,611,o),
(674,714,o),
(487,714,cs),
(268,714,o),
(104,574,o),
(61,350,cs),
(55,318,o),
(52,287,o),
(52,259,cs),
(52,89,o),
(159,-14,o),
(347,-14,cs)
);
},
{
closed = 1;
nodes = (
(290,139,o),
(244,189,o),
(244,281,cs),
(244,302,o),
(246,325,o),
(251,350,cs),
(277,486,o),
(351,561,o),
(458,561,cs),
(544,561,o),
(589,512,o),
(589,420,cs),
(589,399,o),
(587,376,o),
(582,350,cs),
(556,214,o),
(483,139,o),
(377,139,cs)
);
}
);
};
layerId = m005;
name = "Black Italic";
shapes = (
{
closed = 1;
nodes = (
(657,-14,o),
(781,227,o),
(781,423,cs),
(781,601,o),
(678,714,o),
(479,714,cs),
(190,714,o),
(52,477,o),
(52,277,cs),
(52,101,o),
(158,-14,o),
(362,-14,cs)
);
},
{
closed = 1;
nodes = (
(290,139,o),
(244,194,o),
(244,288,cs),
(244,378,o),
(286,561,o),
(453,561,cs),
(544,561,o),
(589,507,o),
(589,414,cs),
(589,326,o),
(549,139,o),
(381,139,cs)
);
}
);
width = 796;
},
{
anchors = (
{
name = bottom;
pos = (335.229,-3.902);
},
{
name = center;
pos = (368.775,344.487);
},
{
name = ogonek;
pos = (629.829,-22.222);
},
{
name = top;
pos = (402.321,692.876);
},
{
name = topleft;
pos = (53.932,726.422);
},
{
name = topright;
pos = (750.709,659.33);
}
);
associatedMasterId = m006;
background = {
anchors = (
{
name = bottom;
pos = (335.229,-3.902);
},
{
name = center;
pos = (368.775,344.487);
},
{
name = ogonek;
pos = (629.829,-22.222);
},
{
name = top;
pos = (402.321,692.876);
},
{
name = topleft;
pos = (53.932,726.422);
},
{
name = topright;
pos = (750.709,659.33);
}
);
shapes = (
{
closed = 1;
nodes = (
(321,-13,o),
(331,-13,o),
(342,-13,cs),
(510,-13,o),
(652,118,o),
(689.887,313.567,cs),
(692.955,329.376,o),
(695.208,344.903,o),
(696.672,360.109,cs),
(698,374,o),
(699,389,o),
(699,402,cs),
(699,566,o),
(603,684,o),
(448.226,698.502,cs),
(438,700,o),
(427,700,o),
(417,700,cs),
(249,700,o),
(107,569,o),
(68.76,373.375,cs),
(65.692,357.567,o),
(63.439,342.039,o),
(61.975,326.834,cs),
(61,312,o),
(60,298,o),
(60,285,cs),
(60,121,o),
(156,3,o),
(310.42,-11.559,cs)
);
},
{
closed = 1;
nodes = (
(186,9,o),
(85,123,o),
(85,286,cs),
(85,299,o),
(86,313,o),
(87.174,326.596,cs),
(88.57,341.091,o),
(90.718,355.899,o),
(93.645,370.979,cs),
(129,554,o),
(262,678,o),
(416,678,cs),
(575,678,o),
(673,563,o),
(673,401,cs),
(673,388,o),
(673,374,o),
(671.52,360.666,cs),
(670.115,346.07,o),
(667.95,331.155,o),
(665.002,315.964,cs),
(629,131,o),
(498,9,o),
(343,9,cs)
);
}
);
};
layerId = "810B0482-0D4A-40C9-8802-139D0ECFB3B7";
name = "Hairline Italic Slanted and Rotated";
shapes = (
{
closed = 1;
nodes = (
(247,-13,o),
(342,-13,cs),
(650,-13,o),
(699,343,o),
(699,402,cs),
(699,641,o),
(517,700,o),
(417,700,cs),
(107,700,o),
(60,342,o),
(60,285,cs),
(60,41,o)
);
},
{
closed = 1;
nodes = (
(186,9,o),
(85,123,o),
(85,286,cs),
(85,412,o),
(170,678,o),
(416,678,cs),
(575,678,o),
(673,563,o),
(673,401,cs),
(673,239,o),
(569,9,o),
(343,9,cs)
);
}
);
visible = 1;
width = 740;
},
{
anchors = (
{
name = bottom;
pos = (370,0);
},
{
name = center;
pos = (370,350);
},
{
name = ogonek;
pos = (665,10);
},
{
name = top;
pos = (370,700);
},
{
name = topleft;
pos = (20,700);
},
{
name = topright;
pos = (720,700);
}
);
associatedMasterId = m006;
layerId = "9EB0970E-4C02-43DA-8963-D9B8E910702F";
name = "Apr 17, 24 at 12:43";
shapes = (
{
closed = 1;
nodes = (
(552,-10,o),
(682,139,o),
(682,350,cs),
(682,561,o),
(552,710,o),
(370,710,cs),
(188,710,o),
(58,561,o),
(58,350,cs),
(58,139,o),
(188,-10,o),
(370,-10,cs)
);
},
{
closed = 1;
nodes = (
(203,12,o),
(83,152,o),
(83,350,cs),
(83,547,o),
(203,688,o),
(370,688,cs),
(538,688,o),
(657,548,o),
(657,350,cs),
(657,151,o),
(538,12,o),
(370,12,cs)
);
}
);
width = 740;
},
{
anchors = (
{
name = bottom;
pos = (324,0);
},
{
name = center;
pos = (392,350);
},
{
name = ogonek;
pos = (622,10);
},
{
name = top;
pos = (460,700);
},
{
name = topleft;
pos = (110,700);
},
{
name = topright;
pos = (810,700);
}
);
background = {
anchors = (
{
name = bottom;
pos = (370,0);
},
{
name = center;
pos = (370,350);
},
{
name = ogonek;
pos = (665,10);
},
{
name = top;
pos = (370,700);
},
{
name = topleft;
pos = (20,700);
},
{
name = topright;
pos = (720,700);
}
);
shapes = (
{
closed = 1;
nodes = (
(504,-10,o),
(663,139,o),
(703,350,cs),
(709,381,o),
(712,411,o),
(712,439,cs),
(712,602,o),
(615,710,o),
(460,710,cs),
(278,710,o),
(120,561,o),
(79,350,cs),
(73,319,o),
(70,290,o),
(70,262,cs),
(70,99,o),
(167,-10,o),
(322,-10,cs)
);
},
{
closed = 1;
nodes = (
(184,12,o),
(96,113,o),
(96,265,cs),
(96,292,o),
(98,320,o),
(104,350,cs),
(142,547,o),
(289,688,o),
(456,688,cs),
(599,688,o),
(687,587,o),
(687,435,cs),
(687,408,o),
(684,380,o),
(678,350,cs),
(640,151,o),
(494,12,o),
(326,12,cs)
);
}
);
};
layerId = m006;
name = "Hairline Italic";
shapes = (
{
closed = 1;
nodes = (
(568,-10,o),
(702,235,o),
(702,424,cs),
(702,590,o),
(603,710,o),
(436,710,cs),
(194,710,o),
(60,456,o),
(60,270,cs),
(60,108,o),
(159,-10,o),
(327,-10,cs)
);
},
{
closed = 1;
nodes = (
(175,12,o),
(86,121,o),
(86,272,cs),
(86,450,o),
(211,688,o),
(434,688,cs),
(588,688,o),
(677,575,o),
(677,424,cs),
(677,243,o),
(550,12,o),
(328,12,cs)
);
}
);
width = 740;
}
);
unicode = 79;
},
{
glyphname = OE;
lastChange = "2024-04-19 12:07:22 +0000";
layers = (
{
anchors = (
{
name = bottom;
pos = (225,0);
},
{
name = center;
pos = (225,336);
},
{
name = ogonek;
pos = (509,10);
},
{
name = top;
pos = (225,673);
},
{
name = topleft;
pos = (-110,673);
},
{
name = topright;
pos = (561,673);
}
);
layerId = "99F9E815-CA06-496B-ADE7-93275C52C564";
shapes = (
{
closed = 1;
nodes = (
(517,1,l),
(517,74,l),
(365,74,ls),
(236,74,o),
(146,182,o),
(146,350,cs),
(146,519,o),
(236,626,o),
(365,626,cs),
(517,626,l),
(517,700,l),
(365,700,ls),
(182,700,o),
(54,561,o),
(54,350,cs),
(54,141,o),
(181,1,o),
(365,1,cs)
);
},
{
alignment = -1;
pos = (408,0);
ref = E;
}
);
width = 1034;
},
{
anchors = (
{
name = bottom;
pos = (343,0);
},
{
name = center;
pos = (343,337);
},
{
name = ogonek;
pos = (648,10);
},
{
name = top;
pos = (343,673);
},
{
name = topleft;
pos = (-20,673);
},
{
name = topright;
pos = (704,673);
}
);
layerId = "D82997A7-F07B-4593-BC54-5FAA415CA6DD";
shapes = (
{
closed = 1;
nodes = (
(533,-1,l),
(533,152,l),
(391,152,ls),
(286,152,o),
(229,221,o),
(229,349,cs),
(229,477,o),
(286,546,o),
(391,546,cs),
(533,546,l),
(533,699,l),
(391,699,ls),
(174,699,o),
(39,565,o),
(39,349,cs),
(39,133,o),
(174,-1,o),
(391,-1,cs)
);
},
{
alignment = -1;
pos = (450,0);
ref = E;
}
);
width = 1133;
},
{
anchors = (
{
name = bottom;
pos = (179,0);
},
{
name = center;
pos = (179,340);
},
{
name = ogonek;
pos = (473,10);
},
{
name = top;
pos = (179,680);
},
{
name = topleft;
pos = (-170,680);
},
{
name = topright;
pos = (527,680);
}
);
layerId = "1D55BFB9-7388-4E46-BDEC-EEE084CDFE08";
shapes = (
{
closed = 1;
nodes = (
(510,0,l),
(510,22,l),
(369,22,ls),
(202,22,o),
(83,158,o),
(83,350,cs),
(83,541,o),
(202,678,o),
(369,678,cs),
(510,678,l),
(510,700,l),
(369,700,ls),
(187,700,o),
(58,555,o),
(58,350,cs),
(58,145,o),
(187,0,o),
(369,0,cs)
);
},
{
alignment = -1;
pos = (387,0);
ref = E;
}
);
width = 978;
},
{
anchors = (
{
name = bottom;
pos = (255,0);
},
{
name = center;
pos = (255,336);
},
{
name = ogonek;
pos = (539,10);
},
{
name = top;
pos = (255,673);
},
{
name = topleft;
pos = (-80,673);
},
{
name = topright;
pos = (591,673);
}
);
layerId = m004;
shapes = (
{
closed = 1;
nodes = (
(547,1,l),
(547,74,l),
(395,74,ls),
(266,74,o),
(176,182,o),
(176,350,cs),
(176,519,o),
(266,626,o),
(395,626,cs),
(547,626,l),
(547,700,l),
(395,700,ls),
(212,700,o),
(84,561,o),
(84,350,cs),
(84,141,o),
(211,1,o),
(395,1,cs)
);
},
{
alignment = -1;
pos = (438,0);
ref = E;
}
);
width = 1064;
},
{
anchors = (
{
name = bottom;
pos = (348,0);
},
{
name = center;
pos = (414,337);
},
{
name = ogonek;
pos = (655,10);
},
{
name = top;
pos = (479,673);
},
{
name = topleft;
pos = (116,673);
},
{
name = topright;
pos = (840,673);
}
);
layerId = m005;
shapes = (
{
closed = 1;
nodes = (
(486,0,l),
(514,153,l),
(375,153,ls),
(290,153,o),
(246,209,o),
(246,300,cs),
(246,402,o),
(288,547,o),
(450,547,cs),
(590,547,l),
(620,700,l),
(479,700,ls),
(184,700,o),
(56,505,o),
(56,296,cs),
(56,125,o),
(161,0,o),
(345,0,cs)
);
},
{
alignment = -1;
pos = (455,0);
ref = E;
}
);
width = 1139;
},
{
anchors = (
{
name = bottom;
pos = (198,0);
},
{
name = center;
pos = (198,340);
},
{
name = ogonek;
pos = (492,10);
},
{
name = top;
pos = (198,680);
},
{
name = topleft;
pos = (-151,680);
},
{
name = topright;
pos = (546,680);
}
);
layerId = m006;
shapes = (
{
closed = 1;
nodes = (
(529,0,l),
(529,22,l),
(388,22,ls),
(221,22,o),
(102,158,o),
(102,350,cs),
(102,541,o),
(221,678,o),
(388,678,cs),
(529,678,l),
(529,700,l),
(388,700,ls),
(206,700,o),
(77,555,o),
(77,350,cs),
(77,145,o),
(206,0,o),
(388,0,cs)
);
},
{
alignment = -1;
pos = (406,0);
ref = E;
}
);
width = 997;
}
);
metricLeft = O;
metricRight = E;
unicode = 338;
},
{
color = 3;
glyphname = P;
kernLeft = B;
kernRight = P;
lastChange = "2024-04-19 08:25:41 +0000";
layers = (
{
anchors = (
{
name = bottom;
pos = (325,0);
},
{
name = top;
pos = (325,679);
}
);
layerId = "99F9E815-CA06-496B-ADE7-93275C52C564";
name = Regular;
shapes = (
{
closed = 1;
nodes = (
(185,0,l),
(185,361,l),
(408,361,ls),
(529,361,o),
(615,431,o),
(615,530,cs),
(615,630,o),
(529,700,o),
(408,700,cs),
(97,700,l),
(97,0,l)
);
},
{
closed = 1;
nodes = (
(185,627,l),
(408,627,ls),
(478,627,o),
(524,590,o),
(524,530,cs),
(524,471,o),
(479,433,o),
(408,433,cs),
(185,433,l)
);
}
);
width = 650;
},
{
anchors = (
{
name = bottom;
pos = (346,0);
},
{
name = top;
pos = (346,652);
}
);
layerId = "D82997A7-F07B-4593-BC54-5FAA415CA6DD";
name = Regular;
shapes = (
{
closed = 1;
nodes = (
(254,0,l),
(254,304,l),
(403,304,ls),
(566,304,o),
(658,376,o),
(658,504,cs),
(658,630,o),
(566,700,o),
(402,700,cs),
(69,700,l),
(69,0,l)
);
},
{
closed = 1;
nodes = (
(254,561,l),
(402,561,ls),
(446,561,o),
(468,539,o),
(468,504,cs),
(468,466,o),
(443,447,o),
(403,447,cs),
(254,447,l)
);
}
);
width = 679;
},
{
anchors = (
{
name = bottom;
pos = (313,0);
},
{
name = top;
pos = (313,700);
}
);
layerId = "1D55BFB9-7388-4E46-BDEC-EEE084CDFE08";
name = Regular;
shapes = (
{
closed = 1;
nodes = (
(130,0,l),
(130,381,l),
(407,381,ls),
(514,381,o),
(588,442,o),
(588,541,cs),
(588,639,o),
(510,700,o),
(406,700,cs),
(106,700,l),
(106,0,l)
);
},
{
closed = 1;
nodes = (
(130,678,l),
(406,678,ls),
(496,678,o),
(563,627,o),
(563,541,cs),
(563,457,o),
(499,403,o),
(407,403,cs),
(130,403,l)
);
}
);
width = 622;
},
{
anchors = (
{
name = bottom;
pos = (328,0);
},
{
name = top;
pos = (328,679);
}
);
layerId = m004;
name = Regular;
shapes = (
{
closed = 1;
nodes = (
(140,0,l),
(210,361,l),
(433,361,ls),
(575,361,o),
(678,441,o),
(678,550,cs),
(678,641,o),
(607,700,o),
(499,700,cs),
(186,700,l),
(50,0,l)
);
},
{
closed = 1;
nodes = (
(262,626,l),
(485,626,ls),
(551,626,o),
(587,596,o),
(587,545,cs),
(587,477,o),
(525,435,o),
(447,435,cs),
(224,435,l)
);
}
);
width = 656;
},
{
anchors = (
{
name = bottom;
pos = (346,0);
},
{
name = top;
pos = (346,652);
}
);
associatedMasterId = m005;
layerId = "2EF2A230-75A6-42A1-8B22-E817B6729577";
name = "Mar 31, 24 at 09:46";
shapes = (
{
closed = 1;
nodes = (
(254,0,l),
(254,304,l),
(403,304,ls),
(566,304,o),
(658,376,o),
(658,504,cs),
(658,630,o),
(566,700,o),
(402,700,cs),
(69,700,l),
(69,0,l)
);
},
{
closed = 1;
nodes = (
(254,561,l),
(402,561,ls),
(446,561,o),
(468,539,o),
(468,504,cs),
(468,466,o),
(443,447,o),
(403,447,cs),
(254,447,l)
);
}
);
width = 679;
},
{
anchors = (
{
name = bottom;
pos = (334,0);
},
{
name = top;
pos = (461,652);
}
);
layerId = m005;
name = "Black Italic";
shapes = (
{
closed = 1;
nodes = (
(209,0,l),
(268,304,l),
(423,304,ls),
(587,304,o),
(710,370,o),
(710,517,cs),
(710,639,o),
(624,700,o),
(490,700,cs),
(158,700,l),
(20,0,l)
);
},
{
closed = 1;
nodes = (
(318,560,l),
(462,560,ls),
(499,560,o),
(519,541,o),
(519,507,cs),
(519,470,o),
(493,446,o),
(443,446,cs),
(296,446,l)
);
}
);
width = 684;
},
{
anchors = (
{
name = bottom;
pos = (279.123,-5.29);
},
{
name = top;
pos = (346.215,691.488);
}
);
associatedMasterId = m006;
layerId = "DE187DCA-39BE-4DD9-B539-E7AEC13B43A7";
name = "Hairline Italic Slanted and Rotated";
shapes = (
{
closed = 1;
nodes = (
(74.071,14.455,l),
(146.993,390.195,l),
(422.718,363.646,ls),
(535.349,352.801,o),
(625.531,412.649,o),
(635.946,520.811,cs),
(644.387,608.481,o),
(580.22,668.956,o),
(482.778,678.338,cs),
(184.159,707.092,l),
(50.181,16.755,l)
);
},
{
closed = 1;
nodes = (
(203.838,683.095,l),
(478.567,656.642,ls),
(562.801,648.531,o),
(618.164,597.903,o),
(610.796,521.381,cs),
(601.916,429.161,o),
(523.771,376.017,o),
(426.929,385.342,cs),
(151.204,411.892,l)
);
}
);
width = 622;
},
{
anchors = (
{
name = bottom;
pos = (313,0);
},
{
name = top;
pos = (313,700);
}
);
associatedMasterId = m006;
layerId = "782B1F72-723A-4341-B2E9-A7B9D1B154E0";
name = "Apr 18, 24 at 10:17";
shapes = (
{
closed = 1;
nodes = (
(130,0,l),
(130,381,l),
(407,381,ls),
(514,381,o),
(588,442,o),
(588,541,cs),
(588,639,o),
(510,700,o),
(406,700,cs),
(106,700,l),
(106,0,l)
);
},
{
closed = 1;
nodes = (
(130,678,l),
(406,678,ls),
(496,678,o),
(563,627,o),
(563,541,cs),
(563,457,o),
(499,403,o),
(407,403,cs),
(130,403,l)
);
}
);
width = 622;
},
{
anchors = (
{
name = bottom;
pos = (313,0);
},
{
name = top;
pos = (313,700);
}
);
layerId = m006;
name = "Hairline Italic";
shapes = (
{
closed = 1;
nodes = (
(84,0,l),
(157,381,l),
(434,381,ls),
(555,381,o),
(649,456,o),
(649,563,cs),
(649,648,o),
(586,700,o),
(494,700,cs),
(194,700,l),
(60,0,l)
);
},
{
closed = 1;
nodes = (
(214,678,l),
(490,678,ls),
(572,678,o),
(624,633,o),
(624,562,cs),
(624,480,o),
(553,403,o),
(438,403,cs),
(161,403,l)
);
}
);
width = 622;
}
);
unicode = 80;
},
{
glyphname = Thorn;
lastChange = "2024-04-19 08:23:20 +0000";
layers = (
{
anchors = (
{
name = bottom;
pos = (325,0);
},
{
name = top;
pos = (325,700);
}
);
layerId = "99F9E815-CA06-496B-ADE7-93275C52C564";
shapes = (
{
closed = 1;
nodes = (
(185,0,l),
(185,187,l),
(405,187,ls),
(535,187,o),
(616,250,o),
(616,359,cs),
(616,472,o),
(530,534,o),
(395,534,cs),
(185,534,l),
(185,700,l),
(97,700,l),
(97,0,l)
);
},
{
closed = 1;
nodes = (
(185,461,l),
(404,461,ls),
(483,461,o),
(524,424,o),
(524,360,cs),
(524,299,o),
(485,260,o),
(411,260,cs),
(185,260,l)
);
}
);
width = 650;
},
{
anchors = (
{
name = bottom;
pos = (340,0);
},
{
name = top;
pos = (340,700);
}
);
layerId = "D82997A7-F07B-4593-BC54-5FAA415CA6DD";
shapes = (
{
closed = 1;
nodes = (
(254,0,l),
(254,172,l),
(403,172,ls),
(566,172,o),
(658,244,o),
(658,372,cs),
(658,498,o),
(566,568,o),
(402,568,cs),
(254,568,l),
(254,700,l),
(69,700,l),
(69,0,l)
);
},
{
closed = 1;
nodes = (
(254,429,l),
(402,429,ls),
(446,429,o),
(468,407,o),
(468,372,cs),
(468,334,o),
(443,315,o),
(403,315,cs),
(254,315,l)
);
}
);
width = 679;
},
{
anchors = (
{
name = bottom;
pos = (311,0);
},
{
name = top;
pos = (311,700);
}
);
layerId = "1D55BFB9-7388-4E46-BDEC-EEE084CDFE08";
shapes = (
{
closed = 1;
nodes = (
(130,0,l),
(130,190,l),
(407,190,ls),
(514,190,o),
(588,251,o),
(588,350,cs),
(588,448,o),
(510,509,o),
(406,509,cs),
(130,509,l),
(130,700,l),
(106,700,l),
(106,0,l)
);
},
{
closed = 1;
nodes = (
(130,487,l),
(406,487,ls),
(496,487,o),
(563,436,o),
(563,350,cs),
(563,266,o),
(499,212,o),
(407,212,cs),
(130,212,l)
);
}
);
width = 622;
},
{
anchors = (
{
name = bottom;
pos = (281,0);
},
{
name = top;
pos = (417,700);
}
);
layerId = m004;
shapes = (
{
closed = 1;
nodes = (
(141,0,l),
(178,193,l),
(401,193,ls),
(543,193,o),
(646,273,o),
(646,382,cs),
(646,473,o),
(575,532,o),
(467,532,cs),
(241,532,l),
(274,700,l),
(186,700,l),
(51,0,l)
);
},
{
closed = 1;
nodes = (
(230,458,l),
(453,458,ls),
(519,458,o),
(555,428,o),
(555,377,cs),
(555,309,o),
(493,267,o),
(415,267,cs),
(192,267,l)
);
}
);
width = 656;
},
{
anchors = (
{
name = bottom;
pos = (325,0);
},
{
name = top;
pos = (461,700);
}
);
layerId = m005;
shapes = (
{
closed = 1;
nodes = (
(209,0,l),
(238,147,l),
(393,147,ls),
(557,147,o),
(680,213,o),
(680,360,cs),
(680,482,o),
(594,543,o),
(460,543,cs),
(313,543,l),
(344,700,l),
(159,700,l),
(20,0,l)
);
},
{
closed = 1;
nodes = (
(288,403,l),
(432,403,ls),
(469,403,o),
(489,384,o),
(489,350,cs),
(489,313,o),
(463,289,o),
(413,289,cs),
(266,289,l)
);
}
);
width = 748;
},
{
anchors = (
{
name = bottom;
pos = (311,0);
},
{
name = top;
pos = (311,700);
}
);
layerId = m006;
shapes = (
{
closed = 1;
nodes = (
(130,0,l),
(130,190,l),
(407,190,ls),
(514,190,o),
(588,251,o),
(588,350,cs),
(588,448,o),
(510,509,o),
(406,509,cs),
(130,509,l),
(130,700,l),
(106,700,l),
(106,0,l)
);
},
{
closed = 1;
nodes = (
(130,487,l),
(406,487,ls),
(496,487,o),
(563,436,o),
(563,350,cs),
(563,266,o),
(499,212,o),
(407,212,cs),
(130,212,l)
);
}
);
width = 622;
}
);
unicode = 222;
},
{
color = 3;
glyphname = Q;
kernLeft = C;
kernRight = G.ss07;
lastChange = "2024-04-19 08:25:41 +0000";
layers = (
{
anchors = (
{
name = bottom;
pos = (389,0);
},
{
name = top;
pos = (389,700);
}
);
layerId = "99F9E815-CA06-496B-ADE7-93275C52C564";
name = Regular;
shapes = (
{
closed = 1;
nodes = (
(621,-169,l),
(621,-94,l),
(525,-94,ls),
(462,-94,o),
(435,-74,o),
(435,-19,cs),
(435,23,l),
(344,23,l),
(344,-14,ls),
(344,-120,o),
(399,-169,o),
(506,-169,cs)
);
},
{
alignment = -1;
ref = O;
}
);
width = 785;
},
{
anchors = (
{
name = bottom;
pos = (397,0);
},
{
name = top;
pos = (397,700);
}
);
layerId = "D82997A7-F07B-4593-BC54-5FAA415CA6DD";
name = Regular;
shapes = (
{
closed = 1;
nodes = (
(653,-220,l),
(653,-74,l),
(560,-74,ls),
(508,-74,o),
(490,-55,o),
(490,-13,cs),
(490,44,l),
(300,44,l),
(300,-6,ls),
(300,-145,o),
(375,-220,o),
(533,-220,cs)
);
},
{
alignment = -1;
ref = O;
}
);
width = 806;
},
{
anchors = (
{
name = bottom;
pos = (373,0);
},
{
name = top;
pos = (373,700);
}
);
layerId = "1D55BFB9-7388-4E46-BDEC-EEE084CDFE08";
name = Regular;
shapes = (
{
closed = 1;
nodes = (
(573,-145,l),
(573,-123,l),
(460,-123,ls),
(393,-123,o),
(367,-96,o),
(367,-33,cs),
(367,0,l),
(342,0,l),
(342,-31,ls),
(342,-113,o),
(380,-145,o),
(453,-145,cs)
);
},
{
alignment = -1;
ref = O;
}
);
width = 743;
},
{
anchors = (
{
name = bottom;
pos = (389,0);
},
{
name = top;
pos = (661,700);
}
);
background = {
anchors = (
{
name = bottom;
pos = (382,0);
},
{
name = top;
pos = (518,700);
}
);
shapes = (
{
closed = 1;
nodes = (
(490,-182,l),
(505,-107,l),
(411,-98,ls),
(358,-93,o),
(333,-76,o),
(333,-38,cs),
(333,-31,o),
(334,-23,o),
(336,-14,cs),
(344,27,l),
(254,36,l),
(247,-1,ls),
(244,-17,o),
(242,-32,o),
(242,-46,cs),
(242,-122,o),
(288,-162,o),
(378,-171,cs)
);
},
{
alignment = -1;
ref = O;
}
);
};
layerId = m004;
name = Regular;
shapes = (
{
closed = 1;
nodes = (
(513,-169,l),
(527,-95,l),
(447,-95,ls),
(377,-95,o),
(369,-79,o),
(379,-25,cs),
(391,39,l),
(301,39,l),
(291,-25,ls),
(277,-94,o),
(280,-169,o),
(407,-169,cs)
);
},
{
alignment = -1;
ref = O;
}
);
width = 792;
},
{
anchors = (
{
name = bottom;
pos = (382,0);
},
{
name = top;
pos = (518,700);
}
);
associatedMasterId = m004;
background = {
anchors = (
{
name = bottom;
pos = (382,0);
},
{
name = top;
pos = (518,700);
}
);
shapes = (
{
closed = 1;
nodes = (
(490,-182,l),
(505,-107,l),
(411,-98,ls),
(358,-93,o),
(333,-76,o),
(333,-38,cs),
(333,-31,o),
(334,-23,o),
(336,-14,cs),
(344,27,l),
(254,36,l),
(247,-1,ls),
(244,-17,o),
(242,-32,o),
(242,-46,cs),
(242,-122,o),
(288,-162,o),
(378,-171,cs)
);
},
{
alignment = -1;
ref = O;
}
);
};
layerId = "449C107F-2493-4481-9732-DFF081ACF51D";
name = "Mar 19, 24 at 14:42";
shapes = (
{
closed = 1;
nodes = (
(530,-169,l),
(545,-95,l),
(451,-95,ls),
(397,-95,o),
(373,-68,o),
(373,-30,cs),
(373,-23,o),
(374,-15,o),
(376,-6,cs),
(384,40,l),
(294,40,l),
(287,7,ls),
(284,-9,o),
(282,-24,o),
(282,-38,cs),
(282,-114,o),
(327,-169,o),
(418,-169,cs)
);
},
{
alignment = -1;
ref = O;
}
);
width = 771;
},
{
anchors = (
{
name = bottom;
pos = (397,0);
},
{
name = top;
pos = (397,700);
}
);
layerId = m005;
name = Regular;
shapes = (
{
closed = 1;
nodes = (
(571,-220,l),
(599,-74,l),
(496,-74,ls),
(444,-74,o),
(429,-58,o),
(434,-30,cs),
(448,44,l),
(268,44,l),
(254,-40,ls),
(231,-160,o),
(287,-220,o),
(431,-220,cs)
);
},
{
alignment = -1;
ref = O;
}
);
width = 813;
},
{
anchors = (
{
name = bottom;
pos = (373,0);
},
{
name = top;
pos = (373,700);
}
);
layerId = m006;
name = Regular;
shapes = (
{
closed = 1;
nodes = (
(494,-145,l),
(498,-123,l),
(385,-123,ls),
(314,-123,o),
(295,-104,o),
(307,-44,cs),
(316,0,l),
(291,0,l),
(283,-42,ls),
(270,-111,o),
(300,-145,o),
(374,-145,cs)
);
},
{
alignment = -1;
ref = O;
}
);
width = 743;
}
);
unicode = 81;
},
{
color = 3;
glyphname = R;
lastChange = "2024-04-19 08:25:41 +0000";
layers = (
{
anchors = (
{
name = bottom;
pos = (344,0);
},
{
name = top;
pos = (344,700);
}
);
layerId = "99F9E815-CA06-496B-ADE7-93275C52C564";
shapes = (
{
closed = 1;
nodes = (
(185,0,l),
(185,362,l),
(420,362,ls),
(514,362,o),
(535,326,o),
(535,259,cs),
(535,89,ls),
(535,33,o),
(538,21,o),
(548,0,c),
(642,0,l),
(622,35,o),
(620,53,o),
(620,100,cs),
(620,278,ls),
(620,347,o),
(590,411,o),
(460,407,c),
(469,395,l),
(557,403,o),
(614,461,o),
(614,541,cs),
(614,637,o),
(531,700,o),
(406,700,cs),
(97,700,l),
(97,0,l)
);
},
{
closed = 1;
nodes = (
(185,627,l),
(403,627,ls),
(483,627,o),
(524,589,o),
(524,530,cs),
(524,470,o),
(482,435,o),
(403,435,cs),
(185,435,l)
);
}
);
width = 688;
},
{
anchors = (
{
name = bottom;
pos = (358,0);
},
{
name = top;
pos = (358,700);
}
);
layerId = "D82997A7-F07B-4593-BC54-5FAA415CA6DD";
shapes = (
{
closed = 1;
nodes = (
(254,0,l),
(254,307,l),
(392,307,ls),
(446,307,o),
(479,297,o),
(479,230,cs),
(479,85,ls),
(479,31,o),
(486,11,o),
(500,0,c),
(691,0,l),
(675,17,o),
(664,36,o),
(664,87,cs),
(664,260,ls),
(664,353,o),
(590,380,o),
(461,385,c),
(466,369,l),
(598,366,o),
(657,434,o),
(657,525,cs),
(657,632,o),
(569,700,o),
(425,700,cs),
(69,700,l),
(69,0,l)
);
},
{
closed = 1;
nodes = (
(254,561,l),
(398,561,ls),
(443,561,o),
(468,541,o),
(468,504,cs),
(468,467,o),
(443,447,o),
(398,447,cs),
(254,447,l)
);
}
);
width = 716;
},
{
anchors = (
{
name = bottom;
pos = (328,0);
},
{
name = top;
pos = (328,700);
}
);
layerId = "1D55BFB9-7388-4E46-BDEC-EEE084CDFE08";
shapes = (
{
closed = 1;
nodes = (
(130,0,l),
(130,392,l),
(382,392,ls),
(488,392,o),
(545,361,o),
(545,252,cs),
(545,85,ls),
(545,46,o),
(549,16,o),
(560,0,c),
(587,0,l),
(572,22,o),
(569,49,o),
(569,92,cs),
(568,252,ls),
(567,375,o),
(496,404,o),
(425,406,c),
(426,402,l),
(507,410,o),
(574,465,o),
(574,554,cs),
(574,640,o),
(511,700,o),
(398,700,cs),
(106,700,l),
(106,0,l)
);
},
{
closed = 1;
nodes = (
(130,678,l),
(383,678,ls),
(487,678,o),
(549,640,o),
(549,553,cs),
(549,450,o),
(461,414,o),
(367,414,cs),
(130,414,l)
);
}
);
width = 654;
},
{
anchors = (
{
name = bottom;
pos = (298,0);
},
{
name = top;
pos = (434,700);
}
);
layerId = m004;
name = Italic;
shapes = (
{
closed = 1;
nodes = (
(140,0,l),
(209,362,l),
(444,362,ls),
(534,362,o),
(554,331,o),
(540,259,cs),
(511,105,ls),
(503,63,o),
(498,27,o),
(503,0,c),
(594,0,l),
(583,35,o),
(586,63,o),
(594,105,cs),
(625,278,ls),
(642,373,o),
(597,405,o),
(493,402,c),
(500,390,l),
(608,400,o),
(676,469,o),
(676,554,cs),
(676,635,o),
(614,700,o),
(495,700,cs),
(186,700,l),
(52,0,l)
);
},
{
closed = 1;
nodes = (
(260,627,l),
(478,627,ls),
(547,627,o),
(583,598,o),
(583,545,cs),
(583,475,o),
(522,435,o),
(442,435,cs),
(224,435,l)
);
}
);
width = 690;
},
{
anchors = (
{
name = bottom;
pos = (363,0);
},
{
name = top;
pos = (406,700);
}
);
background = {
anchors = (
{
name = bottom;
pos = (363,0);
},
{
name = top;
pos = (363,700);
}
);
shapes = (
{
closed = 1;
nodes = (
(210,0,l),
(269,307,l),
(395,307,ls),
(449,307,o),
(483,298,o),
(483,244,cs),
(483,234,o),
(482,223,o),
(479,209,cs),
(459,103,ls),
(454,74,o),
(451,52,o),
(451,35,cs),
(451,18,o),
(454,7,o),
(457,0,c),
(650,0,l),
(641,12,o),
(636,32,o),
(636,60,cs),
(636,74,o),
(637,91,o),
(641,111,cs),
(669,253,ls),
(671,262,o),
(671,270,o),
(671,277,cs),
(671,353,o),
(594,375,o),
(516,380,c),
(508,359,l),
(616,367,o),
(695,428,o),
(713,522,cs),
(715,534,o),
(716,545,o),
(716,556,cs),
(716,645,o),
(642,700,o),
(515,700,cs),
(159,700,l),
(25,0,l)
);
},
{
closed = 1;
nodes = (
(318,561,l),
(462,561,ls),
(501,561,o),
(522,546,o),
(522,517,cs),
(522,513,o),
(522,509,o),
(521,504,cs),
(514,467,o),
(485,447,o),
(440,447,cs),
(296,447,l)
);
}
);
};
layerId = m005;
name = "Black Italic";
shapes = (
{
closed = 1;
nodes = (
(210,0,l),
(269,307,l),
(390,307,ls),
(485,307,o),
(484,261,o),
(474,209,cs),
(451,93,ls),
(445,64,o),
(440,24,o),
(452,0,c),
(650,0,l),
(631,24,o),
(634,74,o),
(639,101,cs),
(667,243,ls),
(690,360,o),
(589,372,o),
(497,377,c),
(489,357,l),
(661,371,o),
(710,465,o),
(710,542,cs),
(710,638,o),
(634,700,o),
(515,700,cs),
(156,700,l),
(22,0,l)
);
},
{
closed = 1;
nodes = (
(318,561,l),
(459,561,ls),
(495,561,o),
(519,545,o),
(519,509,cs),
(519,466,o),
(485,447,o),
(437,447,cs),
(296,447,l)
);
}
);
width = 721;
},
{
anchors = (
{
name = bottom;
pos = (358,0);
},
{
name = top;
pos = (358,700);
}
);
associatedMasterId = "D82997A7-F07B-4593-BC54-5FAA415CA6DD";
layerId = "2AEAC383-5935-43A9-99BE-813FD88533D7";
name = "Apr 9, 24 at 12:13";
shapes = (
{
closed = 1;
nodes = (
(254,0,l),
(254,307,l),
(380,307,ls),
(444,307,o),
(483,294,o),
(483,209,cs),
(483,103,ls),
(483,45,o),
(491,14,o),
(501,0,c),
(694,0,l),
(677,19,o),
(664,54,o),
(664,111,cs),
(664,253,ls),
(664,348,o),
(584,375,o),
(467,380,c),
(463,359,l),
(602,367,o),
(657,428,o),
(657,522,cs),
(657,631,o),
(567,700,o),
(425,700,cs),
(69,700,l),
(69,0,l)
);
},
{
closed = 1;
nodes = (
(254,561,l),
(398,561,ls),
(443,561,o),
(468,541,o),
(468,504,cs),
(468,467,o),
(443,447,o),
(398,447,cs),
(254,447,l)
);
}
);
width = 716;
},
{
anchors = (
{
name = bottom;
pos = (193,0);
},
{
name = top;
pos = (329,700);
}
);
layerId = m006;
shapes = (
{
closed = 1;
nodes = (
(15,0,l),
(91,392,l),
(353,392,ls),
(452,392,o),
(500,361,o),
(478,252,cs),
(445,85,ls),
(437,44,o),
(437,16,o),
(445,0,c),
(472,0,l),
(461,22,o),
(464,49,o),
(472,92,cs),
(502,252,ls),
(525,375,o),
(461,403,o),
(389,406,c),
(389,402,l),
(500,411,o),
(570,493,o),
(570,576,cs),
(570,647,o),
(516,700,o),
(409,700,cs),
(126,700,l),
(-10,0,l)
);
},
{
closed = 1;
nodes = (
(147,678,l),
(405,678,ls),
(495,678,o),
(545,645,o),
(545,571,cs),
(545,471,o),
(451,414,o),
(332,414,cs),
(95,414,l)
);
}
);
width = 587;
},
{
anchors = (
{
name = bottom;
pos = (328,0);
},
{
name = top;
pos = (328,700);
}
);
associatedMasterId = m006;
layerId = "CE170EA8-B8C9-496B-975C-B86300F6552E";
name = "Apr 17, 24 at 14:34";
shapes = (
{
closed = 1;
nodes = (
(130,0,l),
(130,392,l),
(382,392,ls),
(488,392,o),
(545,361,o),
(545,252,cs),
(545,85,ls),
(545,46,o),
(549,16,o),
(560,0,c),
(587,0,l),
(572,22,o),
(569,49,o),
(569,92,cs),
(568,252,ls),
(567,375,o),
(496,404,o),
(425,406,c),
(426,402,l),
(507,410,o),
(574,465,o),
(574,554,cs),
(574,640,o),
(511,700,o),
(398,700,cs),
(106,700,l),
(106,0,l)
);
},
{
closed = 1;
nodes = (
(130,678,l),
(383,678,ls),
(487,678,o),
(549,640,o),
(549,553,cs),
(549,450,o),
(461,414,o),
(367,414,cs),
(130,414,l)
);
}
);
width = 654;
}
);
metricLeft = P;
unicode = 82;
},
{
color = 3;
glyphname = S;
kernLeft = S;
kernRight = S;
lastChange = "2024-04-19 08:25:41 +0000";
layers = (
{
anchors = (
{
name = bottom;
pos = (344,0);
},
{
name = top;
pos = (356,700);
}
);
layerId = "D82997A7-F07B-4593-BC54-5FAA415CA6DD";
name = Regular;
shapes = (
{
closed = 1;
nodes = (
(525,-14,o),
(657,89,o),
(657,234,cs),
(657,337,o),
(590,406,o),
(421,447,cs),
(355,463,ls),
(285,480,o),
(263,492,o),
(263,517,cs),
(263,557,o),
(318,574,o),
(360,574,cs),
(441,574,o),
(466,510,o),
(467,485,c),
(661,532,l),
(640,635,o),
(533,714,o),
(356,714,cs),
(176,714,o),
(55,632,o),
(55,504,cs),
(55,416,o),
(113,356,o),
(286,310,cs),
(373,287,ls),
(442,269,o),
(458,244,o),
(458,214,cs),
(458,165,o),
(416,133,o),
(352,133,cs),
(270,133,o),
(230,185,o),
(220,269,c),
(28,214,l),
(59,83,o),
(163,-14,o),
(341,-14,cs)
);
}
);
width = 700;
},
{
anchors = (
{
name = bottom;
pos = (328,0);
},
{
name = top;
pos = (328,700);
}
);
background = {
shapes = (
{
closed = 1;
nodes = (
(492,-13,o),
(600,84,o),
(600,214,cs),
(600,313,o),
(538,377,o),
(389,416,cs),
(324,433,ls),
(213,462,o),
(160,482,o),
(160,535,cs),
(160,595,o),
(231,640,o),
(325,640,cs),
(416,640,o),
(477,598,o),
(490,530,c),
(585,530,l),
(568,642,o),
(474,714,o),
(331,714,cs),
(187,714,o),
(68,643,o),
(68,526,cs),
(68,439,o),
(134,389,o),
(288,350,cs),
(347,335,ls),
(453,308,o),
(508,279,o),
(508,205,cs),
(508,121,o),
(438,61,o),
(333,61,cs),
(230,61,o),
(158,118,o),
(139,211,c),
(38,211,l),
(63,82,o),
(179,-13,o),
(334,-13,cs)
);
},
{
closed = 1;
nodes = (
(492,-13,o),
(600,84,o),
(600,214,cs),
(600,313,o),
(538,377,o),
(389,416,cs),
(324,433,ls),
(213,462,o),
(160,482,o),
(160,535,cs),
(160,595,o),
(231,640,o),
(325,640,cs),
(416,640,o),
(477,598,o),
(490,530,c),
(585,530,l),
(568,642,o),
(474,714,o),
(331,714,cs),
(187,714,o),
(68,643,o),
(68,526,cs),
(68,439,o),
(134,389,o),
(288,350,cs),
(347,335,ls),
(453,308,o),
(508,279,o),
(508,205,cs),
(508,121,o),
(438,61,o),
(333,61,cs),
(230,61,o),
(158,118,o),
(139,211,c),
(38,211,l),
(63,82,o),
(179,-13,o),
(334,-13,cs)
);
},
{
closed = 1;
nodes = (
(492,-13,o),
(600,84,o),
(600,214,cs),
(600,313,o),
(538,377,o),
(389,416,cs),
(324,433,ls),
(213,462,o),
(160,482,o),
(160,535,cs),
(160,595,o),
(231,640,o),
(325,640,cs),
(416,640,o),
(477,598,o),
(490,530,c),
(585,530,l),
(568,642,o),
(474,714,o),
(331,714,cs),
(187,714,o),
(68,643,o),
(68,526,cs),
(68,439,o),
(134,389,o),
(288,350,cs),
(347,335,ls),
(453,308,o),
(508,279,o),
(508,205,cs),
(508,121,o),
(438,61,o),
(333,61,cs),
(230,61,o),
(158,118,o),
(139,211,c),
(38,211,l),
(63,82,o),
(179,-13,o),
(334,-13,cs)
);
},
{
closed = 1;
nodes = (
(492,-13,o),
(600,84,o),
(600,214,cs),
(600,313,o),
(538,377,o),
(389,416,cs),
(324,433,ls),
(213,462,o),
(160,482,o),
(160,535,cs),
(160,595,o),
(231,640,o),
(325,640,cs),
(416,640,o),
(477,598,o),
(490,530,c),
(585,530,l),
(568,642,o),
(474,714,o),
(331,714,cs),
(187,714,o),
(68,643,o),
(68,526,cs),
(68,439,o),
(134,389,o),
(288,350,cs),
(347,335,ls),
(453,308,o),
(508,279,o),
(508,205,cs),
(508,121,o),
(438,61,o),
(333,61,cs),
(230,61,o),
(158,118,o),
(139,211,c),
(38,211,l),
(63,82,o),
(179,-13,o),
(334,-13,cs)
);
},
{
closed = 1;
nodes = (
(492,-13,o),
(600,84,o),
(600,214,cs),
(600,313,o),
(538,377,o),
(389,416,cs),
(324,433,ls),
(213,462,o),
(160,482,o),
(160,535,cs),
(160,595,o),
(231,640,o),
(325,640,cs),
(416,640,o),
(477,598,o),
(490,530,c),
(585,530,l),
(568,642,o),
(474,714,o),
(331,714,cs),
(187,714,o),
(68,643,o),
(68,526,cs),
(68,439,o),
(134,389,o),
(288,350,cs),
(347,335,ls),
(453,308,o),
(508,279,o),
(508,205,cs),
(508,121,o),
(438,61,o),
(333,61,cs),
(230,61,o),
(158,118,o),
(139,211,c),
(38,211,l),
(63,82,o),
(179,-13,o),
(334,-13,cs)
);
},
{
closed = 1;
nodes = (
(492,-13,o),
(600,84,o),
(600,214,cs),
(600,313,o),
(538,377,o),
(389,416,cs),
(324,433,ls),
(213,462,o),
(160,482,o),
(160,535,cs),
(160,595,o),
(231,640,o),
(325,640,cs),
(416,640,o),
(477,598,o),
(490,530,c),
(585,530,l),
(568,642,o),
(474,714,o),
(331,714,cs),
(187,714,o),
(68,643,o),
(68,526,cs),
(68,439,o),
(134,389,o),
(288,350,cs),
(347,335,ls),
(453,308,o),
(508,279,o),
(508,205,cs),
(508,121,o),
(438,61,o),
(333,61,cs),
(230,61,o),
(158,118,o),
(139,211,c),
(38,211,l),
(63,82,o),
(179,-13,o),
(334,-13,cs)
);
},
{
closed = 1;
nodes = (
(492,-13,o),
(600,84,o),
(600,214,cs),
(600,313,o),
(538,377,o),
(389,416,cs),
(324,433,ls),
(213,462,o),
(160,482,o),
(160,535,cs),
(160,595,o),
(231,640,o),
(325,640,cs),
(416,640,o),
(477,598,o),
(490,530,c),
(585,530,l),
(568,642,o),
(474,714,o),
(331,714,cs),
(187,714,o),
(68,643,o),
(68,526,cs),
(68,439,o),
(134,389,o),
(288,350,cs),
(347,335,ls),
(453,308,o),
(508,279,o),
(508,205,cs),
(508,121,o),
(438,61,o),
(333,61,cs),
(230,61,o),
(158,118,o),
(139,211,c),
(38,211,l),
(63,82,o),
(179,-13,o),
(334,-13,cs)
);
},
{
closed = 1;
nodes = (
(492,-13,o),
(600,84,o),
(600,214,cs),
(600,313,o),
(538,377,o),
(389,416,cs),
(324,433,ls),
(213,462,o),
(160,482,o),
(160,535,cs),
(160,595,o),
(231,640,o),
(325,640,cs),
(416,640,o),
(477,598,o),
(490,530,c),
(585,530,l),
(568,642,o),
(474,714,o),
(331,714,cs),
(187,714,o),
(68,643,o),
(68,526,cs),
(68,439,o),
(134,389,o),
(288,350,cs),
(347,335,ls),
(453,308,o),
(508,279,o),
(508,205,cs),
(508,121,o),
(438,61,o),
(333,61,cs),
(230,61,o),
(158,118,o),
(139,211,c),
(38,211,l),
(63,82,o),
(179,-13,o),
(334,-13,cs)
);
}
);
};
layerId = "99F9E815-CA06-496B-ADE7-93275C52C564";
name = Regular;
shapes = (
{
closed = 1;
nodes = (
(499,-13,o),
(607,84,o),
(607,214,cs),
(607,313,o),
(545,377,o),
(396,416,cs),
(331,433,ls),
(220,462,o),
(167,482,o),
(167,535,cs),
(167,595,o),
(238,640,o),
(332,640,cs),
(423,640,o),
(484,598,o),
(497,530,c),
(592,530,l),
(575,642,o),
(481,714,o),
(338,714,cs),
(194,714,o),
(75,643,o),
(75,526,cs),
(75,439,o),
(141,389,o),
(295,350,cs),
(354,335,ls),
(460,308,o),
(515,279,o),
(515,205,cs),
(515,121,o),
(445,61,o),
(340,61,cs),
(237,61,o),
(165,118,o),
(146,211,c),
(45,211,l),
(70,82,o),
(186,-13,o),
(341,-13,cs)
);
}
);
width = 655;
},
{
anchors = (
{
name = bottom;
pos = (309,0);
},
{
name = top;
pos = (309,700);
}
);
layerId = "1D55BFB9-7388-4E46-BDEC-EEE084CDFE08";
name = Regular;
shapes = (
{
closed = 1;
nodes = (
(465,-10,o),
(563,69,o),
(563,186,cs),
(563,277,o),
(504,328,o),
(373,366,cs),
(280,393,ls),
(163,427,o),
(108,471,o),
(108,541,cs),
(108,626,o),
(190,688,o),
(310,688,cs),
(416,688,o),
(488,640,o),
(511,565,c),
(538,565,l),
(516,649,o),
(433,710,o),
(311,710,cs),
(180,710,o),
(83,639,o),
(83,540,cs),
(83,462,o),
(140,407,o),
(260,372,cs),
(356,344,ls),
(493,304,o),
(538,260,o),
(538,185,cs),
(538,82,o),
(451,12,o),
(320,12,cs),
(203,12,o),
(114,68,o),
(84,178,c),
(58,178,l),
(89,54,o),
(189,-10,o),
(320,-10,cs)
);
}
);
width = 616;
},
{
anchors = (
{
name = bottom;
pos = (298,0);
},
{
name = top;
pos = (405,700);
}
);
background = {
anchors = (
{
name = bottom;
pos = (335,0);
},
{
name = top;
pos = (471,700);
}
);
shapes = (
{
closed = 1;
nodes = (
(323,-14,o),
(334,-15,o),
(346,-15,cs),
(485,-15,o),
(594,68,o),
(617,188,cs),
(620,201,o),
(621,214,o),
(621,227,cs),
(621,305,o),
(568,363,o),
(447,409,cs),
(387,432,ls),
(291,469,o),
(243,493,o),
(243,536,cs),
(243,540,o),
(243,545,o),
(244,549,cs),
(255,603,o),
(319,639,o),
(400,639,cs),
(505,639,o),
(568,590,o),
(568,515,cs),
(568,514,o),
(568,514,o),
(568,513,c),
(663,504,l),
(663,507,o),
(663,509,o),
(663,512,cs),
(663,621,o),
(585,697,o),
(447,711,cs),
(433,712,o),
(420,713,o),
(406,713,cs),
(281,713,o),
(172,655,o),
(152,549,cs),
(150,539,o),
(149,530,o),
(149,521,cs),
(149,451,o),
(207,401,o),
(335,353,cs),
(390,332,ls),
(478,299,o),
(526,269,o),
(526,211,cs),
(526,204,o),
(526,196,o),
(524,188,cs),
(509,111,o),
(441,60,o),
(349,60,cs),
(233,60,o),
(162,128,o),
(161,229,c),
(62,239,l),
(62,238,o),
(62,238,o),
(62,237,cs),
(62,107,o),
(159,2,o),
(311,-13,cs)
);
}
);
};
layerId = m004;
name = Italic;
shapes = (
{
closed = 1;
nodes = (
(486,-14,o),
(613,85,o),
(613,221,cs),
(613,316,o),
(550,368,o),
(435,410,cs),
(372,433,ls),
(268,471,o),
(225,494,o),
(225,540,cs),
(225,598,o),
(296,641,o),
(391,641,cs),
(494,641,o),
(560,593,o),
(560,521,c),
(654,521,l),
(661,651,o),
(532,714,o),
(395,714,cs),
(253,714,o),
(131,643,o),
(131,528,cs),
(131,450,o),
(186,401,o),
(320,354,cs),
(377,334,ls),
(491,294,o),
(518,257,o),
(518,208,cs),
(518,131,o),
(451,60,o),
(332,60,cs),
(218,60,o),
(142,126,o),
(142,225,c),
(42,225,l),
(42,74,o),
(184,-14,o),
(331,-14,cs)
);
}
);
width = 669;
},
{
anchors = (
{
name = bottom;
pos = (350,0);
},
{
name = top;
pos = (350,700);
}
);
associatedMasterId = m005;
background = {
anchors = (
{
name = bottom;
pos = (350,0);
},
{
name = top;
pos = (350,700);
}
);
shapes = (
{
closed = 1;
nodes = (
(537,-14,o),
(659,153,o),
(659,275,cs),
(659,357,o),
(600,414,o),
(456,448,cs),
(393,463,ls),
(230,501,o),
(336,574,o),
(418,574,cs),
(497,574,o),
(512,512,o),
(509,487,c),
(712,537,l),
(708,638,o),
(620,714,o),
(446,714,cs),
(191,714,o),
(96,567,o),
(96,470,cs),
(96,397,o),
(152,346,o),
(297,309,cs),
(380,288,ls),
(436,274,o),
(453,253,o),
(453,228,cs),
(453,183,o),
(412,133,o),
(331,133,cs),
(250,133,o),
(219,184,o),
(223,267,c),
(21,208,l),
(30,80,o),
(113,-14,o),
(289,-14,cs)
);
}
);
};
layerId = "49DAFFB8-95C3-44CD-8D3B-2233CCEF73AB";
name = "Black Italic Slanted";
shapes = (
{
closed = 1;
nodes = (
(541,-14,o),
(659,119,o),
(659,245,cs),
(659,338,o),
(595,415,o),
(456,448,cs),
(393,463,ls),
(327,479,o),
(308,496,o),
(308,515,cs),
(308,546,o),
(355,574,o),
(408,574,cs),
(491,574,o),
(510,504,o),
(511,487,c),
(712,537,l),
(698,637,o),
(608,714,o),
(418,714,cs),
(187,714,o),
(96,600,o),
(96,498,cs),
(96,420,o),
(150,346,o),
(297,309,cs),
(380,288,ls),
(436,274,o),
(453,242,o),
(453,214,cs),
(453,167,o),
(403,133,o),
(335,133,cs),
(248,133,o),
(219,190,o),
(223,257,c),
(21,208,l),
(30,82,o),
(124,-14,o),
(316,-14,cs)
);
}
);
width = 700;
},
{
anchors = (
{
name = bottom;
pos = (314.949,-1.727);
},
{
name = top;
pos = (382.041,695.051);
}
);
associatedMasterId = m005;
background = {
anchors = (
{
name = bottom;
pos = (314.949,-1.727);
},
{
name = top;
pos = (382.041,695.051);
}
);
shapes = (
{
closed = 1;
nodes = (
(224,-15,o),
(325,-15,cs),
(554,-15,o),
(648,136,o),
(648,242,cs),
(648,325,o),
(589,388,o),
(445.487,435.776,cs),
(382.662,456.895,ls),
(321,477,o),
(300,492,o),
(300,512,cs),
(300,552,o),
(350,567,o),
(392,567,cs),
(478,567,o),
(499,506,o),
(499,476,cs),
(499,474,o),
(499,472,o),
(498.74,469.829,c),
(700.421,500.64,l),
(695,673,o),
(477,707,o),
(382,707,cs),
(220,707,o),
(100,632,o),
(88,508,cs),
(87,503,o),
(87,498,o),
(87,493,cs),
(87,420,o),
(143,362,o),
(287.491,311.346,cs),
(370.071,282.298,ls),
(426,263,o),
(443,240,o),
(443,215,cs),
(443,165,o),
(399,131,o),
(337,131,cs),
(249,131,o),
(213,183,o),
(213,263,cs),
(213,268,o),
(214,272,o),
(213.756,276.252,c),
(12.343,236.373,l),
(28,21,o)
);
}
);
};
layerId = "FED61A9D-0984-4E93-AD6D-DADC166BB4FE";
name = "Black Italic Slanted and Rotated";
shapes = (
{
closed = 1;
nodes = (
(227,-15,o),
(329,-15,cs),
(552,-15,o),
(648,136,o),
(648,242,cs),
(648,327,o),
(586,389,o),
(445,436,cs),
(382,457,ls),
(319,478,o),
(300,492,o),
(300,514,cs),
(300,551,o),
(351,567,o),
(391,567,cs),
(461,567,o),
(504,519,o),
(498,470,c),
(700,501,l),
(694,674,o),
(477,707,o),
(378,707,cs),
(222,707,o),
(87,624,o),
(87,498,cs),
(87,418,o),
(141,362,o),
(287,311,cs),
(370,282,ls),
(427,262,o),
(443,240,o),
(443,212,cs),
(443,171,o),
(407,131,o),
(334,131,cs),
(251,131,o),
(213,182,o),
(213,263,cs),
(213,269,o),
(213,272,o),
(213,276,c),
(12,236,l),
(29,17,o)
);
}
);
width = 700;
},
{
anchors = (
{
name = bottom;
pos = (350,0);
},
{
name = top;
pos = (350,700);
}
);
associatedMasterId = m005;
layerId = "ED2FE1DC-6E99-4424-B05A-1E0825A0A53C";
name = "Mar 31, 24 at 10:03";
shapes = (
{
closed = 1;
nodes = (
(525,-14,o),
(659,89,o),
(659,236,cs),
(659,339,o),
(592,409,o),
(419,448,cs),
(353,463,ls),
(282,479,o),
(260,492,o),
(260,517,cs),
(260,557,o),
(315,574,o),
(357,574,cs),
(436,574,o),
(463,512,o),
(465,487,c),
(658,537,l),
(635,638,o),
(532,714,o),
(358,714,cs),
(176,714,o),
(52,631,o),
(52,503,cs),
(52,413,o),
(113,351,o),
(287,309,cs),
(374,288,ls),
(442,272,o),
(460,246,o),
(460,215,cs),
(460,167,o),
(419,133,o),
(354,133,cs),
(273,133,o),
(233,184,o),
(221,267,c),
(30,208,l),
(64,80,o),
(165,-14,o),
(341,-14,cs)
);
}
);
width = 700;
},
{
anchors = (
{
name = bottom;
pos = (330,0);
},
{
name = top;
pos = (426,700);
}
);
layerId = m005;
name = "Black Italic";
shapes = (
{
closed = 1;
nodes = (
(520,-14,o),
(655,103,o),
(655,242,cs),
(655,330,o),
(601,401,o),
(453,444,cs),
(391,462,ls),
(326,481,o),
(308,496,o),
(308,517,cs),
(308,552,o),
(356,573,o),
(402,573,cs),
(486,573,o),
(508,505,o),
(508,486,c),
(708,524,l),
(701,645,o),
(563,714,o),
(406,714,cs),
(222,714,o),
(96,621,o),
(96,500,cs),
(96,427,o),
(144,363,o),
(296,313,cs),
(378,286,ls),
(436,267,o),
(451,241,o),
(451,215,cs),
(451,170,o),
(407,132,o),
(337,132,cs),
(250,132,o),
(222,189,o),
(223,258,c),
(22,215,l),
(30,76,o),
(151,-14,o),
(324,-14,cs)
);
}
);
width = 702;
},
{
anchors = (
{
name = bottom;
pos = (309,0);
},
{
name = top;
pos = (445,700);
}
);
background = {
anchors = (
{
name = bottom;
pos = (309,0);
},
{
name = top;
pos = (445,700);
}
);
shapes = (
{
closed = 1;
nodes = (
(296,-10,o),
(308,-11,o),
(320,-11,cs),
(446,-11,o),
(541,56,o),
(562,163,cs),
(564,175,o),
(565,186,o),
(565,196,cs),
(565,268,o),
(515,316,o),
(409,360,cs),
(322,396,ls),
(225,436,o),
(179,479,o),
(179,537,cs),
(179,545,o),
(180,552,o),
(181,560,cs),
(196,636,o),
(273,688,o),
(376,688,cs),
(386,688,o),
(397,687,o),
(408,686,cs),
(513,676,o),
(575,621,o),
(583,544,c),
(610,544,l),
(604,630,o),
(534,697,o),
(414,708,cs),
(402,709,o),
(391,710,o),
(380,710,cs),
(265,710,o),
(173,650,o),
(156,561,cs),
(154,552,o),
(154,543,o),
(154,534,cs),
(154,469,o),
(200,418,o),
(298,377,cs),
(388,340,ls),
(499,294,o),
(540,252,o),
(540,193,cs),
(540,184,o),
(539,174,o),
(537,164,cs),
(519,70,o),
(435,11,o),
(323,11,cs),
(312,11,o),
(301,12,o),
(289,13,cs),
(173,24,o),
(96,89,o),
(88,202,c),
(63,202,l),
(69,76,o),
(155,3,o),
(284,-9,cs)
);
}
);
};
layerId = m006;
name = Regular;
shapes = (
{
closed = 1;
nodes = (
(456,-10,o),
(565,75,o),
(565,191,cs),
(565,269,o),
(517,320,o),
(409,360,cs),
(312,396,ls),
(217,431,o),
(179,478,o),
(179,532,cs),
(179,607,o),
(258,688,o),
(398,688,cs),
(455,688,o),
(570,672,o),
(583,554,c),
(610,554,l),
(590,691,o),
(467,710,o),
(401,710,cs),
(241,710,o),
(154,615,o),
(154,530,cs),
(154,470,o),
(195,413,o),
(297,375,cs),
(397,338,ls),
(506,298,o),
(540,249,o),
(540,189,cs),
(540,89,o),
(446,12,o),
(312,12,cs),
(246,12,o),
(110,31,o),
(94,192,c),
(69,192,l),
(86,12,o),
(238,-10,o),
(312,-10,cs)
);
}
);
width = 616;
},
{
anchors = (
{
name = bottom;
pos = (309,0);
},
{
name = top;
pos = (309,700);
}
);
associatedMasterId = m006;
layerId = "F89157C0-D521-4790-8C57-752EA867135F";
name = "Hairline Italic Slanted";
shapes = (
{
closed = 1;
nodes = (
(417,-10,o),
(530,69,o),
(553,186,cs),
(555,198,o),
(556,209,o),
(556,219,cs),
(556,290,o),
(505,333,o),
(397,366,cs),
(309,393,ls),
(212,423,o),
(164,461,o),
(164,518,cs),
(164,525,o),
(164,533,o),
(166,541,cs),
(182,626,o),
(276,688,o),
(396,688,cs),
(502,688,o),
(565,640,o),
(573,565,c),
(600,565,l),
(595,649,o),
(523,710,o),
(401,710,cs),
(258,710,o),
(138,625,o),
(138,512,cs),
(138,449,o),
(186,403,o),
(285,372,cs),
(376,344,ls),
(488,309,o),
(531,271,o),
(531,213,cs),
(531,204,o),
(530,195,o),
(528,185,cs),
(508,82,o),
(407,12,o),
(276,12,cs),
(159,12,o),
(81,68,o),
(72,178,c),
(46,178,l),
(53,54,o),
(141,-10,o),
(272,-10,cs)
);
}
);
width = 616;
},
{
anchors = (
{
name = bottom;
pos = (274.235,-3.758);
},
{
name = top;
pos = (341.327,693.019);
}
);
associatedMasterId = m006;
layerId = "3F7EEF15-83A6-40B9-8C63-2AB4EE32CC43";
name = "Hairline Italic Slanted and Rotated";
shapes = (
{
closed = 1;
nodes = (
(412.287,-27.097,o),
(530.277,49.459,o),
(542.429,175.666,cs),
(550.067,254.983,o),
(499.713,306.686,o),
(385.098,353.26,cs),
(297.694,388.801,ls),
(194.147,430.938,o),
(147.03,476.551,o),
(153.079,539.379,cs),
(161.796,629.906,o),
(258.896,688.901,o),
(384.018,676.853,cs),
(489.53,666.694,o),
(552.011,612.455,o),
(560.551,536.286,c),
(587.426,533.698,l),
(581.605,618.647,o),
(510.662,686.761,o),
(389.224,698.454,cs),
(252.633,711.606,o),
(137.858,644.392,o),
(127.643,538.31,cs),
(120.898,468.257,o),
(168.125,413.125,o),
(273.767,370.008,cs),
(363.965,333.193,ls),
(483.335,284.431,o),
(523.283,239.861,o),
(517.004,174.649,cs),
(506.335,63.851,o),
(401.83,-3.988,o),
(264.587,9.227,cs),
(148.126,20.441,o),
(70.254,84.198,o),
(61.446,195.555,c),
(35.566,198.047,l),
(42.69,72.787,o),
(129.98,0.086,o),
(260.377,-12.47,cs)
);
}
);
width = 616;
}
);
unicode = 83;
},
{
glyphname = Germandbls;
lastChange = "2024-04-19 08:23:20 +0000";
layers = (
{
anchors = (
{
name = bottom;
pos = (330,0);
},
{
name = top;
pos = (330,701);
}
);
hints = (
{
name = _corner.brush.A;
origin = (0,33);
scale = (-1,1);
type = Corner;
}
);
layerId = "99F9E815-CA06-496B-ADE7-93275C52C564";
shapes = (
{
closed = 1;
nodes = (
(177,0,l),
(177,545,ls),
(177,592,o),
(207,626,o),
(250,626,cs),
(505,626,l),
(483,659,l),
(267,449,l),
(267,383,l),
(388,383,ls),
(465,383,o),
(526,317,o),
(526,232,cs),
(526,145,o),
(461,76,o),
(379,76,cs),
(267,76,l),
(267,0,l),
(405,0,ls),
(525,0,o),
(620,102,o),
(620,231,cs),
(620,358,o),
(525,459,o),
(405,459,cs),
(328,459,l),
(350,427,l),
(580,645,l),
(580,700,l),
(231,700,ls),
(149,700,o),
(85,630,o),
(85,543,cs),
(85,0,l)
);
}
);
width = 665;
},
{
anchors = (
{
name = bottom;
pos = (299,0);
},
{
name = top;
pos = (299,744);
}
);
hints = (
{
name = _corner.brush.A;
origin = (0,33);
scale = (-1,1);
type = Corner;
}
);
layerId = "1D55BFB9-7388-4E46-BDEC-EEE084CDFE08";
shapes = (
{
closed = 1;
nodes = (
(129,0,l),
(129,560,ls),
(129,626,o),
(173,678,o),
(228,678,cs),
(516,678,l),
(509,695,l),
(256,452,l),
(256,430,l),
(358,430,ls),
(461,430,o),
(547,342,o),
(547,232,cs),
(547,115,o),
(456,22,o),
(358,22,cs),
(256,22,l),
(256,0,l),
(358,0,ls),
(468,0,o),
(572,102,o),
(572,231,cs),
(572,354,o),
(468,452,o),
(358,452,cs),
(270,452,l),
(265,430,l),
(525,679,l),
(525,700,l),
(229,700,ls),
(160,700,o),
(105,636,o),
(105,555,cs),
(105,0,l)
);
}
);
width = 630;
},
{
anchors = (
{
name = bottom;
pos = (277,0);
},
{
name = top;
pos = (413,700);
}
);
hints = (
{
name = _corner.brush.A;
origin = (0,33);
scale = (-1,1);
type = Corner;
}
);
layerId = m004;
shapes = (
{
closed = 1;
nodes = (
(133,0,l),
(244,566,ls),
(252,607,o),
(278,626,o),
(334,626,cs),
(591,626,l),
(575,651,l),
(312,453,l),
(300,381,l),
(412,381,ls),
(485,381,o),
(529,316,o),
(529,243,cs),
(529,163,o),
(476,76,o),
(351,76,cs),
(240,76,l),
(226,0,l),
(362,0,ls),
(506,0,o),
(623,107,o),
(623,248,cs),
(623,357,o),
(550,453,o),
(440,453,cs),
(374,453,l),
(389,423,l),
(668,628,l),
(678,700,l),
(334,700,ls),
(232,700,o),
(172,656,o),
(156,574,cs),
(43,0,l)
);
}
);
width = 672;
},
{
anchors = (
{
name = bottom;
pos = (323,0);
},
{
name = top;
pos = (323,701);
}
);
associatedMasterId = m004;
hints = (
{
name = _corner.brush.A;
origin = (0,33);
scale = (-1,1);
type = Corner;
}
);
layerId = "A0055B50-317F-49A8-87A5-4A4213FF1901";
name = "Mar 22, 24 at 10:50";
shapes = (
{
closed = 1;
nodes = (
(170,0,l),
(170,545,ls),
(170,589,o),
(202,624,o),
(243,624,cs),
(498,624,l),
(476,659,l),
(260,449,l),
(260,383,l),
(381,383,ls),
(458,383,o),
(519,317,o),
(519,232,cs),
(519,145,o),
(454,76,o),
(372,76,cs),
(260,76,l),
(260,0,l),
(398,0,ls),
(518,0,o),
(613,102,o),
(613,231,cs),
(613,358,o),
(518,459,o),
(398,459,cs),
(321,459,l),
(343,427,l),
(573,645,l),
(573,700,l),
(224,700,ls),
(142,700,o),
(78,630,o),
(78,543,cs),
(78,0,l)
);
}
);
width = 651;
},
{
anchors = (
{
name = bottom;
pos = (370,0);
},
{
name = top;
pos = (509,715);
}
);
hints = (
{
name = _corner.brush.A;
origin = (0,33);
scale = (-1,1);
type = Corner;
}
);
layerId = m005;
shapes = (
{
closed = 1;
nodes = (
(214,0,l),
(313,498,ls),
(319,528,o),
(335,539,o),
(353,539,cs),
(548,539,l),
(554,601,l),
(337,407,l),
(323,328,l),
(427,328,ls),
(465,328,o),
(495,293,o),
(495,247,cs),
(495,180,o),
(441,146,o),
(393,146,cs),
(287,146,l),
(259,0,l),
(438,0,ls),
(603,0,o),
(697,120,o),
(697,258,cs),
(697,365,o),
(634,446,o),
(528,446,cs),
(470,446,l),
(551,418,l),
(735,571,l),
(756,700,l),
(330,700,ls),
(224,700,o),
(141,668,o),
(120,554,cs),
(18,0,l)
);
}
);
width = 753;
},
{
anchors = (
{
name = bottom;
pos = (391,0);
},
{
name = top;
pos = (391,800);
}
);
associatedMasterId = "D82997A7-F07B-4593-BC54-5FAA415CA6DD";
hints = (
{
name = _corner.brush.A;
origin = (0,33);
scale = (-1,1);
type = Corner;
}
);
layerId = "BC1C2D22-5BDE-4A48-A166-D5D3363A0D2D";
name = "Mar 31, 24 at 10:01";
shapes = (
{
closed = 1;
nodes = (
(266,1,l),
(266,494,ls),
(266,529,o),
(279,554,o),
(299,554,cs),
(499,554,l),
(493,618,l),
(312,422,l),
(312,343,l),
(441,343,ls),
(480,343,o),
(504,305,o),
(504,250,cs),
(504,191,o),
(481,153,o),
(442,153,cs),
(312,153,l),
(312,1,l),
(495,1,ls),
(624,1,o),
(706,87,o),
(706,249,cs),
(706,408,o),
(624,491,o),
(495,491,cs),
(436,491,l),
(503,440,l),
(679,604,l),
(679,714,l),
(245,714,ls),
(136,714,o),
(67,632,o),
(67,512,cs),
(67,1,l)
);
}
);
width = 757;
},
{
anchors = (
{
name = bottom;
pos = (391,0);
},
{
name = top;
pos = (391,700);
}
);
hints = (
{
name = _corner.brush.A;
origin = (0,33);
scale = (-1,1);
type = Corner;
}
);
layerId = "D82997A7-F07B-4593-BC54-5FAA415CA6DD";
name = Black;
shapes = (
{
closed = 1;
nodes = (
(266,0,l),
(266,496,ls),
(266,523,o),
(279,540,o),
(299,540,cs),
(499,540,l),
(493,603,l),
(312,395,l),
(312,325,l),
(419,325,ls),
(463,325,o),
(504,293,o),
(504,240,cs),
(504,188,o),
(464,151,o),
(420,151,cs),
(312,151,l),
(312,0,l),
(495,0,ls),
(617,0,o),
(706,99,o),
(706,235,cs),
(706,367,o),
(621,456,o),
(495,456,cs),
(436,456,l),
(523,428,l),
(679,591,l),
(679,700,l),
(245,700,ls),
(136,700,o),
(67,628,o),
(67,517,cs),
(67,0,l)
);
}
);
width = 757;
},
{
anchors = (
{
name = bottom;
pos = (391,0);
},
{
name = top;
pos = (391,700);
}
);
associatedMasterId = m005;
hints = (
{
name = _corner.brush.A;
origin = (0,33);
scale = (-1,1);
type = Corner;
}
);
layerId = "23590CBD-F503-453A-937F-623651D72273";
name = "Mar 31, 24 at 10:03";
shapes = (
{
closed = 1;
nodes = (
(266,0,l),
(266,496,ls),
(266,523,o),
(279,540,o),
(299,540,cs),
(499,540,l),
(493,603,l),
(312,395,l),
(312,325,l),
(419,325,ls),
(463,325,o),
(504,293,o),
(504,240,cs),
(504,188,o),
(464,151,o),
(420,151,cs),
(312,151,l),
(312,0,l),
(495,0,ls),
(617,0,o),
(706,99,o),
(706,235,cs),
(706,367,o),
(621,456,o),
(495,456,cs),
(436,456,l),
(523,428,l),
(679,591,l),
(679,700,l),
(245,700,ls),
(136,700,o),
(67,628,o),
(67,517,cs),
(67,0,l)
);
}
);
width = 757;
},
{
anchors = (
{
name = bottom;
pos = (299,0);
},
{
name = top;
pos = (299,744);
}
);
hints = (
{
name = _corner.brush.A;
origin = (0,33);
scale = (-1,1);
type = Corner;
}
);
layerId = m006;
shapes = (
{
closed = 1;
nodes = (
(129,0,l),
(129,560,ls),
(129,626,o),
(173,678,o),
(228,678,cs),
(516,678,l),
(509,695,l),
(256,452,l),
(256,430,l),
(358,430,ls),
(461,430,o),
(547,342,o),
(547,232,cs),
(547,115,o),
(456,22,o),
(358,22,cs),
(256,22,l),
(256,0,l),
(358,0,ls),
(468,0,o),
(572,102,o),
(572,231,cs),
(572,354,o),
(468,452,o),
(358,452,cs),
(270,452,l),
(265,430,l),
(525,679,l),
(525,700,l),
(229,700,ls),
(160,700,o),
(105,636,o),
(105,555,cs),
(105,0,l)
);
}
);
width = 630;
}
);
unicode = 7838;
},
{
color = 4;
glyphname = T;
kernLeft = T;
kernRight = T;
lastChange = "2024-04-19 08:25:41 +0000";
layers = (
{
anchors = (
{
name = bottom;
pos = (304,0);
},
{
name = center;
pos = (304,350);
},
{
name = top;
pos = (304,700);
}
);
layerId = "99F9E815-CA06-496B-ADE7-93275C52C564";
shapes = (
{
closed = 1;
nodes = (
(347,0,l),
(347,700,l),
(259,700,l),
(259,0,l)
);
},
{
closed = 1;
nodes = (
(590,626,l),
(590,700,l),
(16,700,l),
(16,626,l)
);
}
);
width = 607;
},
{
anchors = (
{
name = bottom;
pos = (325,0);
},
{
name = center;
pos = (325,350);
},
{
name = top;
pos = (325,700);
}
);
layerId = "D82997A7-F07B-4593-BC54-5FAA415CA6DD";
shapes = (
{
closed = 1;
nodes = (
(418,0,l),
(418,700,l),
(233,700,l),
(233,0,l)
);
},
{
closed = 1;
nodes = (
(633,547,l),
(633,700,l),
(17,700,l),
(17,547,l)
);
}
);
width = 650;
},
{
anchors = (
{
name = bottom;
pos = (280,0);
},
{
name = center;
pos = (280,350);
},
{
name = top;
pos = (280,700);
}
);
layerId = "1D55BFB9-7388-4E46-BDEC-EEE084CDFE08";
shapes = (
{
closed = 1;
nodes = (
(292,0,l),
(292,700,l),
(269,700,l),
(269,0,l)
);
},
{
closed = 1;
nodes = (
(551,678,l),
(551,700,l),
(9,700,l),
(9,678,l)
);
}
);
width = 560;
},
{
anchors = (
{
name = bottom;
pos = (257,0);
},
{
name = center;
pos = (325,350);
},
{
name = top;
pos = (393,700);
}
);
layerId = m004;
shapes = (
{
closed = 1;
nodes = (
(301,0,l),
(437,700,l),
(347,700,l),
(211,0,l)
);
},
{
closed = 1;
nodes = (
(665,626,l),
(679,700,l),
(105,700,l),
(91,626,l)
);
}
);
width = 607;
},
{
anchors = (
{
name = bottom;
pos = (276,0);
},
{
name = center;
pos = (344,350);
},
{
name = top;
pos = (412,700);
}
);
layerId = m005;
shapes = (
{
closed = 1;
nodes = (
(371,0,l),
(507,700,l),
(319,700,l),
(183,0,l)
);
},
{
closed = 1;
nodes = (
(690,547,l),
(720,700,l),
(104,700,l),
(74,547,l)
);
}
);
width = 650;
},
{
anchors = (
{
name = bottom;
pos = (212,0);
},
{
name = center;
pos = (280,350);
},
{
name = top;
pos = (348,700);
}
);
layerId = m006;
shapes = (
{
closed = 1;
nodes = (
(224,0,l),
(360,700,l),
(336,700,l),
(200,0,l)
);
},
{
closed = 1;
nodes = (
(615,678,l),
(619,700,l),
(77,700,l),
(73,678,l)
);
}
);
width = 560;
}
);
unicode = 84;
},
{
color = 3;
glyphname = U;
kernLeft = U;
kernRight = U;
lastChange = "2024-04-19 08:25:41 +0000";
layers = (
{
anchors = (
{
name = bottom;
pos = (355,0);
},
{
name = ogonek;
pos = (472,10);
},
{
name = top;
pos = (355,700);
},
{
name = topright;
pos = (682,700);
}
);
layerId = "99F9E815-CA06-496B-ADE7-93275C52C564";
shapes = (
{
closed = 1;
nodes = (
(516,-14,o),
(619,92,o),
(619,251,cs),
(619,700,l),
(531,700,l),
(531,257,ls),
(531,142,o),
(463,60,o),
(355,60,cs),
(247,60,o),
(178,142,o),
(178,257,cs),
(178,700,l),
(90,700,l),
(90,251,ls),
(90,92,o),
(195,-14,o),
(356,-14,cs)
);
}
);
width = 709;
},
{
anchors = (
{
name = bottom;
pos = (370,0);
},
{
name = ogonek;
pos = (519,12);
},
{
name = top;
pos = (370,700);
},
{
name = topright;
pos = (710,700);
}
);
layerId = "D82997A7-F07B-4593-BC54-5FAA415CA6DD";
shapes = (
{
closed = 1;
nodes = (
(556,-14,o),
(676,90,o),
(676,236,cs),
(676,700,l),
(491,700,l),
(491,274,ls),
(491,184,o),
(443,139,o),
(373,139,cs),
(300,139,o),
(248,184,o),
(248,274,cs),
(248,700,l),
(63,700,l),
(63,236,ls),
(63,90,o),
(186,-14,o),
(372,-14,cs)
);
}
);
width = 739;
},
{
anchors = (
{
name = bottom;
pos = (349,0);
},
{
name = ogonek;
pos = (448,10);
},
{
name = top;
pos = (349,700);
},
{
name = topright;
pos = (676,700);
}
);
layerId = "1D55BFB9-7388-4E46-BDEC-EEE084CDFE08";
shapes = (
{
closed = 1;
nodes = (
(502,-10,o),
(599,99,o),
(599,260,cs),
(599,700,l),
(575,700,l),
(575,260,ls),
(575,112,o),
(487,12,o),
(347,12,cs),
(209,12,o),
(122,112,o),
(122,260,cs),
(122,700,l),
(98,700,l),
(98,260,ls),
(98,99,o),
(195,-10,o),
(348,-10,cs)
);
}
);
width = 697;
},
{
anchors = (
{
name = bottom;
pos = (348,0);
},
{
name = ogonek;
pos = (467,10);
},
{
name = top;
pos = (484,700);
},
{
name = topright;
pos = (811,700);
}
);
associatedMasterId = m004;
background = {
anchors = (
{
name = bottom;
pos = (348,0);
},
{
name = ogonek;
pos = (467,10);
},
{
name = top;
pos = (484,700);
},
{
name = topright;
pos = (811,700);
}
);
shapes = (
{
closed = 1;
nodes = (
(325,-14,o),
(335,-15,o),
(346,-15,cs),
(487,-15,o),
(596,79,o),
(624,226,cs),
(710,673,l),
(623,681,l),
(538,240,ls),
(517,133,o),
(443,60,o),
(346,60,cs),
(243,60,o),
(185,129,o),
(185,224,cs),
(185,240,o),
(187,257,o),
(190,274,cs),
(275,715,l),
(188,724,l),
(102,277,ls),
(98,255,o),
(96,234,o),
(96,214,cs),
(96,89,o),
(177,1,o),
(314,-13,cs)
);
}
);
};
layerId = "88B5B5B6-99D0-4A6C-951D-3A4F6E31DDB8";
name = Italify;
shapes = (
{
closed = 1;
nodes = (
(197,-14,o),
(346,-14,cs),
(487,-14,o),
(597,80,o),
(624,227,cs),
(710,700,l),
(623,700,l),
(538,241,ls),
(518,134,o),
(443,61,o),
(346,61,cs),
(224,61,o),
(166,156,o),
(190,275,cs),
(275,700,l),
(188,700,l),
(102,278,ls),
(62,84,o)
);
}
);
width = 695;
},
{
anchors = (
{
name = bottom;
pos = (348,0);
},
{
name = ogonek;
pos = (465,10);
},
{
name = top;
pos = (348,700);
},
{
name = topright;
pos = (675,700);
}
);
associatedMasterId = m004;
layerId = "383CBAEA-8F97-4BF7-9F62-9D6681FE61B8";
name = "Italic Slanted";
shapes = (
{
closed = 1;
nodes = (
(463,-14,o),
(571,82,o),
(602,233,cs),
(699,700,l),
(611,700,l),
(515,239,ls),
(492,130,o),
(415,60,o),
(312,60,cs),
(180,60,o),
(144,176,o),
(164,268,cs),
(258,700,l),
(170,700,l),
(76,274,ls),
(42,120,o),
(128,-14,o),
(309,-14,cs)
);
}
);
width = 695;
},
{
anchors = (
{
name = bottom;
pos = (348,0);
},
{
name = ogonek;
pos = (465,10);
},
{
name = top;
pos = (348,700);
},
{
name = topright;
pos = (675,700);
}
);
associatedMasterId = m004;
layerId = "8A39DA08-7757-47CA-856D-B762AD660898";
name = "Mar 19, 24 at 14:51";
shapes = (
{
closed = 1;
nodes = (
(509,-14,o),
(612,92,o),
(612,251,cs),
(612,700,l),
(524,700,l),
(524,257,ls),
(524,142,o),
(456,60,o),
(348,60,cs),
(240,60,o),
(171,142,o),
(171,257,cs),
(171,700,l),
(83,700,l),
(83,251,ls),
(83,92,o),
(188,-14,o),
(349,-14,cs)
);
}
);
width = 695;
},
{
anchors = (
{
name = bottom;
pos = (322,0);
},
{
name = ogonek;
pos = (602,10);
},
{
name = top;
pos = (458,700);
},
{
name = topright;
pos = (785,700);
}
);
background = {
anchors = (
{
name = bottom;
pos = (327,-6);
},
{
name = ogonek;
pos = (445,-8);
},
{
name = top;
pos = (394,690);
},
{
name = topright;
pos = (720,659);
}
);
shapes = (
{
closed = 1;
nodes = (
(314,-19,o),
(325,-20,o),
(336,-20,cs),
(481,-20,o),
(587,75,o),
(615,218,cs),
(701,661,l),
(614,669,l),
(529,232,ls),
(507,122,o),
(430,54,o),
(336,54,cs),
(218,54,o),
(167,140,o),
(173,233,cs),
(174,247,o),
(176,260,o),
(177,266,cs),
(262,703,l),
(175,712,l),
(89,269,ls),
(87,259,o),
(85,247,o),
(84,236,cs),
(83,226,o),
(83,216,o),
(83,207,cs),
(83,81,o),
(166,-5,o),
(302,-18,cs)
);
}
);
};
layerId = m004;
name = Italic;
shapes = (
{
closed = 1;
nodes = (
(481,-14,o),
(596,80,o),
(622,224,cs),
(709,700,l),
(621,700,l),
(536,238,ls),
(515,124,o),
(437,60,o),
(336,60,cs),
(222,60,o),
(158,142,o),
(184,272,cs),
(269,700,l),
(180,700,l),
(96,275,ls),
(62,103,o),
(169,-14,o),
(334,-14,cs)
);
}
);
visible = 1;
width = 716;
},
{
anchors = (
{
name = bottom;
pos = (333,0);
},
{
name = ogonek;
pos = (516,10);
},
{
name = top;
pos = (469,700);
},
{
name = topright;
pos = (806,700);
}
);
associatedMasterId = m005;
layerId = "9E8EE02F-E39E-481B-9B0E-D3408AFD9B53";
name = "Apr 9, 24 at 08:52";
shapes = (
{
closed = 1;
nodes = (
(542,-14,o),
(661,65,o),
(688,208,cs),
(777,700,l),
(591,700,l),
(509,264,ls),
(493,181,o),
(444,140,o),
(377,140,cs),
(291,140,o),
(256,193,o),
(274,287,cs),
(355,700,l),
(169,700,l),
(80,267,ls),
(46,91,o),
(190,-14,o),
(363,-14,cs)
);
}
);
width = 739;
},
{
anchors = (
{
name = bottom;
pos = (298.661,-0.896);
},
{
name = ogonek;
pos = (481.777,-8.482);
},
{
name = top;
pos = (501.127,682.846);
},
{
name = topright;
pos = (836.575,650.546);
}
);
associatedMasterId = m005;
background = {
anchors = (
{
name = bottom;
pos = (298.661,-0.896);
},
{
name = ogonek;
pos = (481.777,-8.482);
},
{
name = top;
pos = (501.127,682.846);
},
{
name = topright;
pos = (836.576,650.546);
}
);
shapes = (
{
closed = 1;
nodes = (
(261,-18,o),
(356,-18,cs),
(516,-18,o),
(636,69,o),
(661.362,201.271,cs),
(750.17,658.866,l),
(566.022,676.597,l),
(484.487,256.478,ls),
(469,174,o),
(419,134,o),
(356,134,cs),
(285,134,o),
(239,172,o),
(239,243,cs),
(239,254,o),
(240,267,o),
(242.606,279.768,cs),
(324.141,699.888,l),
(139.992,717.619,l),
(51.184,260.024,ls),
(48,244,o),
(47,229,o),
(47,214,cs),
(47,23,o)
);
}
);
};
layerId = "21CCBD39-48F0-4D23-989E-A5D864539222";
name = "Black Italic Slanted and Rotated";
shapes = (
{
closed = 1;
nodes = (
(261,-14,o),
(356,-14,cs),
(516,-14,o),
(637,73,o),
(661,205,cs),
(750,700,l),
(566,700,l),
(484,260,ls),
(469,178,o),
(419,138,o),
(356,138,cs),
(285,138,o),
(239,176,o),
(239,247,cs),
(239,258,o),
(240,271,o),
(243,284,cs),
(324,700,l),
(140,700,l),
(51,264,ls),
(48,248,o),
(47,233,o),
(47,218,cs),
(47,27,o)
);
}
);
width = 739;
},
{
anchors = (
{
name = bottom;
pos = (333,0);
},
{
name = ogonek;
pos = (516,10);
},
{
name = top;
pos = (469,700);
},
{
name = topright;
pos = (806,700);
}
);
associatedMasterId = m005;
layerId = "07C5E1A4-4F60-48EB-8A8F-B5233BFACE9E";
name = "Apr 9, 24 at 08:55";
shapes = (
{
closed = 1;
nodes = (
(556,-14,o),
(676,90,o),
(676,236,cs),
(676,700,l),
(491,700,l),
(491,274,ls),
(491,184,o),
(443,139,o),
(373,139,cs),
(300,139,o),
(248,184,o),
(248,274,cs),
(248,700,l),
(63,700,l),
(63,236,ls),
(63,90,o),
(186,-14,o),
(372,-14,cs)
);
}
);
width = 739;
},
{
anchors = (
{
name = bottom;
pos = (336,0);
},
{
name = ogonek;
pos = (500,8);
},
{
name = top;
pos = (465,700);
},
{
name = topright;
pos = (821,700);
}
);
layerId = m005;
name = "Black Italic";
shapes = (
{
closed = 1;
nodes = (
(533,-14,o),
(650,81,o),
(674,205,cs),
(771,700,l),
(582,700,l),
(497,260,ls),
(482,184,o),
(434,139,o),
(360,139,cs),
(263,139,o),
(245,217,o),
(258,284,cs),
(339,700,l),
(150,700,l),
(67,265,ls),
(33,85,o),
(175,-14,o),
(356,-14,cs)
);
}
);
width = 747;
},
{
anchors = (
{
name = bottom;
pos = (314.521,-7.806);
},
{
name = ogonek;
pos = (414.024,-7.341);
},
{
name = top;
pos = (381.613,688.971);
},
{
name = topright;
pos = (707.108,657.629);
}
);
associatedMasterId = m006;
background = {
anchors = (
{
name = bottom;
pos = (314.521,-7.806);
},
{
name = ogonek;
pos = (414.024,-7.341);
},
{
name = top;
pos = (381.613,688.971);
},
{
name = topright;
pos = (707.108,657.629);
}
);
shapes = (
{
closed = 1;
nodes = (
(299,-16,o),
(309,-17,o),
(319,-17,cs),
(457,-17,o),
(561,79,o),
(590.239,226.847,cs),
(674,685,l),
(651,685,l),
(566.35,229.148,ls),
(540,93,o),
(445,5,o),
(319,5,cs),
(185,5,o),
(109,88,o),
(109,209,cs),
(109,219,o),
(110,229,o),
(110.515,238.873,cs),
(111.571,249.844,o),
(113.207,261.084,o),
(115.435,272.566,cs),
(200,685,l),
(176,685,l),
(91.546,274.866,ls),
(89.177,262.66,o),
(87.437,250.703,o),
(86.312,239.022,cs),
(85,228,o),
(85,218,o),
(85,207,cs),
(85,84,o),
(159,-3,o),
(288.718,-15.368,cs)
);
}
);
};
layerId = "2634C17F-B66B-4524-B655-5FFD1BDAA5F8";
name = "Hairline Italic Slanted and Rotated";
shapes = (
{
closed = 1;
nodes = (
(457,-10,o),
(563,86,o),
(590,234,cs),
(674,700,l),
(651,700,l),
(566,236,ls),
(541,100,o),
(445,12,o),
(319,12,cs),
(158,12,o),
(85,133,o),
(115,280,cs),
(200,700,l),
(176,700,l),
(92,282,ls),
(57,106,o),
(154,-10,o),
(319,-10,cs)
);
}
);
width = 697;
},
{
anchors = (
{
name = bottom;
pos = (349,0);
},
{
name = ogonek;
pos = (448,10);
},
{
name = top;
pos = (349,700);
},
{
name = topright;
pos = (676,700);
}
);
associatedMasterId = m006;
layerId = "A4427C97-9623-48FA-A4A3-BF747A35E83B";
name = "Apr 18, 24 at 11:21";
shapes = (
{
closed = 1;
nodes = (
(502,-10,o),
(599,99,o),
(599,260,cs),
(599,700,l),
(575,700,l),
(575,260,ls),
(575,112,o),
(487,12,o),
(347,12,cs),
(209,12,o),
(122,112,o),
(122,260,cs),
(122,700,l),
(98,700,l),
(98,260,ls),
(98,99,o),
(195,-10,o),
(348,-10,cs)
);
}
);
width = 697;
},
{
anchors = (
{
name = bottom;
pos = (303,0);
},
{
name = ogonek;
pos = (446,24);
},
{
name = top;
pos = (439,700);
},
{
name = topright;
pos = (768,700);
}
);
layerId = m006;
name = "Hairline Italic";
shapes = (
{
closed = 1;
nodes = (
(454,-10,o),
(563,85,o),
(592,235,cs),
(682,700,l),
(658,700,l),
(568,236,ls),
(541,99,o),
(441,12,o),
(311,12,cs),
(136,12,o),
(96,147,o),
(122,280,cs),
(204,700,l),
(180,700,l),
(98,281,ls),
(67,125,o),
(136,-10,o),
(306,-10,cs)
);
}
);
width = 698;
}
);
unicode = 85;
},
{
color = 4;
glyphname = V;
kernLeft = V;
kernRight = V;
lastChange = "2024-04-19 08:25:41 +0000";
layers = (
{
anchors = (
{
name = bottom;
pos = (335,0);
},
{
name = top;
pos = (335,700);
}
);
layerId = "99F9E815-CA06-496B-ADE7-93275C52C564";
shapes = (
{
closed = 1;
nodes = (
(365,0,l),
(108,700,l),
(15,700,l),
(278,0,l)
);
},
{
closed = 1;
nodes = (
(397,0,l),
(655,700,l),
(562,700,l),
(308,0,l)
);
}
);
width = 668;
},
{
anchors = (
{
name = bottom;
pos = (369,0);
},
{
name = top;
pos = (369,700);
}
);
layerId = "D82997A7-F07B-4593-BC54-5FAA415CA6DD";
shapes = (
{
closed = 1;
nodes = (
(440,0,l),
(200,700,l),
(6,700,l),
(261,0,l)
);
},
{
closed = 1;
nodes = (
(487,0,l),
(735,700,l),
(543,700,l),
(309,0,l)
);
}
);
width = 737;
},
{
anchors = (
{
name = bottom;
pos = (316,0);
},
{
name = top;
pos = (316,700);
}
);
layerId = "1D55BFB9-7388-4E46-BDEC-EEE084CDFE08";
shapes = (
{
closed = 1;
nodes = (
(323,0,l),
(41,700,l),
(16,700,l),
(299,0,l)
);
},
{
closed = 1;
nodes = (
(333,0,l),
(616,700,l),
(591,700,l),
(309,0,l)
);
}
);
width = 633;
},
{
anchors = (
{
name = bottom;
pos = (283,0);
},
{
name = top;
pos = (419,700);
}
);
layerId = m004;
shapes = (
{
closed = 1;
nodes = (
(313,0,l),
(192,700,l),
(104,700,l),
(231,0,l)
);
},
{
closed = 1;
nodes = (
(350,0,l),
(744,700,l),
(646,700,l),
(256,0,l)
);
}
);
width = 668;
},
{
anchors = (
{
name = bottom;
pos = (320,0);
},
{
name = top;
pos = (456,700);
}
);
layerId = m005;
shapes = (
{
closed = 1;
nodes = (
(379,0,l),
(275,700,l),
(93,700,l),
(212,0,l)
);
},
{
closed = 1;
nodes = (
(438,0,l),
(822,700,l),
(618,700,l),
(248,0,l)
);
}
);
width = 737;
},
{
anchors = (
{
name = bottom;
pos = (248,0);
},
{
name = top;
pos = (384,700);
}
);
layerId = m006;
shapes = (
{
closed = 1;
nodes = (
(255,0,l),
(109,700,l),
(84,700,l),
(231,0,l)
);
},
{
closed = 1;
nodes = (
(265,0,l),
(684,700,l),
(658,700,l),
(239,0,l)
);
}
);
width = 633;
}
);
unicode = 86;
},
{
color = 4;
glyphname = W;
kernLeft = W;
kernRight = W;
lastChange = "2024-04-19 08:25:41 +0000";
layers = (
{
anchors = (
{
name = bottom;
pos = (488,0);
},
{
name = top;
pos = (488,700);
}
);
layerId = "99F9E815-CA06-496B-ADE7-93275C52C564";
shapes = (
{
closed = 1;
nodes = (
(744,0,l),
(546,700,l),
(460,700,l),
(662,0,l)
);
},
{
closed = 1;
nodes = (
(289,0,l),
(115,700,l),
(22,700,l),
(204,0,l)
);
},
{
closed = 1;
nodes = (
(308,0,l),
(528,700,l),
(444,700,l),
(228,0,l)
);
},
{
closed = 1;
nodes = (
(769,0,l),
(952,700,l),
(859,700,l),
(685,0,l)
);
}
);
width = 974;
},
{
anchors = (
{
name = bottom;
pos = (537,0);
},
{
name = top;
pos = (537,700);
}
);
layerId = "D82997A7-F07B-4593-BC54-5FAA415CA6DD";
shapes = (
{
closed = 1;
nodes = (
(831,0,l),
(625,700,l),
(453,700,l),
(672,0,l)
);
},
{
closed = 1;
nodes = (
(361,0,l),
(212,700,l),
(19,700,l),
(193,0,l)
);
},
{
closed = 1;
nodes = (
(404,0,l),
(624,700,l),
(451,700,l),
(245,0,l)
);
},
{
closed = 1;
nodes = (
(884,0,l),
(1056,700,l),
(863,700,l),
(714,0,l)
);
}
);
width = 1073;
},
{
anchors = (
{
name = bottom;
pos = (463,0);
},
{
name = top;
pos = (463,700);
}
);
layerId = "1D55BFB9-7388-4E46-BDEC-EEE084CDFE08";
shapes = (
{
closed = 1;
nodes = (
(693,0,l),
(473,700,l),
(449,700,l),
(669,0,l)
);
},
{
closed = 1;
nodes = (
(237,0,l),
(46,700,l),
(22,700,l),
(213,0,l)
);
},
{
closed = 1;
nodes = (
(243,0,l),
(463,700,l),
(439,700,l),
(220,0,l)
);
},
{
closed = 1;
nodes = (
(700,0,l),
(900,700,l),
(876,700,l),
(677,0,l)
);
}
);
width = 927;
},
{
anchors = (
{
name = bottom;
pos = (436,0);
},
{
name = top;
pos = (572,700);
}
);
layerId = m004;
shapes = (
{
closed = 1;
nodes = (
(692,0,l),
(630,700,l),
(544,700,l),
(610,0,l)
);
},
{
closed = 1;
nodes = (
(240,0,l),
(202,700,l),
(111,700,l),
(157,0,l)
);
},
{
closed = 1;
nodes = (
(261,0,l),
(617,700,l),
(528,700,l),
(176,0,l)
);
},
{
closed = 1;
nodes = (
(722,0,l),
(1041,700,l),
(943,700,l),
(633,0,l)
);
}
);
width = 974;
},
{
anchors = (
{
name = bottom;
pos = (496,0);
},
{
name = top;
pos = (632,700);
}
);
layerId = m005;
shapes = (
{
closed = 1;
nodes = (
(782,0,l),
(712,700,l),
(548,700,l),
(631,0,l)
);
},
{
closed = 1;
nodes = (
(304,0,l),
(291,700,l),
(106,700,l),
(144,0,l)
);
},
{
closed = 1;
nodes = (
(355,0,l),
(711,700,l),
(530,700,l),
(188,0,l)
);
},
{
closed = 1;
nodes = (
(843,0,l),
(1151,700,l),
(950,700,l),
(665,0,l)
);
}
);
width = 1081;
},
{
anchors = (
{
name = bottom;
pos = (395,0);
},
{
name = top;
pos = (531,700);
}
);
layerId = m006;
shapes = (
{
closed = 1;
nodes = (
(626,0,l),
(541,700,l),
(518,700,l),
(602,0,l)
);
},
{
closed = 1;
nodes = (
(169,0,l),
(114,700,l),
(91,700,l),
(146,0,l)
);
},
{
closed = 1;
nodes = (
(176,0,l),
(532,700,l),
(507,700,l),
(151,0,l)
);
},
{
closed = 1;
nodes = (
(633,0,l),
(969,700,l),
(944,700,l),
(609,0,l)
);
}
);
width = 927;
}
);
unicode = 87;
},
{
color = 4;
glyphname = X;
kernLeft = X;
kernRight = X;
lastChange = "2024-04-19 08:25:41 +0000";
layers = (
{
anchors = (
{
name = bottom;
pos = (310,0);
},
{
name = top;
pos = (310,700);
}
);
layerId = "99F9E815-CA06-496B-ADE7-93275C52C564";
shapes = (
{
closed = 1;
nodes = (
(93,0,l),
(297,307,l),
(501,0,l),
(607,0,l),
(347,372,l),
(581,700,l),
(475,700,l),
(295,433,l),
(116,700,l),
(10,700,l),
(245,370,l),
(-13,0,l)
);
}
);
width = 621;
},
{
anchors = (
{
name = bottom;
pos = (343,0);
},
{
name = top;
pos = (343,700);
}
);
layerId = "D82997A7-F07B-4593-BC54-5FAA415CA6DD";
shapes = (
{
closed = 1;
nodes = (
(213,0,l),
(345,238,l),
(477,0,l),
(695,0,l),
(468,350,l),
(695,700,l),
(477,700,l),
(345,462,l),
(213,700,l),
(-8,700,l),
(219,350,l),
(-8,0,l)
);
}
);
width = 685;
},
{
anchors = (
{
name = bottom;
pos = (280,0);
},
{
name = top;
pos = (280,700);
}
);
layerId = "1D55BFB9-7388-4E46-BDEC-EEE084CDFE08";
shapes = (
{
closed = 1;
nodes = (
(41,0,l),
(279,337,l),
(518,0,l),
(548,0,l),
(297,350,l),
(547,700,l),
(518,700,l),
(279,363,l),
(41,700,l),
(12,700,l),
(261,350,l),
(11,0,l)
);
}
);
width = 560;
},
{
anchors = (
{
name = bottom;
pos = (258,0);
},
{
name = top;
pos = (394,700);
}
);
layerId = m004;
shapes = (
{
closed = 1;
nodes = (
(80,0,l),
(322,288,l),
(454,0,l),
(560,0,l),
(388,350,l),
(696,700,l),
(580,700,l),
(334,411,l),
(207,700,l),
(100,700,l),
(267,350,l),
(-36,0,l)
);
}
);
width = 616;
},
{
anchors = (
{
name = bottom;
pos = (294,0);
},
{
name = top;
pos = (430,700);
}
);
layerId = m005;
shapes = (
{
closed = 1;
nodes = (
(174,0,l),
(345,229,l),
(428,0,l),
(636,0,l),
(477,350,l),
(772,700,l),
(544,700,l),
(372,471,l),
(290,700,l),
(79,700,l),
(238,350,l),
(-57,0,l)
);
}
);
width = 675;
},
{
anchors = (
{
name = bottom;
pos = (310,0);
},
{
name = top;
pos = (310,700);
}
);
associatedMasterId = "99F9E815-CA06-496B-ADE7-93275C52C564";
layerId = "20AD1A2C-AC1E-40C7-ACFB-3799571D97FD";
name = "Apr 9, 24 at 13:20";
shapes = (
{
closed = 1;
nodes = (
(343,390,l),
(123,700,l),
(11,700,l),
(246,390,l)
);
},
{
closed = 1;
nodes = (
(372,390,l),
(612,700,l),
(501,700,l),
(276,390,l)
);
},
{
closed = 1;
nodes = (
(123,0,l),
(343,390,l),
(246,390,l),
(11,0,l)
);
},
{
closed = 1;
nodes = (
(612,0,l),
(372,390,l),
(276,390,l),
(501,0,l)
);
}
);
visible = 1;
width = 621;
},
{
anchors = (
{
name = bottom;
pos = (212,0);
},
{
name = top;
pos = (348,700);
}
);
layerId = m006;
shapes = (
{
closed = 1;
nodes = (
(-26,0,l),
(277,334,l),
(450,0,l),
(478,0,l),
(295,350,l),
(615,700,l),
(583,700,l),
(277,367,l),
(107,700,l),
(80,700,l),
(259,350,l),
(-59,0,l)
);
}
);
width = 560;
}
);
unicode = 88;
},
{
color = 4;
glyphname = Y;
kernLeft = Y;
kernRight = Y;
lastChange = "2024-04-19 08:25:41 +0000";
layers = (
{
anchors = (
{
name = YenTop;
pos = (313,304);
},
{
name = bottom;
pos = (310,0);
},
{
name = top;
pos = (310,700);
},
{
name = topleft;
pos = (27,700);
}
);
layerId = "99F9E815-CA06-496B-ADE7-93275C52C564";
name = Regular;
shapes = (
{
closed = 1;
nodes = (
(355,0,l),
(355,272,l),
(604,700,l),
(505,700,l),
(295,330,l),
(332,330,l),
(116,700,l),
(15,700,l),
(267,272,l),
(267,0,l)
);
}
);
width = 619;
},
{
anchors = (
{
name = YenTop;
pos = (364,335);
},
{
name = bottom;
pos = (361,0);
},
{
name = top;
pos = (361,700);
},
{
name = topleft;
pos = (27,700);
}
);
layerId = "D82997A7-F07B-4593-BC54-5FAA415CA6DD";
name = Regular;
shapes = (
{
closed = 1;
nodes = (
(453,0,l),
(453,282,l),
(721,700,l),
(503,700,l),
(320,375,l),
(409,375,l),
(223,700,l),
(-1,700,l),
(269,282,l),
(269,0,l)
);
}
);
width = 722;
},
{
anchors = (
{
name = YenTop;
pos = (288,297);
},
{
name = bottom;
pos = (286,0);
},
{
name = top;
pos = (286,700);
},
{
name = topleft;
pos = (20,700);
}
);
layerId = "1D55BFB9-7388-4E46-BDEC-EEE084CDFE08";
name = Regular;
shapes = (
{
closed = 1;
nodes = (
(300,0,l),
(300,283,l),
(554,700,l),
(527,700,l),
(283,299,l),
(294,299,l),
(47,700,l),
(20,700,l),
(277,283,l),
(277,0,l)
);
}
);
width = 571;
},
{
anchors = (
{
name = YenTop;
pos = (318,304);
},
{
name = bottom;
pos = (256,0);
},
{
name = top;
pos = (392,700);
},
{
name = topleft;
pos = (109,700);
}
);
layerId = m004;
name = Regular;
shapes = (
{
closed = 1;
nodes = (
(303,0,l),
(361,272,l),
(693,700,l),
(587,700,l),
(307,330,l),
(341,330,l),
(198,700,l),
(104,700,l),
(273,272,l),
(215,0,l)
);
}
);
width = 619;
},
{
anchors = (
{
name = YenTop;
pos = (374,335);
},
{
name = bottom;
pos = (306,0);
},
{
name = top;
pos = (442,700);
},
{
name = topleft;
pos = (108,700);
}
);
layerId = m005;
name = Regular;
shapes = (
{
closed = 1;
nodes = (
(404,0,l),
(457,266,l),
(808,700,l),
(577,700,l),
(338,375,l),
(427,375,l),
(297,700,l),
(86,700,l),
(271,282,l),
(216,0,l)
);
}
);
width = 722;
},
{
anchors = (
{
name = YenTop;
pos = (278,297);
},
{
name = bottom;
pos = (218,0);
},
{
name = top;
pos = (356,700);
},
{
name = topleft;
pos = (88,700);
}
);
layerId = m006;
name = Regular;
shapes = (
{
closed = 1;
nodes = (
(232,0,l),
(287,283,l),
(622,700,l),
(593,700,l),
(271,299,l),
(282,299,l),
(113,700,l),
(88,700,l),
(264,283,l),
(209,0,l)
);
}
);
width = 571;
}
);
unicode = 89;
},
{
color = 4;
glyphname = Z;
kernLeft = Z;
kernRight = Z;
lastChange = "2024-04-19 08:25:41 +0000";
layers = (
{
anchors = (
{
name = bottom;
pos = (311,0);
},
{
name = center;
pos = (311,350);
},
{
name = top;
pos = (311,700);
}
);
layerId = "99F9E815-CA06-496B-ADE7-93275C52C564";
name = Regular;
shapes = (
{
closed = 1;
nodes = (
(584,0,l),
(584,74,l),
(150,74,l),
(169,40,l),
(566,700,l),
(57,700,l),
(57,626,l),
(464,626,l),
(445,660,l),
(41,0,l)
);
}
);
width = 622;
},
{
anchors = (
{
name = bottom;
pos = (334,0);
},
{
name = center;
pos = (334,350);
},
{
name = top;
pos = (334,700);
}
);
layerId = "D82997A7-F07B-4593-BC54-5FAA415CA6DD";
name = Regular;
shapes = (
{
closed = 1;
nodes = (
(634,0,l),
(634,153,l),
(251,153,l),
(295,77,l),
(620,700,l),
(53,700,l),
(53,547,l),
(426,547,l),
(384,622,l),
(38,0,l)
);
}
);
width = 667;
},
{
anchors = (
{
name = bottom;
pos = (273,0);
},
{
name = center;
pos = (273,350);
},
{
name = top;
pos = (273,700);
}
);
layerId = "1D55BFB9-7388-4E46-BDEC-EEE084CDFE08";
name = Regular;
shapes = (
{
closed = 1;
nodes = (
(515,0,l),
(515,22,l),
(61,22,l),
(66,13,l),
(481,700,l),
(32,700,l),
(32,678,l),
(450,678,l),
(445,687,l),
(31,0,l)
);
}
);
width = 544;
},
{
anchors = (
{
name = bottom;
pos = (264,0);
},
{
name = center;
pos = (332,350);
},
{
name = top;
pos = (400,700);
}
);
layerId = m004;
name = Regular;
shapes = (
{
closed = 1;
nodes = (
(537,0,l),
(551,74,l),
(117,74,l),
(135,40,l),
(655,700,l),
(146,700,l),
(132,626,l),
(539,626,l),
(521,660,l),
(-6,0,l)
);
}
);
width = 622;
},
{
anchors = (
{
name = bottom;
pos = (285,0);
},
{
name = center;
pos = (353,350);
},
{
name = top;
pos = (421,700);
}
);
layerId = m005;
name = Regular;
shapes = (
{
closed = 1;
nodes = (
(585,0,l),
(615,153,l),
(232,153,l),
(271,77,l),
(707,700,l),
(140,700,l),
(110,547,l),
(483,547,l),
(446,622,l),
(-11,0,l)
);
}
);
width = 668;
},
{
anchors = (
{
name = bottom;
pos = (205,0);
},
{
name = center;
pos = (273,350);
},
{
name = top;
pos = (341,700);
}
);
layerId = m006;
name = Regular;
shapes = (
{
closed = 1;
nodes = (
(447,0,l),
(451,22,l),
(-3,22,l),
(0,13,l),
(549,700,l),
(100,700,l),
(96,678,l),
(514,678,l),
(509,687,l),
(-39,0,l)
);
}
);
width = 544;
}
);
unicode = 90;
},
{
color = 4;
glyphname = K.ss03;
lastChange = "2024-04-19 08:23:20 +0000";
layers = (
{
anchors = (
{
name = bottom;
pos = (398,0);
},
{
name = top;
pos = (398,700);
}
);
layerId = "99F9E815-CA06-496B-ADE7-93275C52C564";
name = Regular;
shapes = (
{
closed = 1;
nodes = (
(609,0,l),
(270,389,l),
(599,700,l),
(485,695,l),
(156,394,l),
(491,0,l)
);
},
{
closed = 1;
nodes = (
(185,0,l),
(185,700,l),
(97,700,l),
(97,0,l)
);
}
);
width = 599;
},
{
anchors = (
{
name = bottom;
pos = (361,0);
},
{
name = top;
pos = (361,595);
}
);
layerId = "D82997A7-F07B-4593-BC54-5FAA415CA6DD";
name = Regular;
shapes = (
{
closed = 1;
nodes = (
(722,0,l),
(436,389,l),
(707,700,l),
(490,700,l),
(217,390,l),
(498,0,l)
);
},
{
closed = 1;
nodes = (
(248,0,l),
(248,700,l),
(70,700,l),
(70,0,l)
);
}
);
width = 716;
},
{
anchors = (
{
name = bottom;
pos = (281,0);
},
{
name = top;
pos = (281,700);
}
);
layerId = "1D55BFB9-7388-4E46-BDEC-EEE084CDFE08";
name = Regular;
shapes = (
{
closed = 1;
nodes = (
(554,0,l),
(154,394,l),
(549,700,l),
(512,700,l),
(117,396,l),
(517,0,l)
);
},
{
closed = 1;
nodes = (
(132,0,l),
(132,700,l),
(106,700,l),
(106,0,l)
);
}
);
width = 546;
},
{
anchors = (
{
name = bottom;
pos = (206,0);
},
{
name = top;
pos = (342,700);
}
);
layerId = m004;
name = Regular;
shapes = (
{
closed = 1;
nodes = (
(555,0,l),
(293,388,l),
(691,700,l),
(563,700,l),
(185,401,l),
(453,0,l)
);
},
{
closed = 1;
nodes = (
(138,0,l),
(274,700,l),
(186,700,l),
(50,0,l)
);
}
);
width = 592;
},
{
anchors = (
{
name = bottom;
pos = (391,0);
},
{
name = top;
pos = (391,700);
}
);
associatedMasterId = "99F9E815-CA06-496B-ADE7-93275C52C564";
layerId = "EB77245E-507B-4C7B-BCC4-12BD4C3F8F64";
name = "Mar 22, 24 at 11:15";
shapes = (
{
closed = 1;
nodes = (
(595,0,l),
(333,388,l),
(731,700,l),
(603,700,l),
(225,401,l),
(493,7,l)
);
},
{
closed = 1;
nodes = (
(178,0,l),
(314,700,l),
(226,700,l),
(90,0,l)
);
}
);
width = 714;
},
{
anchors = (
{
name = bottom;
pos = (322,0);
},
{
name = top;
pos = (438,595);
}
);
layerId = m005;
name = Regular;
shapes = (
{
closed = 1;
nodes = (
(685,0,l),
(465,369,l),
(823,700,l),
(579,700,l),
(256,390,l),
(469,0,l)
);
},
{
closed = 1;
nodes = (
(209,0,l),
(345,700,l),
(157,700,l),
(21,0,l)
);
}
);
width = 730;
},
{
anchors = (
{
name = bottom;
pos = (213,0);
},
{
name = top;
pos = (349,700);
}
);
layerId = m006;
name = Regular;
shapes = (
{
closed = 1;
nodes = (
(486,0,l),
(168,394,l),
(623,700,l),
(581,700,l),
(132,398,l),
(454,0,l)
);
},
{
closed = 1;
nodes = (
(62,0,l),
(198,700,l),
(174,700,l),
(38,0,l)
);
}
);
width = 546;
}
);
metricLeft = K;
metricRight = K;
},
{
glyphname = R.ss03;
kernLeft = H;
kernRight = R;
lastChange = "2024-04-19 08:23:20 +0000";
layers = (
{
anchors = (
{
name = bottom;
pos = (347,0);
},
{
name = top;
pos = (347,700);
}
);
layerId = "99F9E815-CA06-496B-ADE7-93275C52C564";
shapes = (
{
closed = 1;
nodes = (
(624,0,l),
(270,382,l),
(158,382,l),
(505,0,l)
);
},
{
alignment = -1;
ref = P;
}
);
width = 663;
},
{
anchors = (
{
name = bottom;
pos = (352,0);
},
{
name = top;
pos = (352,700);
}
);
layerId = "D82997A7-F07B-4593-BC54-5FAA415CA6DD";
shapes = (
{
closed = 1;
nodes = (
(724,0,l),
(425,352,l),
(220,352,l),
(489,0,l)
);
},
{
alignment = -1;
ref = P;
}
);
width = 746;
},
{
anchors = (
{
name = bottom;
pos = (335,0);
},
{
name = top;
pos = (335,700);
}
);
layerId = "1D55BFB9-7388-4E46-BDEC-EEE084CDFE08";
shapes = (
{
closed = 1;
nodes = (
(588,0,l),
(154,392,l),
(120,392,l),
(550,0,l)
);
},
{
alignment = -1;
ref = P;
}
);
width = 655;
},
{
anchors = (
{
name = bottom;
pos = (347,0);
},
{
name = top;
pos = (347,700);
}
);
layerId = m004;
shapes = (
{
closed = 1;
nodes = (
(624,0,l),
(270,382,l),
(158,382,l),
(505,0,l)
);
},
{
alignment = -1;
ref = P;
}
);
width = 710;
},
{
anchors = (
{
name = bottom;
pos = (324,0);
},
{
name = top;
pos = (440,700);
}
);
layerId = m005;
shapes = (
{
closed = 1;
nodes = (
(674,0,l),
(441,352,l),
(236,352,l),
(449,0,l)
);
},
{
alignment = -1;
ref = P;
}
);
width = 745;
},
{
anchors = (
{
name = bottom;
pos = (335,0);
},
{
name = top;
pos = (335,700);
}
);
layerId = m006;
shapes = (
{
closed = 1;
nodes = (
(588,0,l),
(154,392,l),
(120,392,l),
(550,0,l)
);
},
{
alignment = -1;
ref = P;
}
);
width = 655;
}
);
metricLeft = R;
metricRight = R;
},
{
color = 3;
glyphname = G.ss10;
kernLeft = C;
kernRight = G;
lastChange = "2024-04-19 08:23:20 +0000";
layers = (
{
anchors = (
{
name = bottom;
pos = (382,0);
},
{
name = top;
pos = (382,700);
}
);
layerId = "99F9E815-CA06-496B-ADE7-93275C52C564";
shapes = (
{
closed = 1;
nodes = (
(557,-14,o),
(697,99,o),
(697,255,cs),
(697,415,l),
(380,415,l),
(380,341,l),
(607,341,l),
(607,260,ls),
(607,144,o),
(512,60,o),
(396,60,cs),
(253,60,o),
(146,184,o),
(146,349,cs),
(146,521,o),
(263,626,o),
(401,626,cs),
(662,626,l),
(662,700,l),
(397,700,ls),
(207,700,o),
(54,560,o),
(54,347,cs),
(54,137,o),
(203,-14,o),
(394,-14,cs)
);
}
);
width = 765;
},
{
anchors = (
{
name = bottom;
pos = (390,0);
},
{
name = top;
pos = (390,700);
}
);
layerId = "D82997A7-F07B-4593-BC54-5FAA415CA6DD";
shapes = (
{
closed = 1;
nodes = (
(572,-20,o),
(725,89,o),
(725,246,cs),
(725,443,l),
(348,443,l),
(348,290,l),
(542,290,l),
(542,251,ls),
(542,180,o),
(477,131,o),
(396,131,cs),
(283,131,o),
(229,230,o),
(229,348,cs),
(229,488,o),
(302,547,o),
(407,547,cs),
(690,547,l),
(690,700,l),
(399,700,ls),
(193,700,o),
(39,572,o),
(39,350,cs),
(39,138,o),
(179,-20,o),
(394,-20,cs)
);
}
);
width = 780;
},
{
anchors = (
{
name = bottom;
pos = (352,0);
},
{
name = top;
pos = (352,700);
}
);
layerId = "1D55BFB9-7388-4E46-BDEC-EEE084CDFE08";
shapes = (
{
closed = 1;
nodes = (
(518,-10,o),
(632,100,o),
(632,255,cs),
(632,392,l),
(380,392,l),
(380,370,l),
(608,370,l),
(608,260,ls),
(608,115,o),
(505,12,o),
(373,12,cs),
(219,12,o),
(83,153,o),
(83,347,cs),
(83,543,o),
(220,678,o),
(374,678,cs),
(633,678,l),
(633,700,l),
(371,700,ls),
(203,700,o),
(58,553,o),
(58,345,cs),
(58,138,o),
(203,-10,o),
(372,-10,cs)
);
}
);
width = 704;
},
{
anchors = (
{
name = bottom;
pos = (375,0);
},
{
name = top;
pos = (375,700);
}
);
associatedMasterId = m004;
layerId = "E99947C7-EC54-43FF-B1CF-33550BBB2FFA";
name = "Italic Slanted";
shapes = (
{
closed = 1;
nodes = (
(507,-14,o),
(663,88,o),
(688,224,cs),
(723,415,l),
(406,415,l),
(391,341,l),
(623,341,l),
(602,240,ls),
(580,133,o),
(467,60,o),
(358,60,cs),
(225,60,o),
(152,167,o),
(152,296,cs),
(152,474,o),
(290,626,o),
(467,626,cs),
(728,626,l),
(742,700,l),
(477,700,ls),
(243,700,o),
(59,512,o),
(59,293,cs),
(59,119,o),
(174,-14,o),
(352,-14,cs)
);
}
);
width = 751;
},
{
anchors = (
{
name = bottom;
pos = (340.537,-3.484);
},
{
name = top;
pos = (407.629,693.293);
}
);
associatedMasterId = m004;
background = {
anchors = (
{
name = bottom;
pos = (340.537,-3.484);
},
{
name = top;
pos = (407.629,693.293);
}
);
shapes = (
{
closed = 1;
nodes = (
(337,-17,o),
(349,-18,o),
(361,-18,cs),
(514,-18,o),
(652,79,o),
(679.999,220.009,cs),
(711,378,l),
(395,408,l),
(381,335,l),
(607,313,l),
(592,234,ls),
(573,131,o),
(478,55,o),
(367,55,cs),
(236,55,o),
(143,156,o),
(143,298,cs),
(143,305,o),
(143,313,o),
(144,321,cs),
(145,336,o),
(147,352,o),
(150,366,cs),
(182,528,o),
(305,615,o),
(431,615,cs),
(440,615,o),
(448,615,o),
(457,614,cs),
(717,589,l),
(731,662,l),
(467,688,ls),
(454,689,o),
(442,690,o),
(429,690,cs),
(251,690,o),
(94,565,o),
(58,373,cs),
(55,357,o),
(53,343,o),
(52,332,cs),
(51,319,o),
(50,306,o),
(50,293,cs),
(50,127,o),
(162,1,o),
(325,-16,cs)
);
}
);
};
layerId = "4C0EEA6C-D65C-460B-81D7-526AB4F11CE4";
name = "Italic Slanted and Rotated";
shapes = (
{
closed = 1;
nodes = (
(267,-14,o),
(361,-14,cs),
(514,-14,o),
(652,83,o),
(680,224,cs),
(711,382,l),
(395,412,l),
(381,339,l),
(607,317,l),
(592,238,ls),
(573,135,o),
(478,59,o),
(367,59,cs),
(236,59,o),
(143,160,o),
(143,302,cs),
(143,408,o),
(215,619,o),
(431,619,cs),
(440,619,o),
(448,619,o),
(457,618,cs),
(717,593,l),
(731,666,l),
(467,692,ls),
(454,693,o),
(442,694,o),
(429,694,cs),
(120,694,o),
(50,388,o),
(50,297,cs),
(50,49,o)
);
}
);
width = 751;
},
{
anchors = (
{
name = bottom;
pos = (375,0);
},
{
name = top;
pos = (375,700);
}
);
associatedMasterId = m004;
layerId = "28AC7467-E133-41A3-9E94-69DD19268AF2";
name = "Mar 19, 24 at 16:21";
shapes = (
{
closed = 1;
nodes = (
(550,-14,o),
(690,99,o),
(690,255,cs),
(690,415,l),
(373,415,l),
(373,341,l),
(600,341,l),
(600,260,ls),
(600,144,o),
(505,60,o),
(389,60,cs),
(246,60,o),
(139,184,o),
(139,349,cs),
(139,521,o),
(256,626,o),
(394,626,cs),
(655,626,l),
(655,700,l),
(390,700,ls),
(200,700,o),
(47,560,o),
(47,347,cs),
(47,137,o),
(196,-14,o),
(387,-14,cs)
);
}
);
width = 751;
},
{
anchors = (
{
name = bottom;
pos = (381,0);
},
{
name = top;
pos = (517,700);
}
);
associatedMasterId = m004;
layerId = "0C800DFE-7101-4FD4-8748-CBF59E008A94";
name = "Mar 19, 24 at 16:23";
shapes = (
{
closed = 1;
nodes = (
(546,-14,o),
(661,106,o),
(687,278,cs),
(708,417,l),
(383,417,l),
(369,343,l),
(607,343,l),
(597,280,ls),
(577,154,o),
(504,60,o),
(366,60,cs),
(232,60,o),
(150,149,o),
(150,297,cs),
(150,481,o),
(277,626,o),
(419,626,cs),
(706,626,l),
(720,700,l),
(418,700,ls),
(216,700,o),
(57,509,o),
(57,292,cs),
(57,100,o),
(181,-14,o),
(361,-14,cs)
);
}
);
width = 761;
},
{
anchors = (
{
name = bottom;
pos = (397,0);
},
{
name = top;
pos = (533,700);
}
);
layerId = m004;
name = Italic;
shapes = (
{
closed = 1;
nodes = (
(557,-14,o),
(677,106,o),
(703,278,cs),
(724,417,l),
(399,417,l),
(385,343,l),
(623,343,l),
(613,280,ls),
(593,154,o),
(516,60,o),
(389,60,cs),
(256,60,o),
(166,164,o),
(166,306,cs),
(166,476,o),
(293,626,o),
(435,626,cs),
(722,626,l),
(736,700,l),
(434,700,ls),
(232,700,o),
(73,505,o),
(73,301,cs),
(73,113,o),
(211,-14,o),
(386,-14,cs)
);
}
);
width = 764;
},
{
anchors = (
{
name = bottom;
pos = (379,0);
},
{
name = top;
pos = (515,700);
}
);
layerId = m005;
shapes = (
{
closed = 1;
nodes = (
(551,-14,o),
(692,77,o),
(720,222,cs),
(761,436,l),
(390,436,l),
(360,292,l),
(554,292,l),
(545,244,ls),
(532,176,o),
(469,137,o),
(394,137,cs),
(292,137,o),
(248,210,o),
(248,311,cs),
(248,450,o),
(330,547,o),
(468,547,cs),
(746,547,l),
(776,700,l),
(489,700,ls),
(237,700,o),
(59,550,o),
(59,313,cs),
(59,112,o),
(188,-14,o),
(384,-14,cs)
);
}
);
width = 781;
},
{
anchors = (
{
name = bottom;
pos = (390,0);
},
{
name = top;
pos = (390,700);
}
);
associatedMasterId = m005;
layerId = "0A2B60BA-BA70-4894-BB71-95E80A194BD5";
name = "Mar 31, 24 at 11:08";
shapes = (
{
closed = 1;
nodes = (
(572,-20,o),
(725,89,o),
(725,246,cs),
(725,443,l),
(348,443,l),
(348,290,l),
(542,290,l),
(542,251,ls),
(542,180,o),
(477,131,o),
(396,131,cs),
(283,131,o),
(229,230,o),
(229,348,cs),
(229,488,o),
(302,547,o),
(407,547,cs),
(690,547,l),
(690,700,l),
(399,700,ls),
(193,700,o),
(39,572,o),
(39,350,cs),
(39,138,o),
(179,-20,o),
(394,-20,cs)
);
}
);
width = 780;
},
{
anchors = (
{
name = bottom;
pos = (317.678,-4.548);
},
{
name = top;
pos = (384.77,692.23);
}
);
associatedMasterId = m006;
background = {
anchors = (
{
name = bottom;
pos = (317.678,-4.548);
},
{
name = top;
pos = (384.77,692.23);
}
);
shapes = (
{
closed = 1;
nodes = (
(475,-15,o),
(595,79,o),
(622.301,222.3,cs),
(648.522,357.409,l),
(397.682,381.562,l),
(393.472,359.865,l),
(620.422,338.013,l),
(599.368,229.531,ls),
(573,95,o),
(464,6,o),
(342,6,cs),
(197,6,o),
(86,127,o),
(86,291,cs),
(86,303,o),
(87,315,o),
(87.861,327.317,cs),
(89.072,339.894,o),
(90.92,352.681,o),
(93.437,365.649,cs),
(129,548,o),
(276,665,o),
(421,665,cs),
(429,665,o),
(438,665,o),
(446.45,664.189,cs),
(704.257,639.365,l),
(708.468,661.061,l),
(447.674,686.173,ls),
(438,687,o),
(429,688,o),
(420,688,cs),
(262,688,o),
(106,560,o),
(68.169,366.073,cs),
(65.489,352.262,o),
(63.521,338.654,o),
(62.233,325.28,cs),
(61,312,o),
(60,300,o),
(60,287,cs),
(60,112,o),
(181,-15,o),
(340,-15,cs)
);
}
);
};
layerId = "256308D8-211E-434E-8074-F2030E63C1BF";
name = "Hairline Italic Slanted and Rotated";
shapes = (
{
closed = 1;
nodes = (
(475,-10,o),
(595,84,o),
(622,227,cs),
(649,374,l),
(398,374,l),
(393,354,l),
(620,354,l),
(599,235,ls),
(573,100,o),
(464,11,o),
(342,11,cs),
(197,11,o),
(86,132,o),
(86,296,cs),
(86,463,o),
(220,657,o),
(446,657,cs),
(704,657,l),
(708,679,l),
(448,679,ls),
(161,679,o),
(60,410,o),
(60,292,cs),
(60,117,o),
(181,-10,o),
(340,-10,cs)
);
}
);
visible = 1;
width = 704;
},
{
anchors = (
{
name = bottom;
pos = (352,0);
},
{
name = top;
pos = (352,700);
}
);
associatedMasterId = m006;
layerId = "1C81E756-9A3F-4460-87CD-B2A95F421034";
name = "Apr 18, 24 at 11:10";
shapes = (
{
closed = 1;
nodes = (
(518,-10,o),
(632,100,o),
(632,255,cs),
(632,392,l),
(380,392,l),
(380,370,l),
(608,370,l),
(608,260,ls),
(608,115,o),
(505,12,o),
(373,12,cs),
(219,12,o),
(83,153,o),
(83,347,cs),
(83,543,o),
(220,678,o),
(374,678,cs),
(633,678,l),
(633,700,l),
(371,700,ls),
(203,700,o),
(58,553,o),
(58,345,cs),
(58,138,o),
(203,-10,o),
(372,-10,cs)
);
}
);
width = 704;
},
{
anchors = (
{
name = bottom;
pos = (306,0);
},
{
name = top;
pos = (442,700);
}
);
layerId = m006;
name = "Hairline Italic";
shapes = (
{
closed = 1;
nodes = (
(479,-10,o),
(602,90,o),
(630,233,cs),
(661,392,l),
(409,392,l),
(405,370,l),
(632,370,l),
(606,238,ls),
(579,102,o),
(467,12,o),
(337,12,cs),
(194,12,o),
(96,121,o),
(96,282,cs),
(96,493,o),
(265,678,o),
(458,678,cs),
(717,678,l),
(721,700,l),
(459,700,ls),
(253,700,o),
(70,501,o),
(70,282,cs),
(70,111,o),
(181,-10,o),
(337,-10,cs)
);
}
);
width = 704;
}
);
},
{
glyphname = S.ss19;
lastChange = "2024-04-19 08:23:20 +0000";
layers = (
{
anchors = (
{
name = bottom;
pos = (261,0);
},
{
name = top;
pos = (261,700);
}
);
layerId = "99F9E815-CA06-496B-ADE7-93275C52C564";
shapes = (
{
closed = 1;
nodes = (
(292,0,ls),
(412,0,o),
(488,72,o),
(488,185,cs),
(488,277,o),
(435,322,o),
(326,370,cs),
(267,396,ls),
(192,429,o),
(131,457,o),
(131,527,cs),
(131,587,o),
(175,626,o),
(245,626,cs),
(456,626,l),
(456,700,l),
(240,700,ls),
(124,700,o),
(45,630,o),
(45,520,cs),
(45,411,o),
(124,370,o),
(236,320,cs),
(292,295,ls),
(357,266,o),
(402,236,o),
(402,177,cs),
(402,112,o),
(348,74,o),
(273,74,cs),
(34,74,l),
(34,0,l)
);
}
);
width = 526;
},
{
anchors = (
{
name = bottom;
pos = (319,0);
},
{
name = top;
pos = (319,700);
}
);
layerId = "D82997A7-F07B-4593-BC54-5FAA415CA6DD";
shapes = (
{
closed = 1;
nodes = (
(365,0,ls),
(496,0,o),
(578,73,o),
(578,191,cs),
(578,278,o),
(534,333,o),
(453,374,cs),
(321,441,ls),
(282,461,o),
(257,475,o),
(257,505,cs),
(257,530,o),
(278,547,o),
(307,547,cs),
(535,547,l),
(535,700,l),
(270,700,ls),
(126,700,o),
(56,613,o),
(56,512,cs),
(56,427,o),
(105,361,o),
(206,309,cs),
(342,239,ls),
(367,226,o),
(380,212,o),
(380,194,cs),
(380,170,o),
(359,153,o),
(335,153,cs),
(55,153,l),
(55,0,l)
);
}
);
width = 635;
},
{
anchors = (
{
name = bottom;
pos = (258,0);
},
{
name = top;
pos = (258,700);
}
);
layerId = "1D55BFB9-7388-4E46-BDEC-EEE084CDFE08";
shapes = (
{
closed = 1;
nodes = (
(285,0,ls),
(404,0,o),
(479,65,o),
(479,169,cs),
(479,247,o),
(434,301,o),
(329,345,cs),
(246,380,ls),
(167,413,o),
(85,459,o),
(85,547,cs),
(85,627,o),
(152,678,o),
(258,678,cs),
(456,678,l),
(456,700,l),
(260,700,ls),
(138,700,o),
(61,640,o),
(61,545,cs),
(61,468,o),
(112,411,o),
(231,361,cs),
(319,324,ls),
(414,284,o),
(455,238,o),
(455,166,cs),
(455,77,o),
(393,22,o),
(282,22,cs),
(51,22,l),
(51,0,l)
);
}
);
width = 515;
},
{
anchors = (
{
name = bottom;
pos = (258,0);
},
{
name = top;
pos = (397,720);
}
);
layerId = m004;
name = "Regular Italic";
shapes = (
{
closed = 1;
nodes = (
(254,0,ls),
(398,0,o),
(498,62,o),
(498,185,cs),
(498,265,o),
(455,307,o),
(357,363,cs),
(301,395,ls),
(231,435,o),
(185,464,o),
(185,521,cs),
(185,587,o),
(245,626,o),
(317,626,cs),
(546,626,l),
(561,700,l),
(310,700,ls),
(172,700,o),
(98,614,o),
(98,515,cs),
(98,419,o),
(167,379,o),
(264,323,cs),
(316,293,ls),
(375,259,o),
(409,230,o),
(409,180,cs),
(409,108,o),
(339,74,o),
(250,74,cs),
(2,74,l),
(-13,0,l)
);
}
);
width = 548;
},
{
anchors = (
{
name = bottom;
pos = (307,0);
},
{
name = top;
pos = (444,702);
}
);
layerId = m005;
shapes = (
{
closed = 1;
nodes = (
(319,0,ls),
(467,0,o),
(572,72,o),
(572,201,cs),
(572,269,o),
(543,315,o),
(478,360,cs),
(351,448,ls),
(325,466,o),
(309,486,o),
(309,508,cs),
(309,534,o),
(331,547,o),
(362,547,cs),
(593,547,l),
(623,700,l),
(358,700,ls),
(218,700,o),
(109,631,o),
(109,500,cs),
(109,429,o),
(142,376,o),
(223,320,cs),
(343,237,ls),
(359,226,o),
(372,212,o),
(372,193,cs),
(372,168,o),
(351,153,o),
(320,153,cs),
(42,153,l),
(13,0,l)
);
}
);
width = 644;
},
{
anchors = (
{
name = bottom;
pos = (323,0);
},
{
name = top;
pos = (323,700);
}
);
associatedMasterId = "D82997A7-F07B-4593-BC54-5FAA415CA6DD";
layerId = "4C111D68-1D77-4ECA-9637-A70F470149F7";
name = "Apr 9, 24 at 12:19";
shapes = (
{
closed = 1;
nodes = (
(371,0,ls),
(503,0,o),
(586,73,o),
(586,192,cs),
(586,276,o),
(545,333,o),
(465,374,cs),
(325,446,ls),
(292,463,o),
(271,476,o),
(271,502,cs),
(271,523,o),
(287,536,o),
(312,536,cs),
(542,536,l),
(542,700,l),
(271,700,ls),
(124,700,o),
(55,611,o),
(55,511,cs),
(55,426,o),
(103,358,o),
(200,308,cs),
(345,233,ls),
(364,223,o),
(371,210,o),
(371,195,cs),
(371,176,o),
(358,164,o),
(340,164,cs),
(55,164,l),
(55,0,l)
);
}
);
width = 643;
},
{
anchors = (
{
name = bottom;
pos = (178.463,1.803);
},
{
name = top;
pos = (380.929,685.545);
}
);
associatedMasterId = m006;
layerId = "CF948854-9C7D-46B9-93C5-FD1986CE1C1C";
name = "Hairline Italic Slanted and Rotated";
shapes = (
{
closed = 1;
nodes = (
(228.233,-2.989,ls),
(353.496,-15.051,o),
(445.333,49.132,o),
(456.278,162.795,cs),
(462.844,230.992,o),
(426.637,283.758,o),
(338.062,333.031,cs),
(262.143,375.503,ls),
(193.467,413.598,o),
(124.342,463.513,o),
(131.973,542.763,cs),
(140.359,629.851,o),
(220.073,678.932,o),
(331.124,668.239,cs),
(528.213,649.262,l),
(532.424,670.958,l),
(337.326,689.744,ls),
(209.512,702.051,o),
(117.296,644.158,o),
(107.307,540.417,cs),
(100.678,471.574,o),
(142.22,414.721,o),
(243.576,358.203,cs),
(324.089,313.279,ls),
(404.16,268.545,o),
(437.628,223.182,o),
(431.62,160.789,cs),
(422.186,62.814,o),
(346.852,7.691,o),
(229.458,18.995,cs),
(-0.479,41.135,l),
(-4.69,19.439,l)
);
}
);
width = 515;
},
{
anchors = (
{
name = bottom;
pos = (212,0);
},
{
name = top;
pos = (348,700);
}
);
associatedMasterId = m006;
layerId = "88B99080-4647-4C2A-962C-2F3C95078BA1";
name = "Apr 18, 24 at 21:11";
shapes = (
{
closed = 1;
nodes = (
(285,0,ls),
(404,0,o),
(479,65,o),
(479,169,cs),
(479,247,o),
(434,301,o),
(329,345,cs),
(246,380,ls),
(167,413,o),
(85,459,o),
(85,547,cs),
(85,627,o),
(152,678,o),
(258,678,cs),
(456,678,l),
(456,700,l),
(260,700,ls),
(138,700,o),
(61,640,o),
(61,545,cs),
(61,468,o),
(112,411,o),
(231,361,cs),
(319,324,ls),
(414,284,o),
(455,238,o),
(455,166,cs),
(455,77,o),
(393,22,o),
(282,22,cs),
(51,22,l),
(51,0,l)
);
}
);
width = 515;
},
{
anchors = (
{
name = bottom;
pos = (212,0);
},
{
name = top;
pos = (348,700);
}
);
layerId = m006;
name = "Hairline Italic";
shapes = (
{
closed = 1;
nodes = (
(239,0,ls),
(383,0,o),
(468,93,o),
(468,193,cs),
(468,257,o),
(434,305,o),
(349,344,cs),
(273,379,ls),
(204,411,o),
(142,449,o),
(142,526,cs),
(142,621,o),
(238,678,o),
(342,678,cs),
(540,678,l),
(544,700,l),
(348,700,ls),
(221,700,o),
(117,633,o),
(117,526,cs),
(117,460,o),
(157,406,o),
(254,362,cs),
(335,325,ls),
(412,290,o),
(444,252,o),
(444,192,cs),
(444,93,o),
(358,22,o),
(240,22,cs),
(9,22,l),
(5,0,l)
);
}
);
width = 515;
}
);
},
{
export = 0;
glyphname = A.small;
lastChange = "2024-04-19 09:12:19 +0000";
layers = (
{
anchors = (
{
name = _center;
pos = (174,333);
},
{
name = bottom;
pos = (174,158);
},
{
name = ogonek;
pos = (343,158);
},
{
name = top;
pos = (174,508);
}
);
layerId = "99F9E815-CA06-496B-ADE7-93275C52C564";
shapes = (
{
closed = 1;
nodes = (
(69,158,l),
(194,508,l),
(141,508,l),
(5,158,l)
);
},
{
closed = 1;
nodes = (
(266,270,l),
(266,318,l),
(82,318,l),
(82,270,l)
);
},
{
closed = 1;
nodes = (
(343,158,l),
(207,508,l),
(154,508,l),
(280,158,l)
);
}
);
userData = {
RMXScaler = {
height = 50;
verticalShift = 158;
weight = -30;
width = 50;
};
};
width = 348;
},
{
anchors = (
{
name = _center;
pos = (182,333);
},
{
name = bottom;
pos = (182,158);
},
{
name = ogonek;
pos = (362,158);
},
{
name = top;
pos = (182,508);
}
);
layerId = "D82997A7-F07B-4593-BC54-5FAA415CA6DD";
shapes = (
{
closed = 1;
nodes = (
(97,158,l),
(213,508,l),
(138,508,l),
(2,158,l)
);
},
{
closed = 1;
nodes = (
(274,247,l),
(274,316,l),
(87,316,l),
(87,247,l)
);
},
{
closed = 1;
nodes = (
(362,158,l),
(227,508,l),
(153,508,l),
(269,158,l)
);
}
);
userData = {
RMXScaler = {
height = 50;
verticalShift = 158;
weight = -100;
width = 50;
};
};
width = 364;
},
{
anchors = (
{
name = _center;
pos = (162,333);
},
{
name = bottom;
pos = (162,158);
},
{
name = ogonek;
pos = (318,158);
},
{
name = top;
pos = (162,508);
}
);
layerId = "1D55BFB9-7388-4E46-BDEC-EEE084CDFE08";
shapes = (
{
closed = 1;
nodes = (
(30,158,l),
(171,508,l),
(150,508,l),
(7,158,l)
);
},
{
closed = 1;
nodes = (
(254,296,l),
(250,315,l),
(76,315,l),
(72,296,l)
);
},
{
closed = 1;
nodes = (
(318,158,l),
(176,508,l),
(155,508,l),
(295,158,l)
);
}
);
userData = {
RMXScaler = {
height = 50;
verticalShift = 158;
width = 50;
};
};
width = 324;
},
{
anchors = (
{
name = _center;
pos = (156,333);
},
{
name = bottom;
pos = (157,158);
},
{
name = ogonek;
pos = (325,158);
},
{
name = top;
pos = (225,507);
}
);
layerId = m004;
shapes = (
{
closed = 1;
nodes = (
(53,158,l),
(247,508,l),
(192,508,l),
(-12,158,l)
);
},
{
closed = 1;
nodes = (
(270,270,l),
(279,318,l),
(96,318,l),
(86,270,l)
);
},
{
closed = 1;
nodes = (
(325,158,l),
(257,508,l),
(206,508,l),
(264,158,l)
);
}
);
userData = {
RMXScaler = {
height = 50;
verticalShift = 158;
weight = -30;
width = 50;
};
};
width = 346;
},
{
anchors = (
{
name = _center;
pos = (198,333);
},
{
name = bottom;
pos = (161,158);
},
{
name = ogonek;
pos = (341,158);
},
{
name = top;
pos = (231,505);
}
);
layerId = m005;
shapes = (
{
closed = 1;
nodes = (
(79,158,l),
(262,508,l),
(185,508,l),
(-17,158,l)
);
},
{
closed = 1;
nodes = (
(270,247,l),
(283,316,l),
(96,316,l),
(83,247,l)
);
},
{
closed = 1;
nodes = (
(342,158,l),
(274,508,l),
(202,508,l),
(250,158,l)
);
}
);
userData = {
RMXScaler = {
height = 50;
verticalShift = 158;
weight = -100;
width = 50;
};
};
width = 362;
},
{
anchors = (
{
name = _center;
pos = (139,333);
},
{
name = bottom;
pos = (139,158);
},
{
name = ogonek;
pos = (295,158);
},
{
name = top;
pos = (207,508);
}
);
layerId = m006;
shapes = (
{
closed = 1;
nodes = (
(8,158,l),
(216,508,l),
(195,508,l),
(-16,158,l)
);
},
{
closed = 1;
nodes = (
(258,296,l),
(258,315,l),
(83,315,l),
(76,296,l)
);
},
{
closed = 1;
nodes = (
(295,158,l),
(221,508,l),
(201,508,l),
(273,158,l)
);
}
);
userData = {
RMXScaler = {
height = 50;
verticalShift = 158;
width = 50;
};
};
width = 325;
}
);
userData = {
RMXScaler = {
source = A;
};
};
},
{
export = 0;
glyphname = B.small;
kernLeft = B.small;
kernRight = B.small;
lastChange = "2024-04-19 09:09:25 +0000";
layers = (
{
anchors = (
{
name = _center;
pos = (181,333);
},
{
name = bottom;
pos = (172,158);
},
{
name = center;
pos = (172,321);
},
{
name = top;
pos = (172,483);
}
);
layerId = "99F9E815-CA06-496B-ADE7-93275C52C564";
name = Regular;
shapes = (
{
closed = 1;
nodes = (
(208,158,ls),
(274,158,o),
(318,202,o),
(318,265,cs),
(318,318,o),
(287,354,o),
(229,362,c),
(229,351,l),
(273,359,o),
(299,391,o),
(299,430,cs),
(299,478,o),
(258,508,o),
(196,508,cs),
(44,508,l),
(44,158,l)
);
},
{
closed = 1;
nodes = (
(102,331,l),
(194,331,ls),
(234,331,o),
(257,308,o),
(257,268,cs),
(257,227,o),
(234,205,o),
(194,205,cs),
(102,205,l)
);
},
{
closed = 1;
nodes = (
(102,462,l),
(192,462,ls),
(224,462,o),
(240,447,o),
(240,420,cs),
(240,393,o),
(223,377,o),
(193,377,cs),
(102,377,l)
);
}
);
userData = {
RMXScaler = {
height = 50;
verticalShift = 158;
weight = -30;
width = 50;
};
};
width = 344;
},
{
anchors = (
{
name = _center;
pos = (188,333);
},
{
name = bottom;
pos = (180,158);
},
{
name = center;
pos = (180,321);
},
{
name = top;
pos = (180,483);
}
);
layerId = "D82997A7-F07B-4593-BC54-5FAA415CA6DD";
shapes = (
{
closed = 1;
nodes = (
(228,158,ls),
(296,158,o),
(340,204,o),
(340,265,cs),
(340,321,o),
(302,358,o),
(243,359,c),
(243,347,l),
(293,354,o),
(320,390,o),
(320,430,cs),
(320,478,o),
(280,508,o),
(217,508,cs),
(37,508,l),
(37,158,l)
);
},
{
closed = 1;
nodes = (
(122,317,l),
(209,317,ls),
(235,317,o),
(252,299,o),
(252,271,cs),
(252,241,o),
(235,223,o),
(209,223,cs),
(122,223,l)
);
},
{
closed = 1;
nodes = (
(122,443,l),
(202,443,ls),
(225,443,o),
(237,432,o),
(237,412,cs),
(237,392,o),
(225,381,o),
(203,381,cs),
(122,381,l)
);
}
);
userData = {
RMXScaler = {
height = 50;
verticalShift = 158;
weight = -100;
width = 50;
};
};
width = 360;
},
{
anchors = (
{
name = _center;
pos = (175,333);
},
{
name = bottom;
pos = (165,158);
},
{
name = center;
pos = (165,329);
},
{
name = top;
pos = (165,501);
}
);
layerId = "1D55BFB9-7388-4E46-BDEC-EEE084CDFE08";
name = Hairline;
shapes = (
{
closed = 1;
nodes = (
(195,158,ls),
(257,158,o),
(299,202,o),
(299,263,cs),
(299,320,o),
(260,356,o),
(202,362,c),
(204,356,l),
(252,361,o),
(282,394,o),
(282,434,cs),
(282,478,o),
(244,508,o),
(191,508,cs),
(52,508,l),
(52,158,l)
);
},
{
closed = 1;
nodes = (
(73,348,l),
(180,348,ls),
(239,348,o),
(277,317,o),
(277,263,cs),
(277,212,o),
(243,177,o),
(187,177,cs),
(73,177,l)
);
},
{
closed = 1;
nodes = (
(73,490,l),
(189,490,ls),
(232,490,o),
(259,467,o),
(259,432,cs),
(259,392,o),
(226,367,o),
(178,367,cs),
(73,367,l)
);
}
);
userData = {
RMXScaler = {
height = 50;
verticalShift = 158;
width = 50;
};
};
width = 329;
},
{
anchors = (
{
name = _center;
pos = (183,333);
},
{
name = bottom;
pos = (178,158);
},
{
name = center;
pos = (179,299);
},
{
name = top;
pos = (242,490);
}
);
layerId = m004;
name = Regular;
shapes = (
{
closed = 1;
nodes = (
(187,158,ls),
(275,158,o),
(325,209,o),
(325,273,cs),
(325,320,o),
(298,349,o),
(253,357,c),
(251,347,l),
(312,356,o),
(337,398,o),
(337,433,cs),
(337,470,o),
(310,508,o),
(248,508,cs),
(96,508,l),
(29,158,l)
);
},
{
closed = 1;
nodes = (
(120,331,l),
(211,331,ls),
(244,331,o),
(265,310,o),
(265,276,cs),
(265,241,o),
(243,204,o),
(187,204,cs),
(96,204,l)
);
},
{
closed = 1;
nodes = (
(145,462,l),
(235,462,ls),
(261,462,o),
(276,449,o),
(276,425,cs),
(276,396,o),
(255,377,o),
(219,377,cs),
(129,377,l)
);
}
);
userData = {
RMXScaler = {
height = 50;
verticalShift = 158;
weight = -30;
width = 50;
};
};
width = 347;
},
{
anchors = (
{
name = _center;
pos = (187,333);
},
{
name = bottom;
pos = (168,158);
},
{
name = center;
pos = (110,257);
},
{
name = top;
pos = (235,504);
}
);
layerId = m005;
shapes = (
{
closed = 1;
nodes = (
(213,158,ls),
(295,158,o),
(343,212,o),
(343,271,cs),
(343,319,o),
(312,352,o),
(263,355,c),
(261,343,l),
(327,349,o),
(356,393,o),
(356,431,cs),
(356,468,o),
(327,508,o),
(266,508,cs),
(86,508,l),
(19,158,l)
);
},
{
closed = 1;
nodes = (
(135,317,l),
(218,317,ls),
(239,317,o),
(256,301,o),
(256,275,cs),
(256,247,o),
(237,222,o),
(199,222,cs),
(116,222,l)
);
},
{
closed = 1;
nodes = (
(159,443,l),
(238,443,ls),
(257,443,o),
(269,433,o),
(269,416,cs),
(269,393,o),
(252,381,o),
(227,381,cs),
(147,381,l)
);
}
);
userData = {
RMXScaler = {
height = 50;
verticalShift = 158;
weight = -100;
width = 50;
};
};
width = 362;
},
{
anchors = (
{
name = _center;
pos = (175,333);
},
{
name = bottom;
pos = (175,158);
},
{
name = center;
pos = (184,329);
},
{
name = top;
pos = (193,501);
}
);
layerId = m006;
name = Hairline;
shapes = (
{
closed = 1;
nodes = (
(171,158,ls),
(251,158,o),
(305,205,o),
(305,273,cs),
(305,321,o),
(268,355,o),
(223,359,c),
(222,353,l),
(292,360,o),
(317,407,o),
(317,440,cs),
(317,475,o),
(289,508,o),
(239,508,cs),
(101,508,l),
(33,158,l)
);
},
{
closed = 1;
nodes = (
(91,348,l),
(198,348,ls),
(249,348,o),
(282,316,o),
(282,273,cs),
(282,234,o),
(254,177,o),
(172,177,cs),
(58,177,l)
);
},
{
closed = 1;
nodes = (
(119,490,l),
(234,490,ls),
(271,490,o),
(295,470,o),
(295,437,cs),
(295,401,o),
(263,367,o),
(200,367,cs),
(95,367,l)
);
}
);
userData = {
RMXScaler = {
height = 50;
verticalShift = 158;
width = 50;
};
};
width = 330;
}
);
userData = {
RMXScaler = {
source = B;
};
};
},
{
export = 0;
glyphname = C.small;
kernLeft = C.small;
kernRight = C.small;
lastChange = "2024-04-19 09:09:25 +0000";
layers = (
{
anchors = (
{
name = _center;
pos = (190,333);
},
{
name = bottom;
pos = (185,158);
},
{
name = top;
pos = (187,508);
}
);
layerId = "99F9E815-CA06-496B-ADE7-93275C52C564";
shapes = (
{
closed = 1;
nodes = (
(281,152,o),
(340,207,o),
(355,286,c),
(296,292,l),
(287,236,o),
(245,200,o),
(192,200,cs),
(128,200,o),
(85,253,o),
(85,333,cs),
(85,413,o),
(128,466,o),
(194,466,cs),
(244,466,o),
(278,437,o),
(289,394,c),
(349,399,l),
(332,467,o),
(271,514,o),
(194,514,cs),
(96,514,o),
(25,438,o),
(25,332,cs),
(25,226,o),
(95,152,o),
(194,152,cs)
);
}
);
userData = {
RMXScaler = {
height = 50;
verticalShift = 158;
weight = -30;
width = 50;
};
};
width = 371;
},
{
anchors = (
{
name = _center;
pos = (194,333);
},
{
name = bottom;
pos = (191,158);
},
{
name = top;
pos = (192,508);
}
);
layerId = "D82997A7-F07B-4593-BC54-5FAA415CA6DD";
shapes = (
{
closed = 1;
nodes = (
(296,151,o),
(353,214,o),
(367,289,c),
(282,307,l),
(272,252,o),
(239,221,o),
(195,221,cs),
(142,221,o),
(108,265,o),
(108,332,cs),
(108,401,o),
(143,445,o),
(196,445,cs),
(234,445,o),
(265,423,o),
(276,376,c),
(362,393,l),
(341,466,o),
(278,515,o),
(196,515,cs),
(96,515,o),
(21,440,o),
(21,331,cs),
(21,227,o),
(89,151,o),
(197,151,cs)
);
}
);
userData = {
RMXScaler = {
height = 50;
verticalShift = 158;
weight = -100;
width = 50;
};
};
width = 382;
},
{
anchors = (
{
name = _center;
pos = (181,333);
},
{
name = bottom;
pos = (178,158);
},
{
name = top;
pos = (179,508);
}
);
layerId = "1D55BFB9-7388-4E46-BDEC-EEE084CDFE08";
shapes = (
{
closed = 1;
nodes = (
(261,153,o),
(319,201,o),
(334,267,c),
(311,267,l),
(299,210,o),
(247,171,o),
(186,171,cs),
(106,171,o),
(51,238,o),
(51,332,cs),
(51,428,o),
(107,495,o),
(188,495,cs),
(248,495,o),
(294,459,o),
(307,412,c),
(330,412,l),
(314,471,o),
(257,513,o),
(187,513,cs),
(95,513,o),
(29,438,o),
(29,333,cs),
(29,227,o),
(95,153,o),
(186,153,cs)
);
}
);
userData = {
RMXScaler = {
height = 50;
verticalShift = 158;
width = 50;
};
};
width = 354;
},
{
anchors = (
{
name = _center;
pos = (210,333);
},
{
name = bottom;
pos = (187,158);
},
{
name = top;
pos = (243,508);
}
);
layerId = m004;
shapes = (
{
closed = 1;
nodes = (
(269,151,o),
(341,195,o),
(366,285,c),
(308,291,l),
(292,235,o),
(248,199,o),
(194,199,cs),
(132,199,o),
(100,247,o),
(100,303,cs),
(100,369,o),
(143,467,o),
(233,467,cs),
(282,467,o),
(318,438,o),
(321,392,c),
(381,398,l),
(375,471,o),
(319,515,o),
(240,515,cs),
(111,515,o),
(40,398,o),
(40,300,cs),
(40,216,o),
(93,151,o),
(190,151,cs)
);
}
);
userData = {
RMXScaler = {
height = 50;
verticalShift = 158;
weight = -30;
width = 50;
};
};
width = 373;
},
{
anchors = (
{
name = _center;
pos = (212,333);
},
{
name = bottom;
pos = (178,158);
},
{
name = top;
pos = (241,508);
}
);
layerId = m005;
shapes = (
{
closed = 1;
nodes = (
(288,151,o),
(350,210,o),
(377,285,c),
(294,303,l),
(275,251,o),
(239,221,o),
(194,221,cs),
(141,221,o),
(121,264,o),
(121,304,cs),
(121,353,o),
(151,445,o),
(232,445,cs),
(279,445,o),
(301,414,o),
(305,372,c),
(391,389,l),
(377,469,o),
(326,515,o),
(241,515,cs),
(100,515,o),
(33,389,o),
(33,298,cs),
(33,226,o),
(77,151,o),
(188,151,cs)
);
}
);
userData = {
RMXScaler = {
height = 50;
verticalShift = 158;
weight = -100;
width = 50;
};
};
width = 386;
},
{
anchors = (
{
name = _center;
pos = (203,333);
},
{
name = bottom;
pos = (183,158);
},
{
name = top;
pos = (234,508);
}
);
layerId = m006;
shapes = (
{
closed = 1;
nodes = (
(251,152,o),
(314,195,o),
(340,267,c),
(317,267,l),
(296,210,o),
(239,171,o),
(180,171,cs),
(110,171,o),
(65,225,o),
(65,297,cs),
(65,375,o),
(117,495,o),
(233,495,cs),
(295,495,o),
(336,460,o),
(340,412,c),
(363,412,l),
(358,471,o),
(311,514,o),
(235,514,cs),
(104,514,o),
(43,384,o),
(43,298,cs),
(43,223,o),
(88,152,o),
(179,152,cs)
);
}
);
userData = {
RMXScaler = {
height = 50;
verticalShift = 158;
width = 50;
};
};
width = 354;
}
);
userData = {
RMXScaler = {
source = C;
};
};
},
{
export = 0;
glyphname = D.small;
kernLeft = B.small;
kernRight = D.small;
lastChange = "2024-04-19 09:09:25 +0000";
layers = (
{
anchors = (
{
name = _center;
pos = (197,333);
},
{
name = bottom;
pos = (189,158);
},
{
name = center;
pos = (86,333);
},
{
name = top;
pos = (189,508);
}
);
layerId = "99F9E815-CA06-496B-ADE7-93275C52C564";
shapes = (
{
closed = 1;
nodes = (
(187,158,ls),
(287,158,o),
(350,224,o),
(350,331,cs),
(350,442,o),
(284,508,o),
(183,508,cs),
(45,508,l),
(45,158,l)
);
},
{
closed = 1;
nodes = (
(103,460,l),
(173,460,ls),
(251,460,o),
(291,413,o),
(291,332,cs),
(291,252,o),
(251,206,o),
(173,206,cs),
(103,206,l)
);
}
);
userData = {
RMXScaler = {
height = 50;
verticalShift = 158;
weight = -30;
width = 50;
};
};
width = 384;
},
{
anchors = (
{
name = _center;
pos = (197,333);
},
{
name = bottom;
pos = (191,158);
},
{
name = center;
pos = (82,333);
},
{
name = top;
pos = (191,508);
}
);
layerId = "D82997A7-F07B-4593-BC54-5FAA415CA6DD";
shapes = (
{
closed = 1;
nodes = (
(185,158,ls),
(290,158,o),
(357,225,o),
(357,332,cs),
(357,440,o),
(290,508,o),
(184,508,cs),
(37,508,l),
(37,158,l)
);
},
{
closed = 1;
nodes = (
(122,439,l),
(172,439,ls),
(237,439,o),
(270,403,o),
(270,332,cs),
(270,262,o),
(237,227,o),
(172,227,cs),
(122,227,l)
);
}
);
userData = {
RMXScaler = {
height = 50;
verticalShift = 158;
weight = -100;
width = 50;
};
};
width = 383;
},
{
anchors = (
{
name = _center;
pos = (192,333);
},
{
name = bottom;
pos = (181,158);
},
{
name = center;
pos = (75,333);
},
{
name = top;
pos = (181,508);
}
);
layerId = "1D55BFB9-7388-4E46-BDEC-EEE084CDFE08";
shapes = (
{
closed = 1;
nodes = (
(169,158,ls),
(270,158,o),
(333,225,o),
(333,331,cs),
(333,440,o),
(269,508,o),
(168,508,cs),
(52,508,l),
(52,158,l)
);
},
{
closed = 1;
nodes = (
(73,489,l),
(159,489,ls),
(257,489,o),
(311,432,o),
(311,332,cs),
(311,233,o),
(257,177,o),
(159,177,cs),
(73,177,l)
);
}
);
userData = {
RMXScaler = {
height = 50;
verticalShift = 158;
width = 50;
};
};
width = 365;
},
{
anchors = (
{
name = _center;
pos = (199,333);
},
{
name = bottom;
pos = (165,158);
},
{
name = center;
pos = (106,333);
},
{
name = top;
pos = (231,508);
}
);
layerId = m004;
shapes = (
{
closed = 1;
nodes = (
(169,158,ls),
(299,158,o),
(369,253,o),
(369,358,cs),
(369,445,o),
(317,508,o),
(233,508,cs),
(96,508,l),
(29,158,l)
);
},
{
closed = 1;
nodes = (
(145,460,l),
(213,460,ls),
(278,460,o),
(309,418,o),
(309,356,cs),
(309,281,o),
(268,206,o),
(165,206,cs),
(96,206,l)
);
}
);
userData = {
RMXScaler = {
height = 50;
verticalShift = 158;
weight = -30;
width = 50;
};
};
width = 385;
},
{
anchors = (
{
name = _center;
pos = (196,333);
},
{
name = bottom;
pos = (166,158);
},
{
name = center;
pos = (105,333);
},
{
name = top;
pos = (231,508);
}
);
layerId = m005;
shapes = (
{
closed = 1;
nodes = (
(166,158,ls),
(299,158,o),
(373,248,o),
(373,359,cs),
(373,444,o),
(318,508,o),
(231,508,cs),
(87,508,l),
(20,158,l)
);
},
{
closed = 1;
nodes = (
(157,438,l),
(207,438,ls),
(260,438,o),
(286,408,o),
(286,357,cs),
(286,286,o),
(252,228,o),
(166,228,cs),
(117,228,l)
);
}
);
userData = {
RMXScaler = {
height = 50;
verticalShift = 158;
weight = -100;
width = 50;
};
};
width = 383;
},
{
anchors = (
{
name = _center;
pos = (171,333);
},
{
name = bottom;
pos = (151,158);
},
{
name = center;
pos = (81,333);
},
{
name = top;
pos = (219,508);
}
);
layerId = m006;
shapes = (
{
closed = 1;
nodes = (
(129,158,ls),
(271,158,o),
(329,270,o),
(329,366,cs),
(329,449,o),
(277,508,o),
(195,508,cs),
(80,508,l),
(13,158,l)
);
},
{
closed = 1;
nodes = (
(98,489,l),
(183,489,ls),
(263,489,o),
(307,440,o),
(307,364,cs),
(307,264,o),
(246,177,o),
(123,177,cs),
(38,177,l)
);
}
);
userData = {
RMXScaler = {
height = 50;
verticalShift = 158;
width = 50;
};
};
width = 336;
}
);
metricLeft = H.small;
userData = {
RMXScaler = {
source = D;
};
};
},
{
export = 0;
glyphname = E.small;
kernLeft = B.small;
kernRight = AE.small;
lastChange = "2024-04-19 09:09:25 +0000";
layers = (
{
anchors = (
{
name = _center;
pos = (169,333);
},
{
name = bottom;
pos = (161,158);
},
{
name = ogonek;
pos = (294,158);
},
{
name = top;
pos = (161,508);
},
{
name = topleft;
pos = (13,508);
}
);
layerId = "99F9E815-CA06-496B-ADE7-93275C52C564";
shapes = (
{
closed = 1;
nodes = (
(103,158,l),
(103,508,l),
(45,508,l),
(45,158,l)
);
},
{
closed = 1;
nodes = (
(294,158,l),
(294,206,l),
(85,206,l),
(85,158,l)
);
},
{
closed = 1;
nodes = (
(263,324,l),
(263,373,l),
(85,373,l),
(85,324,l)
);
},
{
closed = 1;
nodes = (
(292,460,l),
(292,508,l),
(85,508,l),
(85,460,l)
);
}
);
userData = {
RMXScaler = {
height = 50;
verticalShift = 158;
weight = -30;
width = 50;
};
};
width = 321;
},
{
anchors = (
{
name = _center;
pos = (175,333);
},
{
name = bottom;
pos = (168,158);
},
{
name = ogonek;
pos = (314,158);
},
{
name = top;
pos = (168,508);
},
{
name = topleft;
pos = (10,508);
}
);
layerId = "D82997A7-F07B-4593-BC54-5FAA415CA6DD";
shapes = (
{
closed = 1;
nodes = (
(122,158,l),
(122,508,l),
(37,508,l),
(37,158,l)
);
},
{
closed = 1;
nodes = (
(314,158,l),
(314,228,l),
(94,228,l),
(94,158,l)
);
},
{
closed = 1;
nodes = (
(287,310,l),
(287,381,l),
(94,381,l),
(94,310,l)
);
},
{
closed = 1;
nodes = (
(307,438,l),
(307,508,l),
(94,508,l),
(94,438,l)
);
}
);
userData = {
RMXScaler = {
height = 50;
verticalShift = 158;
weight = -100;
width = 50;
};
};
width = 337;
},
{
anchors = (
{
name = _center;
pos = (163,333);
},
{
name = bottom;
pos = (151,158);
},
{
name = ogonek;
pos = (271,162);
},
{
name = top;
pos = (158,508);
},
{
name = topleft;
pos = (12,508);
}
);
layerId = "1D55BFB9-7388-4E46-BDEC-EEE084CDFE08";
shapes = (
{
closed = 1;
nodes = (
(73,158,l),
(73,508,l),
(52,508,l),
(52,158,l)
);
},
{
closed = 1;
nodes = (
(274,158,l),
(274,177,l),
(67,177,l),
(67,158,l)
);
},
{
closed = 1;
nodes = (
(247,342,l),
(247,360,l),
(67,360,l),
(67,342,l)
);
},
{
closed = 1;
nodes = (
(274,489,l),
(274,508,l),
(67,508,l),
(67,489,l)
);
}
);
userData = {
RMXScaler = {
height = 50;
verticalShift = 158;
width = 50;
};
};
width = 301;
},
{
anchors = (
{
name = _center;
pos = (185,333);
},
{
name = bottom;
pos = (151,158);
},
{
name = ogonek;
pos = (277,158);
},
{
name = top;
pos = (219,508);
},
{
name = topleft;
pos = (71,508);
}
);
layerId = m004;
shapes = (
{
closed = 1;
nodes = (
(87,158,l),
(155,508,l),
(96,508,l),
(28,158,l)
);
},
{
closed = 1;
nodes = (
(277,158,l),
(287,206,l),
(77,206,l),
(68,158,l)
);
},
{
closed = 1;
nodes = (
(278,324,l),
(287,373,l),
(109,373,l),
(100,324,l)
);
},
{
closed = 1;
nodes = (
(334,460,l),
(343,508,l),
(136,508,l),
(126,460,l)
);
}
);
userData = {
RMXScaler = {
height = 50;
verticalShift = 158;
weight = -30;
width = 50;
};
};
width = 321;
},
{
anchors = (
{
name = _center;
pos = (188,333);
},
{
name = bottom;
pos = (151,158);
},
{
name = ogonek;
pos = (296,158);
},
{
name = top;
pos = (219,508);
},
{
name = topleft;
pos = (62,508);
}
);
layerId = m005;
shapes = (
{
closed = 1;
nodes = (
(105,158,l),
(173,508,l),
(87,508,l),
(19,158,l)
);
},
{
closed = 1;
nodes = (
(296,158,l),
(310,228,l),
(90,228,l),
(76,158,l)
);
},
{
closed = 1;
nodes = (
(298,310,l),
(312,381,l),
(119,381,l),
(106,310,l)
);
},
{
closed = 1;
nodes = (
(343,438,l),
(357,508,l),
(144,508,l),
(130,438,l)
);
}
);
userData = {
RMXScaler = {
height = 50;
verticalShift = 158;
weight = -100;
width = 50;
};
};
width = 338;
},
{
anchors = (
{
name = _center;
pos = (173,333);
},
{
name = bottom;
pos = (130,158);
},
{
name = ogonek;
pos = (250,158);
},
{
name = top;
pos = (198,508);
},
{
name = topleft;
pos = (59,508);
}
);
layerId = m006;
shapes = (
{
closed = 1;
nodes = (
(50,158,l),
(118,508,l),
(96,508,l),
(28,158,l)
);
},
{
closed = 1;
nodes = (
(250,158,l),
(253,177,l),
(46,177,l),
(43,158,l)
);
},
{
closed = 1;
nodes = (
(259,342,l),
(262,360,l),
(82,360,l),
(79,342,l)
);
},
{
closed = 1;
nodes = (
(314,489,l),
(318,508,l),
(111,508,l),
(108,489,l)
);
}
);
userData = {
RMXScaler = {
height = 50;
verticalShift = 158;
width = 50;
};
};
width = 300;
}
);
userData = {
RMXScaler = {
source = E;
};
};
},
